<?xml version="1.0" encoding="utf-8"?>
<!-- Generator: Adobe Illustrator 16.0.0, SVG Export Plug-In . SVG Version: 6.00 Build 0)  -->
<!DOCTYPE svg PUBLIC "-//W3C//DTD SVG 1.1//EN" "http://www.w3.org/Graphics/SVG/1.1/DTD/svg11.dtd">
<svg version="1.1" id="Layer_1" xmlns="http://www.w3.org/2000/svg" xmlns:xlink="http://www.w3.org/1999/xlink" x="0px" y="0px"
	 width="500px" height="500px" viewBox="0 0 500 500" enable-background="new 0 0 500 500" xml:space="preserve">
<image display="none" overflow="visible" width="800" height="600" transform="matrix(1 0 0 1 -143.9946 -56.9985)">
</image>
<g>
	<path fill="none" stroke="#48484A" stroke-width="10" stroke-miterlimit="10" d="M291.763,206.597
		c18.095,7.402,18.095,19.405,0,26.807c-18.094,7.404-47.432,7.404-65.523,0c-18.097-7.402-18.097-19.405,0-26.807
		C244.331,199.192,273.669,199.192,291.763,206.597z"/>
	<path fill="none" stroke="#0AB4C5" stroke-width="10" stroke-linecap="round" stroke-miterlimit="10" d="M217.199,174.735
		c-12.29-0.001-22.247-9.96-22.247-22.246c0-12.287,9.957-22.246,22.247-22.248c12.284,0,22.246,9.959,22.245,22.246v78.1"/>
	<path fill="none" stroke="#F9A719" stroke-width="10" stroke-linecap="round" stroke-linejoin="bevel" stroke-miterlimit="10" d="
		M288.898,100.888c-16.766,0-30.358,13.593-30.358,30.357v106.697"/>
	
		<circle fill="none" stroke="#0AB4C5" stroke-width="12" stroke-linecap="round" stroke-linejoin="bevel" stroke-miterlimit="10" cx="257.283" cy="71" r="9.051"/>
	<circle fill="#0AB4C5" cx="221.217" cy="34.333" r="7.051"/>
	<circle fill="#EE2B7B" cx="197.884" cy="109.667" r="7.051"/>
	<circle fill="#F9A719" cx="310.551" cy="75.667" r="7.051"/>
	<circle fill="#F9A719" cx="274.616" cy="253" r="3.718"/>
	<circle fill="#F9A719" cx="245.949" cy="271.666" r="2.051"/>
	<circle fill="#EE2B7B" cx="259.217" cy="13.667" r="7.051"/>
	<path fill="none" stroke="#EE2B7B" stroke-width="10" stroke-linecap="round" stroke-miterlimit="10" d="M321.808,161.49
		c0-12.287-9.958-22.246-22.247-22.248c-12.284,0-22.246,9.959-22.245,22.246v76.1"/>
	<g>
		<path fill="#F9A719" d="M219.75,279.25l-0.625,114.875c0,0,44.875,32.375,79.875-3.125V278c0,0-11-22-28.5-14.5
			S253.5,276.5,219.75,279.25z"/>
		<polyline fill="#CFCBA7" points="259,411 259,490.333 296.439,400.938 		"/>
		<path fill="none" stroke="#48484A" stroke-width="10" stroke-miterlimit="10" d="M299,398V232c0,0-44,17-80-1v167
			C219,398,252,419,299,398z"/>
		<line fill="none" stroke="#48484A" stroke-width="10" stroke-miterlimit="10" x1="243" y1="307" x2="243" y2="406"/>
		<line fill="none" stroke="#48484A" stroke-width="10" stroke-miterlimit="10" x1="270" y1="334" x2="270" y2="404"/>
		<path fill="none" stroke="#48484A" stroke-width="10" stroke-linecap="round" stroke-miterlimit="10" d="M298.277,400.592
			l-36.612,86.06c-1.597,3.744-4.181,3.744-5.775,0l-36.612-86.06"/>
		<polygon fill="#48484A" points="246,462 272,462 258.334,485.667 		"/>
	</g>
</g>
</svg>
