<?xml version="1.0" encoding="utf-8"?>
<!-- Generator: Adobe Illustrator 16.0.0, SVG Export Plug-In . SVG Version: 6.00 Build 0)  -->
<!DOCTYPE svg PUBLIC "-//W3C//DTD SVG 1.1//EN" "http://www.w3.org/Graphics/SVG/1.1/DTD/svg11.dtd">
<svg version="1.1" id="Layer_1" xmlns="http://www.w3.org/2000/svg" xmlns:xlink="http://www.w3.org/1999/xlink" x="0px" y="0px"
	 width="131px" height="48px" viewBox="-1.307 0.508 131 48" enable-background="new -1.307 0.508 131 48" xml:space="preserve">
<g enable-background="new    ">
	<path fill="#EB2124" d="M0.499,7.823c0-2.649,2.094-4.743,4.741-4.743h15.27c4.926,0,8.805,1.355,11.268,3.818
		c1.97,1.97,2.955,4.373,2.955,7.329v0.12c0,4.865-2.586,7.575-5.665,9.299c4.988,1.91,8.066,4.803,8.066,10.591v0.123
		c0,7.882-6.404,11.822-16.132,11.822H5.24c-2.647,0-4.741-2.094-4.741-4.743V7.823z M18.478,20.504
		c4.187,0,6.834-1.352,6.834-4.554v-0.125c0-2.83-2.216-4.434-6.219-4.434H9.735v9.113H18.478z M21.003,37.87
		c4.187,0,6.711-1.478,6.711-4.68v-0.125c0-2.893-2.155-4.681-7.02-4.681H9.735v9.485H21.003z"/>
	<path fill="#EB2124" d="M43.053,24.754v-0.123c0-12.255,9.667-22.29,22.966-22.29c13.3,0,22.844,9.915,22.844,22.166v0.124
		c0,12.254-9.667,22.289-22.967,22.289C52.596,46.92,43.053,37.005,43.053,24.754z M78.95,24.754v-0.123
		c0-7.389-5.418-13.546-13.054-13.546c-7.635,0-12.93,6.034-12.93,13.422v0.124c0,7.389,5.418,13.546,13.053,13.546
		C73.655,38.177,78.95,32.142,78.95,24.754z"/>
	<path fill="#EB2124" d="M97.309,7.45c0-2.646,2.093-4.74,4.741-4.74c2.647,0,4.741,2.094,4.741,4.74v30.111h17.548
		c2.403,0,4.311,1.906,4.311,4.31s-1.907,4.311-4.311,4.311H102.05c-2.648,0-4.741-2.094-4.741-4.743V7.45z"/>
</g>
</svg>
