<?xml version="1.0" encoding="utf-8"?>
<!-- Generator: Adobe Illustrator 16.0.0, SVG Export Plug-In . SVG Version: 6.00 Build 0)  -->
<!DOCTYPE svg PUBLIC "-//W3C//DTD SVG 1.1//EN" "http://www.w3.org/Graphics/SVG/1.1/DTD/svg11.dtd">
<svg version="1.1" id="Layer_1" xmlns="http://www.w3.org/2000/svg" xmlns:xlink="http://www.w3.org/1999/xlink" x="0px" y="0px"
	 width="300px" height="300px" viewBox="260.308 325.301 256.776 297.029"
	 enable-background="new 260.308 325.301 256.776 297.029" xml:space="preserve">
<image display="none" overflow="visible" enable-background="new    " width="203" height="34" xlink:href="logo.png"  transform="matrix(0.7501 0 0 0.7501 318.1353 684.334)">
</image>
<g>
	<g>
		<path fill="#3F9ED7" stroke="#3F9ED7" stroke-width="0.5" stroke-miterlimit="10" d="M293.993,616.42
			c-3.516,0-6.87-0.648-10.059-1.953c-3.192-1.3-5.957-3.125-8.301-5.469c-2.344-2.344-4.199-5.044-5.566-8.105
			c-1.367-3.058-2.051-6.348-2.051-9.862V361.146c0-3.516,0.684-6.836,2.051-9.961c1.367-3.125,3.223-5.826,5.566-8.105
			c2.344-2.276,5.108-4.102,8.301-5.469c3.188-1.367,6.543-2.051,10.059-2.051h69.531c25.26,0,47.266,3.159,66.016,9.473
			c18.75,6.317,34.342,15.497,46.777,27.539c12.434,12.045,21.711,26.855,27.832,44.434c6.118,17.578,9.18,37.631,9.18,60.156
			c0,22.528-3.354,42.45-10.059,59.766c-6.707,17.319-16.375,31.87-29.005,43.652c-12.631,11.786-28.125,20.703-46.483,26.758
			c-18.359,6.055-39.131,9.082-62.306,9.082H293.993L293.993,616.42z M319.969,580.678h44.142c16.924,0,31.348-2.374,43.262-7.129
			c11.914-4.751,21.646-11.621,29.199-20.604c7.551-8.984,13.053-19.923,16.504-32.813c3.449-12.891,5.176-27.539,5.176-43.945
			c0-18.097-2.215-33.722-6.641-46.875c-4.429-13.149-10.938-24.022-19.531-32.616c-8.593-8.594-19.207-14.941-31.836-19.043
			c-12.631-4.102-27.085-6.152-43.36-6.152h-36.914V580.678z"/>
	</g>
	<path fill="#3F9ED7" stroke="#3F9ED7" stroke-width="0.5" stroke-miterlimit="10" d="M304.066,355.434
		c0,0,184.492-29.998,184.492,100.495c0,130.493-64.495,136.493-185.991,136.493L304.066,355.434z"/>
	<path fill="#FFFFFF" d="M431.479,483.629l-66.344,66.339c-4.21,4.223-11.057,4.223-15.278,0c-4.212-4.223-4.212-11.065,0-15.284
		l58.698-58.699l-58.698-58.694c-4.212-4.217-4.212-11.055,0-15.279c4.222-4.217,11.067-4.217,15.291,0l66.345,66.341
		c2.101,2.111,3.155,4.873,3.155,7.634C434.647,478.75,433.593,481.518,431.479,483.629z"/>
</g>
</svg>
