<?xml version="1.0" encoding="utf-8"?>
<!-- Generator: Adobe Illustrator 16.0.0, SVG Export Plug-In . SVG Version: 6.00 Build 0)  -->
<!DOCTYPE svg PUBLIC "-//W3C//DTD SVG 1.1//EN" "http://www.w3.org/Graphics/SVG/1.1/DTD/svg11.dtd">
<svg version="1.1" id="Layer_1" xmlns="http://www.w3.org/2000/svg" xmlns:xlink="http://www.w3.org/1999/xlink" x="0px" y="0px"
	 width="200px" height="200px" viewBox="0 0 300 300" enable-background="new 0 0 300 300" xml:space="preserve">
<g>
	<g>
		<g>
			<defs>
				<polygon id="SVGID_1_" points="6750.746,6394.209 6597.781,6338.637 6597.781,6379.615 6741.858,6439.397 				"/>
			</defs>
			<use xlink:href="#SVGID_1_"  overflow="visible" fill="#226AB2"/>
			<clipPath id="SVGID_2_">
				<use xlink:href="#SVGID_1_"  overflow="visible"/>
			</clipPath>
			<g clip-path="url(#SVGID_2_)">
				<g transform="translate(586.72 161.21) scale(0.24)">
				</g>
			</g>
		</g>
	</g>
	<g>
		<g>
			<defs>
				<polygon id="SVGID_3_" points="6447.529,6398.794 6597.969,6338.637 6597.969,6379.615 6454.64,6443.14 				"/>
			</defs>
			<use xlink:href="#SVGID_3_"  overflow="visible" fill="#347EC0"/>
			<clipPath id="SVGID_4_">
				<use xlink:href="#SVGID_3_"  overflow="visible"/>
			</clipPath>
			<g clip-path="url(#SVGID_4_)">
			</g>
		</g>
	</g>
	<polyline fill="#A5C6E8" points="6750.746,6394.209 6742.794,6440.426 6603.113,6534.451 6603.113,6482.808 6749.717,6394.209 	"/>
	<g>
		<g>
			<g>
				<defs>
					<polygon id="SVGID_5_" points="6596.19,6272.025 6762.347,6317.4 6754.021,6371.008 6596.19,6318.335 					"/>
				</defs>
				<use xlink:href="#SVGID_5_"  overflow="visible" fill="#226AB2"/>
				<clipPath id="SVGID_6_">
					<use xlink:href="#SVGID_5_"  overflow="visible"/>
				</clipPath>
				<g clip-path="url(#SVGID_6_)">
				</g>
			</g>
		</g>
		<g>
			<g>
				<defs>
					<polygon id="SVGID_7_" points="6596.284,6272.025 6434.713,6320.58 6444.067,6374.844 6596.284,6318.335 					"/>
				</defs>
				<use xlink:href="#SVGID_7_"  overflow="visible" fill="#347EC0"/>
				<clipPath id="SVGID_8_">
					<use xlink:href="#SVGID_7_"  overflow="visible"/>
				</clipPath>
				<g clip-path="url(#SVGID_8_)">
				</g>
			</g>
		</g>
		<polygon fill="#A5C6E8" points="6603.113,6394.115 6603.113,6457.174 6754.115,6371.008 6762.347,6317.4 		"/>
		<polygon fill="#538ECB" points="6603.113,6394.115 6603.113,6457.174 6443.32,6375.686 6433.777,6320.58 		"/>
	</g>
	<polygon fill="#538ECB" points="6603.113,6482.808 6603.113,6534.264 6454.64,6443.14 6447.529,6398.794 	"/>
</g>
<g>
	<g>
		<path fill="#3F9ED7" stroke="#3F9ED7" stroke-width="0.5" stroke-miterlimit="10" d="M51.099,296.025
			c-3.66,0-7.15-0.675-10.469-2.033c-3.322-1.352-6.2-3.252-8.64-5.691c-2.439-2.439-4.37-5.249-5.793-8.436
			c-1.422-3.182-2.134-6.606-2.134-10.264V30.346c0-3.659,0.712-7.115,2.134-10.367c1.423-3.252,3.354-6.063,5.793-8.435
			c2.44-2.369,5.316-4.27,8.64-5.692c3.318-1.422,6.81-2.134,10.469-2.134h72.366c26.289,0,49.193,3.288,68.707,9.859
			c19.515,6.574,35.742,16.128,48.685,28.661c12.94,12.537,22.596,27.95,28.967,46.246c6.367,18.294,9.554,39.165,9.554,62.609
			c0,23.446-3.491,44.181-10.469,62.201c-6.98,18.026-17.042,33.17-30.188,45.432c-13.146,12.268-29.271,21.547-48.378,27.849
			c-19.107,6.301-40.727,9.452-64.846,9.452H51.099L51.099,296.025z M78.133,258.826h45.941c17.614,0,32.626-2.47,45.026-7.42
			c12.399-4.943,22.528-12.095,30.39-21.443c7.858-9.351,13.585-20.735,17.177-34.152c3.59-13.416,5.387-28.661,5.387-45.736
			c0-18.834-2.306-35.096-6.911-48.785c-4.609-13.686-11.385-25.002-20.328-33.946c-8.942-8.945-19.989-15.551-33.134-19.82
			c-13.146-4.27-28.189-6.403-45.128-6.403H78.133V258.826z"/>
	</g>
	<path fill="#3F9ED7" stroke="#3F9ED7" stroke-width="0.5" stroke-miterlimit="10" d="M56.493,28.096
		c0,0,192.013-31.221,192.013,104.591S181.382,274.743,54.933,274.743L56.493,28.096z"/>
	<g>
		<g>
			<path fill="#FFFFFF" stroke="#FFFFFF" stroke-width="12" stroke-miterlimit="10" d="M196.113,141.046l-70.082-70.082
				c-2.635-2.635-6.323-4.216-9.485-4.216c-3.162,0-6.323,1.581-8.958,4.216c-5.269,5.27-5.269,12.646,0,17.916l61.124,61.125
				l-61.124,61.122c-5.269,5.27-5.269,12.647,0,17.916c5.269,5.27,13.173,5.27,18.443,0l70.082-70.081
				c2.635-2.636,3.688-5.797,3.688-8.957C199.802,146.314,198.748,143.68,196.113,141.046z"/>
		</g>
	</g>
</g>
</svg>
