<?xml version="1.0" encoding="utf-8"?>
<!-- Generator: Adobe Illustrator 16.0.0, SVG Export Plug-In . SVG Version: 6.00 Build 0)  -->
<!DOCTYPE svg PUBLIC "-//W3C//DTD SVG 1.1//EN" "http://www.w3.org/Graphics/SVG/1.1/DTD/svg11.dtd">
<svg version="1.1" id="Layer_1" xmlns="http://www.w3.org/2000/svg" xmlns:xlink="http://www.w3.org/1999/xlink" x="0px" y="0px"
	 width="256.775px" height="49.015px" viewBox="0 0 256.775 49.015" enable-background="new 0 0 256.775 49.015"
	 xml:space="preserve">
<g>
	<path fill="#3F9ED7" stroke="#3F9ED7" stroke-width="0.5" stroke-miterlimit="10" d="M30.256,39.886
		c0,1.056-0.817,1.872-1.825,1.872c-1.056,0-1.872-0.815-1.872-1.872v-3.361c-2.017,2.976-4.945,5.522-9.505,5.522
		c-5.952,0-11.856-4.706-11.856-12.864v-0.095c0-8.113,5.905-12.915,11.856-12.915c4.609,0,7.586,2.497,9.505,5.281V8.109
		c0-1.056,0.767-1.872,1.823-1.872s1.873,0.815,1.873,1.872V39.886L30.256,39.886z M8.989,29.037v0.096c0,5.857,4.082,9.6,8.736,9.6
		c4.609,0,8.977-3.889,8.977-9.6v-0.096c0-5.712-4.368-9.551-8.977-9.551C12.925,19.486,8.989,23.037,8.989,29.037z"/>
	<path fill="#3F9ED7" stroke="#3F9ED7" stroke-width="0.5" stroke-miterlimit="10" d="M49.364,42.047
		c-6.816,0-12.385-5.233-12.385-12.913v-0.095c0-7.152,5.041-12.914,11.906-12.914c7.344,0,11.521,6.001,11.521,12.578
		c0,1.008-0.815,1.727-1.729,1.727H40.723c0.529,5.376,4.321,8.4,8.738,8.4c3.072,0,5.327-1.197,7.151-2.879
		c0.288-0.24,0.624-0.43,1.056-0.43c0.913,0,1.633,0.719,1.633,1.583c0,0.432-0.192,0.865-0.577,1.201
		C56.373,40.56,53.589,42.047,49.364,42.047z M56.709,27.696c-0.384-4.514-2.977-8.45-7.921-8.45c-4.32,0-7.584,3.6-8.065,8.45
		H56.709z"/>
	<path fill="#3F9ED7" stroke="#3F9ED7" stroke-width="0.5" stroke-miterlimit="10" d="M95.069,8.396
		c0-1.008,0.817-1.872,1.825-1.872c1.055,0,1.872,0.864,1.872,1.872v31.778c0,1.057-0.769,1.872-1.825,1.872
		c-1.055,0-1.872-0.815-1.872-1.872V8.396z"/>
	<path fill="#3F9ED7" stroke="#3F9ED7" stroke-width="0.5" stroke-miterlimit="10" d="M118.207,42.047
		c-6.816,0-12.385-5.233-12.385-12.913v-0.095c0-7.152,5.042-12.914,11.906-12.914c7.344,0,11.52,6.001,11.52,12.578
		c0,1.008-0.815,1.727-1.728,1.727h-17.954c0.529,5.376,4.321,8.4,8.737,8.4c3.073,0,5.328-1.197,7.152-2.879
		c0.288-0.24,0.624-0.43,1.056-0.43c0.913,0,1.633,0.719,1.633,1.583c0,0.432-0.193,0.865-0.577,1.201
		C125.216,40.56,122.432,42.047,118.207,42.047z M125.552,27.696c-0.384-4.514-2.977-8.45-7.92-8.45c-4.32,0-7.585,3.6-8.065,8.45
		H125.552z"/>
	<path fill="#3F9ED7" stroke="#3F9ED7" stroke-width="0.5" stroke-miterlimit="10" d="M135.781,18.621
		c0-1.008,0.816-1.87,1.824-1.87c1.055,0,1.87,0.814,1.87,1.87v4.656c1.824-4.128,5.424-6.624,8.545-6.624
		c1.104,0,1.824,0.815,1.824,1.872c0,1.009-0.672,1.728-1.633,1.87c-4.801,0.578-8.737,4.179-8.737,11.33v8.448
		c0,1.009-0.768,1.872-1.823,1.872s-1.872-0.815-1.872-1.872V18.621H135.781z"/>
	<path fill="#3F9ED7" stroke="#3F9ED7" stroke-width="0.5" stroke-miterlimit="10" d="M155.223,18.621
		c0-1.008,0.816-1.87,1.824-1.87c1.055,0,1.87,0.814,1.87,1.87v2.689c1.633-2.689,4.225-4.849,8.496-4.849
		c6.001,0,9.505,4.031,9.505,9.936v13.777c0,1.057-0.814,1.872-1.822,1.872c-1.056,0-1.873-0.815-1.873-1.872V27.31
		c0-4.607-2.496-7.488-6.864-7.488c-4.271,0-7.44,3.121-7.44,7.777v12.577c0,1.056-0.767,1.872-1.823,1.872
		c-1.055,0-1.871-0.815-1.871-1.872L155.223,18.621L155.223,18.621z"/>
	<path fill="#3F9ED7" stroke="#3F9ED7" stroke-width="0.5" stroke-miterlimit="10" d="M195.644,42.047
		c-6.814,0-12.385-5.233-12.385-12.913v-0.095c0-7.152,5.041-12.914,11.907-12.914c7.344,0,11.521,6.001,11.521,12.578
		c0,1.008-0.816,1.727-1.729,1.727h-17.954c0.527,5.376,4.321,8.4,8.737,8.4c3.072,0,5.328-1.197,7.152-2.879
		c0.288-0.24,0.624-0.43,1.057-0.43c0.911,0,1.632,0.719,1.632,1.583c0,0.432-0.191,0.865-0.576,1.201
		C202.655,40.56,199.869,42.047,195.644,42.047z M202.991,27.696c-0.384-4.514-2.978-8.45-7.921-8.45c-4.321,0-7.586,3.6-8.065,8.45
		H202.991z"/>
	<path fill="#3F9ED7" stroke="#3F9ED7" stroke-width="0.5" stroke-miterlimit="10" d="M223.883,29.443l-2.195,2.529l-7.703,9.164
		c-0.432,0.528-0.912,0.912-1.584,0.912c-0.961,0-1.68-0.769-1.68-1.68c0-0.479,0.142-0.865,0.478-1.201l8.112-9.982l-7.632-9.362
		c-0.384-0.433-0.576-0.862-0.576-1.344c0-1.055,0.767-1.727,1.728-1.727c0.721,0,1.199,0.336,1.633,0.862l7.153,9.075
		 M224.744,30.36l7.099,8.616c0.336,0.431,0.527,0.862,0.527,1.344c0,1.008-0.769,1.727-1.728,1.727
		c-0.721,0-1.198-0.336-1.632-0.862l-6.581-8.052 M228.723,17.662c0.432-0.527,0.912-0.912,1.584-0.912c0.96,0,1.68,0.719,1.68,1.68
		c0,0.479-0.191,0.863-0.478,1.199l-6.659,8.874l-2.459-2.812L228.723,17.662z"/>
	<path fill="#3F9ED7" stroke="#3F9ED7" stroke-width="0.5" stroke-miterlimit="10" d="M240.678,35.038V20.061h-2.016
		c-0.863,0-1.633-0.767-1.633-1.632c0-0.913,0.769-1.632,1.633-1.632h2.016V10.94c0-1.008,0.769-1.87,1.825-1.87
		c1.008,0,1.87,0.862,1.87,1.87v5.858h6.432c0.915,0,1.682,0.769,1.682,1.632c0,0.913-0.767,1.632-1.682,1.632h-6.432v14.498
		c0,3.025,1.681,4.129,4.177,4.129c1.297,0,1.969-0.336,2.255-0.336c0.865,0,1.585,0.719,1.585,1.583
		c0,0.672-0.432,1.201-1.056,1.44c-1.057,0.433-2.209,0.672-3.648,0.672C243.702,42.047,240.678,40.078,240.678,35.038z"/>
	<g>
		<g>
			<path fill="#3F9ED7" stroke="#3F9ED7" stroke-width="0.5" stroke-miterlimit="10" d="M88.47,21.851v16.273v0.413h-2.75v-0.409
				V37.08c-1.168,1.42-2.478,2.488-3.933,3.205c-1.454,0.716-3.042,1.076-4.77,1.076c-3.065,0-5.685-1.112-7.854-3.336
				c-2.17-2.223-3.254-4.927-3.254-8.112c0-3.119,1.094-5.788,3.286-8.004c2.189-2.217,4.824-3.325,7.904-3.325
				c1.779,0,3.389,0.379,4.829,1.134c1.44,0.756,2.704,1.892,3.792,3.407v-1.426 M77.328,21.271c-1.552,0-2.983,0.38-4.295,1.143
				c-1.313,0.759-2.357,1.834-3.133,3.212c-0.776,1.377-1.163,2.836-1.163,4.373c0,1.526,0.391,2.983,1.175,4.376
				c0.783,1.392,1.832,2.476,3.15,3.251c1.319,0.774,2.736,1.163,4.247,1.163c1.525,0,2.971-0.384,4.335-1.154
				c1.365-0.767,2.415-1.81,3.15-3.122c0.737-1.313,1.104-2.792,1.104-4.436c0-2.503-0.826-4.599-2.475-6.284
				C81.773,22.113,79.741,21.271,77.328,21.271z"/>
		</g>
		<path fill="#3F9ED7" stroke="#3F9ED7" stroke-width="0.5" stroke-miterlimit="10" d="M88.47,34.409v5.441
			c0,0.882-0.716,1.64-1.6,1.64c-0.924,0-1.641-0.758-1.641-1.64v-5.441"/>
		<path fill="#3F9ED7" stroke="#3F9ED7" stroke-width="0.5" stroke-miterlimit="10" d="M85.23,24.877v-5.441
			c0-0.883,0.716-1.64,1.641-1.64c0.883,0,1.6,0.756,1.6,1.64v5.441"/>
	</g>
</g>
</svg>
