<svg version="1.1" id="Layer_1" xmlns="http://www.w3.org/2000/svg" xmlns:xlink="http://www.w3.org/1999/xlink" x="0px" y="0px"
	 width="70px" height="70px" viewBox="0 0 75 75" enable-background="new 0 0 75 75" xml:space="preserve">
<path fill="none" stroke="#fff" stroke-linecap="round" stroke-miterlimit="10" d="M37.417,1h-3.522
	c-1.948,0-3.526,1.579-3.526,3.527v4.503c0,1.518-0.972,2.865-2.412,3.345l-2.569,0.856c-1.267,0.423-2.664,0.093-3.608-0.851
	l-3.014-3.014c-1.377-1.378-3.61-1.378-4.988,0l-4.41,4.411c-1.378,1.377-1.378,3.609,0,4.987l3.013,3.014
	c0.944,0.944,1.274,2.341,0.852,3.608l-0.856,2.569c-0.479,1.44-1.828,2.412-3.346,2.412H4.526C2.579,30.368,1,31.947,1,33.895
	v7.042c0,1.948,1.579,3.527,3.526,3.527H9.03c1.518,0,2.867,0.972,3.346,2.411l0.856,2.57c0.423,1.268,0.093,2.663-0.852,3.608
	l-3.013,3.013c-1.378,1.379-1.378,3.61,0,4.988l4.41,4.41c1.378,1.378,3.61,1.378,4.988,0l3.014-3.013
	c0.944-0.946,2.341-1.276,3.608-0.852l2.569,0.855c1.44,0.479,2.412,1.828,2.412,3.346v4.504c0,1.947,1.579,3.526,3.526,3.526h3.522
	h3.521c1.948,0,3.527-1.579,3.527-3.526v-4.504c0-1.518,0.972-2.866,2.411-3.346l2.57-0.855c1.267-0.425,2.663-0.095,3.608,0.852
	l3.013,3.013c1.378,1.378,3.61,1.378,4.988,0l4.41-4.41c1.377-1.378,1.377-3.609,0-4.988l-3.013-3.013
	c-0.946-0.945-1.276-2.341-0.853-3.608l0.856-2.57c0.479-1.439,1.828-2.411,3.346-2.411h4.504c1.947,0,3.526-1.579,3.526-3.527
	v-7.042c0-1.948-1.579-3.527-3.526-3.527h-4.504c-1.518,0-2.866-0.971-3.346-2.412l-0.856-2.569
	c-0.424-1.268-0.094-2.665,0.853-3.608l3.013-3.014c1.377-1.377,1.377-3.609,0-4.987l-4.41-4.411c-1.378-1.378-3.61-1.378-4.988,0
	l-3.013,3.014c-0.945,0.944-2.342,1.274-3.608,0.851l-2.57-0.856c-1.439-0.48-2.411-1.827-2.411-3.345V4.527
	C44.465,2.579,42.886,1,40.938,1H37.417z"/>
<path fill="none" stroke="#fff" stroke-linecap="round" stroke-miterlimit="10" d="M44.285,39.029
	c1.141-5.142-3.341-9.622-8.482-8.482c-2.59,0.576-4.681,2.666-5.256,5.257c-1.14,5.141,3.34,9.622,8.481,8.482
	C41.62,43.711,43.711,41.621,44.285,39.029z"/>
</svg>