<?xml version="1.0" encoding="utf-8"?>
<!-- Generator: Adobe Illustrator 16.0.0, SVG Export Plug-In . SVG Version: 6.00 Build 0)  -->
<!DOCTYPE svg PUBLIC "-//W3C//DTD SVG 1.1//EN" "http://www.w3.org/Graphics/SVG/1.1/DTD/svg11.dtd">
<svg version="1.1" id="Layer_1" xmlns="http://www.w3.org/2000/svg" xmlns:xlink="http://www.w3.org/1999/xlink" x="0px" y="0px"
	 width="460px" height="130px" viewBox="0 0 460 130" enable-background="new 0 0 460 130" xml:space="preserve">
<rect x="165" y="-93.5" display="none" fill="#EE2B7B" width="152.25" height="105"/>
<g>
	<g>
		<g>
			<g>
				<g transform="translate(586.72 161.21) scale(0.24)">
				</g>
			</g>
		</g>
	</g>
	<g>
		<g>
			<g>
			</g>
		</g>
	</g>
	<g>
		<g>
			<g>
				<g>
				</g>
			</g>
		</g>
		<g>
			<g>
				<g>
				</g>
			</g>
		</g>
	</g>
</g>
<g>
	<path d="M15.242,85.834c0,12.769,1.425,21.38,4.335,25.715c2.138,3.267,6.354,5.88,12.65,7.899L27.002,128
		c-9.443-2.91-15.679-8.136-18.648-15.679c-1.9-4.87-2.91-13.304-2.91-25.182V6.192h9.799V85.834L15.242,85.834z"/>
	<path d="M61.15,31.136h0.772c1.782,0,3.504,0.356,5.167,0.95c-0.653-5.226-2.376-9.146-5.167-11.64
		c-2.138-1.9-6.117-3.801-11.818-5.701l5.345-8.672c10.75,3.445,16.985,8.434,18.827,15.025c1.96,7.187,2.969,15.383,2.969,24.706
		v67.17c-0.119,2.554,0.238,5.107,0.95,7.542c1.01,3.563,2.257,5.583,3.86,6.059H71.9c-0.891-0.535-1.544-1.307-1.901-2.257
		c-2.435,1.425-5.226,2.257-8.018,2.257H61.21c-3.801,0-7.483-1.366-10.333-3.86c-3.326-2.673-4.989-5.88-4.989-9.563V44.558
		c0-3.682,1.663-6.83,4.989-9.562C53.667,32.502,57.349,31.136,61.15,31.136z M61.566,41.529c-3.979,0-5.939,2.019-5.939,6.058
		v63.547c0,4.038,1.96,6.058,5.939,6.058s5.939-2.02,5.879-6.058V47.587C67.445,43.548,65.486,41.529,61.566,41.529L61.566,41.529z"
		/>
	<path d="M110.087,5.836v45.968h15.026v9.681h-15.026v31.357c0,1.841,0.119,4.275,0.416,7.245c0.594,5.404,2.257,9.443,4.989,11.997
		c2.256,2.138,6.295,4.098,11.996,5.879l-5.346,8.671c-9.442-2.969-15.619-7.898-18.588-14.847
		c-2.02-4.811-3.029-12.947-3.029-24.409c-0.06-0.119-0.119-0.297-0.06-0.416V61.603h-6.235v-9.739h6.235V5.896h9.621V5.836z"/>
	<path d="M156.232,5.836h0.892c3.801,0,7.423,1.307,10.333,3.741c3.267,2.732,4.87,5.939,4.87,9.621v68.714
		c0,3.683-1.663,6.89-4.87,9.621c-2.91,2.436-6.532,3.741-10.333,3.741h-0.892c-1.781,0-3.504-0.355-5.166-0.95
		c0.594,5.523,2.315,9.8,5.226,12.71c2.494,2.435,6.593,4.573,12.234,6.414L163.182,128c-9.503-2.91-15.857-8.077-19.005-15.5
		c-2.197-5.167-3.326-13.601-3.326-25.182V19.258c0-3.683,1.663-6.829,4.989-9.562C148.809,7.202,152.491,5.836,156.232,5.836z
		 M156.708,16.288c-3.979,0-5.939,2.02-5.939,6.059v63.546c0,4.039,1.96,6.059,5.939,6.059s5.938-2.02,5.88-6.059V22.347
		C162.588,18.249,160.628,16.288,156.708,16.288z"/>
	<path d="M203.507,5.005c3.92-0.06,7.721,1.188,10.868,3.563c3.504,2.555,5.227,5.82,5.227,9.8v108.267h-9.8V21.337
		c0-4.039-1.96-6.059-5.879-6.059c-3.92,0-5.88,2.02-5.939,6.059v105.238h-9.799V18.367c0-3.683,1.663-6.829,4.988-9.562
		C196.023,6.37,199.706,5.005,203.507,5.005z"/>
	<path d="M251.909,5.836v45.968h15.025v9.681h-15.025v31.357c0,1.841,0.119,4.275,0.416,7.245c0.594,5.404,2.257,9.443,4.988,11.997
		c2.257,2.138,6.296,4.098,11.997,5.879l-5.346,8.671c-9.442-2.969-15.619-7.898-18.589-14.847
		c-2.019-4.811-3.028-12.947-3.028-24.409c-0.06-0.119-0.119-0.297-0.119-0.416V61.603h-6.235v-9.739h6.235V5.896h9.681V5.836z"/>
	<path fill="#5692CD" d="M292.591,86.605c0,10.274,0.653,17.639,1.96,22.034c0.713,2.435,2.079,4.632,3.979,6.413
		c3.147-3.088,5.048-7.779,5.701-14.075c0.356-3.444,0.534-8.195,0.534-14.372V6.192h9.8v81.72c0,7.424-0.238,12.947-0.772,16.629
		c-1.604,10.928-6.651,18.232-15.145,22.034c-8.433-3.505-13.481-10.869-15.145-22.152c-0.475-3.207-0.712-8.73-0.712-16.511V6.192
		h9.799V86.605L292.591,86.605z"/>
	<path fill="#5692CD" d="M336.599,17.417c-3.801,0-5.701-1.842-5.701-5.582c0-3.742,1.9-5.583,5.701-5.583
		c3.741,0,5.583,1.841,5.583,5.583C342.182,15.517,340.34,17.417,336.599,17.417z M331.729,126.634V29.889h9.8v96.687h-9.8V126.634z
		"/>
	<path fill="#5692CD" d="M373.36,5.836h0.892c3.801,0,7.423,1.307,10.333,3.741c3.267,2.732,4.87,5.939,4.87,9.621v68.714
		c0,3.683-1.663,6.89-4.87,9.621c-2.91,2.436-6.532,3.741-10.333,3.741h-0.892c-1.781,0-3.504-0.355-5.167-0.95
		c0.595,5.523,2.316,9.8,5.227,12.71c2.494,2.435,6.593,4.573,12.234,6.414L380.31,128c-9.503-2.91-15.857-8.077-19.005-15.5
		c-2.197-5.167-3.326-13.601-3.326-25.182V19.258c0-3.683,1.663-6.829,4.989-9.562C365.878,7.202,369.56,5.836,373.36,5.836z
		 M373.776,16.288c-3.979,0-5.938,2.02-5.938,6.059v63.546c0,4.039,1.959,6.059,5.938,6.059s5.938-2.02,5.88-6.059V22.347
		C379.656,18.249,377.696,16.288,373.776,16.288L373.776,16.288z"/>
	<path fill="#5692CD" d="M415.052,86.605c0,10.274,0.653,17.639,2.02,22.034c0.713,2.435,2.079,4.691,3.979,6.413
		c3.088-3.028,5.048-7.72,5.761-14.075c0.297-3.504,0.475-7.067,0.415-10.571V6.192h9.8v84.155c0,7.779,0.653,13.837,1.96,18.292
		c0.713,2.435,2.078,4.632,3.979,6.413c3.148-3.088,5.049-7.779,5.701-14.075c0.356-3.444,0.535-8.195,0.535-14.372V6.192H459v81.72
		c0,7.424-0.237,12.947-0.771,16.629c-1.604,10.928-6.593,18.232-15.025,22.034c-4.692-1.842-8.553-5.227-11.047-9.621
		c-0.594,0.95-1.188,1.841-1.841,2.731c-2.436,3.029-5.583,5.404-9.206,6.89c-8.433-3.505-13.48-10.869-15.144-22.152
		c-0.476-3.207-0.713-8.73-0.713-16.511V6.192h9.799V86.605L415.052,86.605z"/>
</g>
</svg>
