<?xml version="1.0" encoding="utf-8"?>
<!-- Generator: Adobe Illustrator 16.0.0, SVG Export Plug-In . SVG Version: 6.00 Build 0)  -->
<!DOCTYPE svg PUBLIC "-//W3C//DTD SVG 1.1//EN" "http://www.w3.org/Graphics/SVG/1.1/DTD/svg11.dtd">
<svg version="1.1" id="Layer_1" xmlns="http://www.w3.org/2000/svg" xmlns:xlink="http://www.w3.org/1999/xlink" x="0px" y="0px"
	 width="300px" height="300px" viewBox="0 0 418.479 361.481" enable-background="new 0 0 418.479 361.481"
	 xml:space="preserve">
<rect x="355.389" y="130.9" display="none" fill="#EE2B7B" width="152.25" height="105"/>
<g>
	<polyline fill="#226AB2" points="414.274,184.61 216.79,90.538 216.658,145.394 414.541,243.566 	"/>
	<polyline fill="#347EC0" points="4.237,184.258 216.79,90.496 216.79,145.485 4.237,243.476 	"/>
	<g>
		<polyline fill="#226AB2" points="414.274,90.141 216.79,4.617 216.79,59.209 414.541,149.095 		"/>
		<polygon fill="#A5C6E8" points="217.85,170.158 217.85,246.303 414.541,149.009 414.541,89.79 		"/>
		<polyline fill="#347EC0" points="4.237,89.79 216.79,4.484 216.79,59.473 4.237,149.009 		"/>
		<polygon fill="#538ECB" points="217.85,170.158 217.85,246.303 4.237,149.009 4.237,89.79 		"/>
	</g>
	<polygon fill="#A5C6E8" points="217.85,281.545 217.85,357.692 414.541,243.476 414.541,184.258 	"/>
	<polygon fill="#538ECB" points="217.85,281.545 217.85,357.692 4.237,243.476 4.237,184.258 	"/>
</g>
</svg>
