<?xml version="1.0" encoding="utf-8"?>
<!-- Generator: Adobe Illustrator 16.0.0, SVG Export Plug-In . SVG Version: 6.00 Build 0)  -->
<!DOCTYPE svg PUBLIC "-//W3C//DTD SVG 1.1//EN" "http://www.w3.org/Graphics/SVG/1.1/DTD/svg11.dtd">
<svg version="1.1" id="Layer_1" xmlns="http://www.w3.org/2000/svg" xmlns:xlink="http://www.w3.org/1999/xlink" x="0px" y="0px"
	 width="20px" height="20px" viewBox="0 0 100 82.999" enable-background="new 0 0 100 82.999" xml:space="preserve">
<g>
	<path d="M70.582,81.998L58.444,72.29c12.944-8.899,23.058-24.677,23.868-37.622c-0.406,0.405-3.236,0.811-4.451,0.811
		c-9.305,0-16.182-7.283-16.182-16.992c0-9.303,7.282-17.394,16.992-17.394c10.922,0,20.63,9.303,20.63,25.891
		C99.302,49.636,85.952,70.671,70.582,81.998z M13.139,81.998L1,72.29c12.945-8.899,23.062-24.677,23.867-37.622
		c-0.402,0.405-2.828,0.811-4.448,0.811c-9.303,0-16.18-7.283-16.18-16.992c0-9.303,7.28-17.394,17.393-17.394
		c10.923,0,20.226,9.303,20.226,25.891C41.857,49.636,28.912,70.671,13.139,81.998z"/>
</g>
</svg>
