<?xml version="1.0" encoding="utf-8"?>
<!-- Generator: Adobe Illustrator 16.0.0, SVG Export Plug-In . SVG Version: 6.00 Build 0)  -->
<!DOCTYPE svg PUBLIC "-//W3C//DTD SVG 1.1//EN" "http://www.w3.org/Graphics/SVG/1.1/DTD/svg11.dtd">
<svg version="1.1" id="Layer_1" xmlns="http://www.w3.org/2000/svg" xmlns:xlink="http://www.w3.org/1999/xlink" x="0px" y="0px"
	 width="1000px" height="1000px" viewBox="0 0 1000 1000" enable-background="new 0 0 1000 1000" xml:space="preserve">
<path d="M356,812h474v-7h-13l-15-14h-12v-35h-33v27h-38v-16h-8l-8,14h-9v-41h-32v39h-24c0,0-2-62-7-73c-10.302-22.664-36-24-36-24
	l0,0v95h-17v-80h-26v76c0,0-11.48-3.52-18,3c-3.5,3.5,0-66,0-66l-28,16v56h-13v-22h-45v22h-9v-13h-26v14h-32v10h-13v7h-35l-13,13
	L356,812z"/>
<g>
	<polygon points="232,332 232,376 848,376 848,356 833,356 833,372 818,372 818,342 800,342 800,320 783,320 783,346 775,337 
		762,337 764,345 732,328 732,298 718,298 718,320 705,320 705,332 695.25,370.5 684,359.5 684,273 669,273 669,285 661,285 
		661,279 654,279 654,287 642,287 642,256 637,240 633,252 633,285 622,285 622,266 599,266 599,276 584,276 584,303 548,303 
		548,214 519,214 519,302 506,302 506,249 484,249 484,303 468,303 468,284 456,275 435,275 422,285 422,301 411,301 410,285 
		395,291 395,299 378,299 371,299 364,281 364,289 349,289 345,280 345,298 329,298 329,264 314,264 314,299 298,299 298,240 
		280,240 280,282 266,282 266,240 234,240 	"/>
	<path fill="#FFFFFF" d="M232,376"/>
	<path fill="#FFFFFF" d="M232,376"/>
	<polygon points="71,349 71,376 232,376 232,366 222,366 222,345 213,345 213,363 199,363 199,327 193,295 184,326 184,340 155,340 
		143,357 121,357 121,304 93,304 93,352 82,352 82,341 72,341 	"/>
</g>
<g>
	<path d="M426.262,503.952c0.467-31.324,24.042-53.029,52.527-54.879c28.487-1.853,51.249,24.635,50.775,55.962L426.262,503.952z"/>
	<path d="M494.806,504.16c0.282-18.767,14.408-31.773,31.476-32.885c17.068-1.111,30.704,14.757,30.418,33.528L494.806,504.16z"/>
	<path d="M395.163,503.063c0.282-18.768,14.408-31.774,31.476-32.886c17.069-1.111,30.704,14.758,30.418,33.528L395.163,503.063z"/>
	<polyline points="395,503 395,505 556,505 	"/>
</g>
<g>
	<path d="M411.262,608.952c0.467-31.323,24.042-53.029,52.527-54.88c28.487-1.852,51.249,24.636,50.775,55.963L411.262,608.952z"/>
	<path d="M479.806,609.16c0.282-18.767,14.408-31.773,31.476-32.885c17.068-1.111,30.704,14.758,30.418,33.528L479.806,609.16z"/>
	<path d="M380.097,608.667c0.213-14.197,10.9-24.037,23.812-24.878c12.913-0.841,23.228,11.164,23.011,25.364L380.097,608.667z"/>
	<polyline points="380,608 380,610 541,610 	"/>
</g>
</svg>
