<?xml version="1.0" encoding="utf-8"?>
<!-- Generator: Adobe Illustrator 16.0.0, SVG Export Plug-In . SVG Version: 6.00 Build 0)  -->
<!DOCTYPE svg PUBLIC "-//W3C//DTD SVG 1.1//EN" "http://www.w3.org/Graphics/SVG/1.1/DTD/svg11.dtd">
<svg version="1.1" id="Layer_1" xmlns="http://www.w3.org/2000/svg" xmlns:xlink="http://www.w3.org/1999/xlink" x="0px" y="0px"
	 width="190px" height="30px" viewBox="-1.501 0.008 190 49" enable-background="new -1.501 0.008 190 49" xml:space="preserve">
<g>
	<path fill="#00ADEF" d="M18.66,36.965L29.686,3.022h8.284L22.355,46.411h-7.301L-0.501,3.022h8.254L18.66,36.965z"/>
	<path fill="#00ADEF" d="M77.098,25.849c0,4.252-0.735,7.981-2.205,11.189c-1.47,3.209-3.571,5.673-6.303,7.391
		c-2.732,1.719-5.875,2.578-9.432,2.578c-3.517,0-6.65-0.859-9.402-2.578c-2.752-1.718-4.877-4.167-6.377-7.346
		s-2.26-6.844-2.28-10.996v-2.444c0-4.231,0.75-7.966,2.25-11.205s3.616-5.716,6.347-7.435c2.732-1.718,5.866-2.578,9.402-2.578
		c3.536,0,6.67,0.849,9.402,2.548c2.731,1.699,4.842,4.142,6.333,7.331c1.49,3.188,2.245,6.898,2.265,11.13V25.849z M69.558,23.584
		c0-4.808-0.909-8.493-2.727-11.056c-1.818-2.563-4.396-3.844-7.733-3.844c-3.258,0-5.806,1.277-7.644,3.83
		c-1.837,2.553-2.776,6.164-2.816,10.832v2.504c0,4.768,0.929,8.453,2.786,11.056s4.436,3.904,7.733,3.904
		c3.337,0,5.905-1.271,7.703-3.814s2.697-6.258,2.697-11.146V23.584z"/>
	<path fill="#00ADEF" d="M92.147,40.332h19.698v6.079H84.607V3.022h7.54V40.332z"/>
	<path fill="#00ADEF" d="M142.985,27.042h-17.82v13.29h20.83v6.079h-28.369V3.022h28.16v6.079h-20.621v11.979h17.82V27.042z"/>
	<path fill="#00ADEF" d="M168.077,29.723h-8.404v16.688h-7.539V3.022h15.258c5.006,0,8.869,1.124,11.592,3.37
		c2.723,2.248,4.082,5.498,4.082,9.753c0,2.903-0.699,5.333-2.1,7.292c-1.4,1.958-3.354,3.465-5.855,4.518l9.744,18.069v0.387
		h-8.076L168.077,29.723z M159.673,23.643h7.748c2.543,0,4.529-0.641,5.961-1.922c1.43-1.281,2.145-3.035,2.145-5.26
		c0-2.324-0.66-4.122-1.98-5.394c-1.322-1.271-3.293-1.927-5.916-1.967h-7.957V23.643z"/>
</g>
</svg>
