<?xml version="1.0"?>
<!--Icons from directory ""-->
<svg xmlns="http://www.w3.org/2000/svg" width="75" height="375" viewBox="0 0 75 375"><svg xmlns:xlink="http://www.w3.org/1999/xlink" id="dataops" xml:space="preserve" height="75" viewBox="0 0 75 75" width="75" version="1.1" y="0" x="0px" enable-background="new 0 0 75 75">	<path stroke="#000" stroke-miterlimit="10" d="m64.734 33.724" fill="none"/>	<g stroke="#000" stroke-miterlimit="10" fill="none">		<path d="m38.189 1.754v11.736c0 0.038-0.002 0.076-0.006 0.113-0.014 0.371-0.232 0.706-0.568 0.866-0.349 0.165-0.76 0.115-1.059-0.129-1.254-1.024-2.77-1.571-4.388-1.583-3.829 0.026-6.956 3.175-6.956 7.018 0 3.83 3.115 6.978 6.944 7.018 1.614-0.006 3.14-0.553 4.399-1.583 0.299-0.244 0.71-0.293 1.059-0.129 0.337 0.16 0.555 0.496 0.568 0.868 0.004 0.037 0.006 0.074 0.006 0.112v11.573"/>		<path d="m38.213 73.541v-11.736c0-0.037 0.002-0.075 0.006-0.112 0.014-0.371 0.231-0.706 0.569-0.866 0.348-0.164 0.76-0.115 1.058 0.129 1.252 1.023 2.77 1.571 4.388 1.583 3.829-0.026 6.956-3.175 6.956-7.017 0-3.831-3.114-6.979-6.943-7.019-1.614 0.005-3.142 0.553-4.4 1.582-0.298 0.244-0.71 0.295-1.058 0.129-0.338-0.158-0.556-0.495-0.569-0.867-0.004-0.036-0.006-0.074-0.006-0.112v-11.573"/>	</g>	<g stroke="#000" stroke-miterlimit="10" fill="none">		<path d="m2.213 37.493h11.735c0.038 0 0.076 0.002 0.113 0.006 0.371 0.014 0.706 0.232 0.866 0.568 0.165 0.349 0.115 0.76-0.129 1.059-1.024 1.254-1.571 2.77-1.583 4.388 0.026 3.829 3.175 6.955 7.018 6.955 3.83 0 6.978-3.114 7.018-6.943-0.006-1.614-0.553-3.14-1.583-4.399-0.244-0.299-0.293-0.71-0.129-1.059 0.16-0.337 0.496-0.555 0.868-0.568 0.037-0.004 0.074-0.006 0.112-0.006h11.573"/>		<path d="m74 37.47h-11.736c-0.037 0-0.076-0.002-0.113-0.006-0.371-0.014-0.705-0.231-0.865-0.569-0.164-0.348-0.115-0.76 0.129-1.058 1.023-1.252 1.57-2.77 1.582-4.388-0.025-3.829-3.174-6.956-7.016-6.956-3.832 0-6.98 3.114-7.02 6.943 0.006 1.614 0.553 3.142 1.582 4.4 0.244 0.298 0.295 0.71 0.129 1.058-0.158 0.338-0.494 0.556-0.867 0.569-0.035 0.004-0.074 0.006-0.111 0.006h-11.573"/>	</g>	<path stroke-linejoin="round" stroke="#231F20" stroke-linecap="round" d="m73.855 54.029c0 10.846-8.793 19.638-19.638 19.638h-32.893c-10.845 0-19.637-8.792-19.637-19.638v-32.893c0.001-10.844 8.792-19.636 19.637-19.636h32.894c10.845 0 19.638 8.792 19.638 19.636v32.893z" fill="none"/>	</svg><svg xmlns:xlink="http://www.w3.org/1999/xlink" id="datascience" xml:space="preserve" height="75" viewBox="0 0 75 75" width="75" version="1.1" y="75" x="0px" enable-background="new 0 0 75 75">	<g stroke-linejoin="round" stroke="#231F20" stroke-linecap="round" fill="none">		<circle cx="46.732" cy="47.206" r="7.895"/>		<circle cx="28.313" cy="28.787" r="7.894"/>		<circle cx="9.894" cy="52.468" r="7.894"/>		<circle cx="65.152" cy="18.261" r="7.895"/>		<path d="m9.963 39.313v-27.726c0-2.387 1.934-4.321 4.32-4.321h35.663"/>		<path d="m62.036 38.322v25.648c0 2.387-1.933 4.318-4.319 4.318h-43.433c-2.386 0-4.32-1.932-4.32-4.318"/>			<line y2="36.68" x2="23.181" y1="45.909" x1="14.287"/>			<line y2="41.296" x2="41.502" y1="34.734" x1="33.494"/>			<line y2="26.155" x2="62.036" y1="39.313" x1="51.711"/>	</g>	</svg><svg xmlns:xlink="http://www.w3.org/1999/xlink" id="devops" xml:space="preserve" height="75" viewBox="0 0 75 75" width="75" version="1.1" y="150" x="0px" enable-background="new 0 0 75 75">	<path stroke="#000" stroke-linecap="round" stroke-miterlimit="10" d="m37.417 1h-3.522c-1.948 0-3.526 1.579-3.526 3.527v4.503c0 1.518-0.972 2.865-2.412 3.345l-2.569 0.856c-1.267 0.423-2.664 0.093-3.608-0.851l-3.014-3.014c-1.377-1.378-3.61-1.378-4.988 0l-4.41 4.411c-1.378 1.377-1.378 3.609 0 4.987l3.013 3.014c0.944 0.944 1.274 2.341 0.852 3.608l-0.856 2.569c-0.479 1.44-1.828 2.412-3.346 2.412h-4.505c-1.947 0.001-3.526 1.58-3.526 3.528v7.042c0 1.948 1.579 3.527 3.526 3.527h4.504c1.518 0 2.867 0.972 3.346 2.411l0.856 2.57c0.423 1.268 0.093 2.663-0.852 3.608l-3.013 3.013c-1.378 1.379-1.378 3.61 0 4.988l4.41 4.41c1.378 1.378 3.61 1.378 4.988 0l3.014-3.013c0.944-0.946 2.341-1.276 3.608-0.852l2.569 0.855c1.44 0.479 2.412 1.828 2.412 3.346v4.504c0 1.947 1.579 3.526 3.526 3.526h7.043c1.948 0 3.527-1.579 3.527-3.526v-4.504c0-1.518 0.972-2.866 2.411-3.346l2.57-0.855c1.267-0.425 2.663-0.095 3.608 0.852l3.013 3.013c1.378 1.378 3.61 1.378 4.988 0l4.41-4.41c1.377-1.378 1.377-3.609 0-4.988l-3.013-3.013c-0.946-0.945-1.276-2.341-0.853-3.608l0.856-2.57c0.479-1.439 1.828-2.411 3.346-2.411h4.504c1.947 0 3.526-1.579 3.526-3.527v-7.042c0-1.948-1.579-3.527-3.526-3.527h-4.504c-1.518 0-2.866-0.971-3.346-2.412l-0.856-2.569c-0.424-1.268-0.094-2.665 0.853-3.608l3.013-3.014c1.377-1.377 1.377-3.609 0-4.987l-4.41-4.411c-1.378-1.378-3.61-1.378-4.988 0l-3.013 3.014c-0.945 0.944-2.342 1.274-3.608 0.851l-2.57-0.856c-1.439-0.48-2.411-1.827-2.411-3.345v-4.504c0.001-1.948-1.578-3.527-3.526-3.527h-3.521z" fill="none"/>	<path stroke="#000" stroke-linecap="round" stroke-miterlimit="10" d="m44.285 39.029c1.141-5.142-3.341-9.622-8.482-8.482-2.59 0.576-4.681 2.666-5.256 5.257-1.14 5.141 3.34 9.622 8.481 8.482 2.592-0.575 4.683-2.665 5.257-5.257z" fill="none"/>	</svg><svg xmlns:xlink="http://www.w3.org/1999/xlink" id="mobility" xml:space="preserve" height="75" viewBox="0 0 75 75" width="75" version="1.1" y="225" x="0px" enable-background="new 0 0 75 75"><g stroke="#000" stroke-linecap="round" stroke-miterlimit="10" fill="none">	<path d="m54.23 73.834h-32.87c-1.304 0-2.361-1.057-2.361-2.361v-68.113c0.001-1.302 1.058-2.36 2.361-2.36h32.87c1.305 0 2.361 1.058 2.361 2.36v68.113c0.001 1.304-1.056 2.361-2.361 2.361z"/>	<line y2="5.699" x2="42.495" y1="5.699" x1="33.097"/>	<line y2="59.737" x2="56.592" y1="59.737" x1="19"/>	<line y2="10.398" x2="56.592" y1="10.398" x1="19"/>	<circle stroke-linejoin="bevel" cx="37.796" cy="66.785" r="2.35"/>	</g></svg><svg xmlns:xlink="http://www.w3.org/1999/xlink" id="uiux" xml:space="preserve" height="75" viewBox="0 0 75 75" width="75" version="1.1" y="300" x="0px" enable-background="new 0 0 75 75">	<g stroke-linejoin="round" stroke="#231F20" stroke-linecap="round" stroke-miterlimit="10" fill="none">		<path d="m69.41 66.404h-64.079c-2.184 0-3.983-1.528-3.983-3.713v-49.735c0-2.185 1.77-3.956 3.957-3.956h64.154c2.184 0 3.956 1.771 3.956 3.956v49.735c0 2.185-1.821 3.713-4.005 3.713z"/>			<line y2="26.207" x2="72.961" y1="26.207" x1="1.348"/>			<circle cx="8.576" cy="17.611" r="2.199"/>			<circle cx="17.131" cy="17.611" r="2.199"/>			<circle cx="25.687" cy="17.611" r="2.199"/>	</g>	</svg></svg>
