<?xml version="1.0" encoding="utf-8"?>
<!-- Generator: Adobe Illustrator 16.0.0, SVG Export Plug-In . SVG Version: 6.00 Build 0)  -->
<!DOCTYPE svg PUBLIC "-//W3C//DTD SVG 1.1//EN" "http://www.w3.org/Graphics/SVG/1.1/DTD/svg11.dtd">
<svg version="1.1" id="Layer_1" xmlns="http://www.w3.org/2000/svg" xmlns:xlink="http://www.w3.org/1999/xlink" x="0px" y="0px"
	 width="100px" height="100px" viewBox="0 0 100 100" enable-background="new 0 0 100 100" xml:space="preserve">
<path fill="none" stroke="#000000" stroke-miterlimit="10" d="M11.483,95.883"/>
<path fill="none" stroke="#000000" stroke-miterlimit="10" d="M11.483,95.883"/>
<g>
	<path fill="none" stroke="#000000" stroke-miterlimit="10" d="M25.294,75.748c0.641-3.357,6.43-12.609,6.43-12.609
		S58.042,21.648,76.187,5.301c5.146-4.636,3.466,2.327,3.466,2.327c-7.984,23.081-35.658,63.586-35.658,63.586
		s-6.238,8.977-9.072,10.888L25.294,75.748z"/>
	<line fill="none" stroke="#000000" stroke-miterlimit="10" x1="37.968" y1="78.44" x2="27.434" y2="71.489"/>
	<line fill="none" stroke="#000000" stroke-miterlimit="10" x1="48.841" y1="64.825" x2="35.674" y2="56.137"/>
	<path fill="none" stroke="#000000" stroke-miterlimit="10" d="M27.893,76.832c0,0-7.665,6.762-10.597,8.234
		c-0.861,0.433,4.569,5.783,0.861,11.303"/>
	<path fill="none" stroke="#000000" stroke-miterlimit="10" d="M32.476,79.854c0,0-3.202,9.707-3.402,12.984
		c-0.059,0.959-6.858-1.78-10.731,3.652"/>
	<line fill="none" stroke="#000000" stroke-miterlimit="10" x1="18.435" y1="96.105" x2="24.299" y2="86.98"/>
</g>
</svg>
