<?xml version="1.0" encoding="utf-8"?>
<!-- Generator: Adobe Illustrator 16.0.0, SVG Export Plug-In . SVG Version: 6.00 Build 0)  -->
<!DOCTYPE svg PUBLIC "-//W3C//DTD SVG 1.1//EN" "http://www.w3.org/Graphics/SVG/1.1/DTD/svg11.dtd">
<svg version="1.1" id="Layer_1" xmlns="http://www.w3.org/2000/svg" xmlns:xlink="http://www.w3.org/1999/xlink" x="0px" y="0px"
	 width="200px" height="200px" viewBox="0 0 200 200" enable-background="new 0 0 200 200" xml:space="preserve">
<g>
	<path fill="#F4BA0B" d="M127.789,28.202c15.28,15.376,15.28,40.306,0,55.68c-15.278,15.38-40.051,15.38-55.33,0
		c-15.279-15.374-15.279-40.304,0-55.68C87.738,12.822,112.511,12.822,127.789,28.202z"/>
	<path fill="#0AB4C5" d="M76.5,86l0.5-3.666V80l0.403-2.782l0.764-2.051l2.307-2.984L83,70.333l3.833-1.833L89.5,66l1,0.333
		c0,0,8.5,11.5,20.167,0.5l1.333,0.5l2.834,1.167l1.333,0.833l3,2l0.833,0.5l2.5,1.667l0.916,2.833L124,78v3l0.334,3.667
		l0.307,1.132l-1.474,1.701l-1.833,1.167l-2.667,1.667l-3.167,1.5l-2.5,1.25L106.334,95H103l-2.984,0.173l-3.849-0.006l-3.333-0.333
		l-3.833-1L82.333,91L79.5,89.5l-2.167-1.833L76.5,86z"/>
	<path fill="none" stroke="#000000" stroke-miterlimit="10" d="M128.295,26.897c-7.553-7.555-17.598-11.712-28.281-11.712
		c-22.048,0-39.99,17.942-39.994,39.991c0.002,10.683,4.16,20.727,11.715,28.282c7.555,7.555,17.598,11.711,28.281,11.714
		c22.051,0,39.994-17.943,39.992-39.994C140.008,44.496,135.85,34.452,128.295,26.897z"/>
	<path fill="none" stroke="#000000" stroke-miterlimit="10" d="M136.848,18.345C127.01,8.506,113.928,3.09,100.016,3.09
		c-28.719,0-52.086,23.369-52.09,52.087c0.002,13.912,5.418,26.992,15.256,36.835c9.841,9.837,22.92,15.251,36.834,15.257
		c28.721,0,52.088-23.37,52.088-52.09C152.104,41.264,146.688,28.184,136.848,18.345z"/>
	<polyline fill="none" stroke="#000000" stroke-linecap="round" stroke-miterlimit="10" points="88.5,106 88.5,120.5 111.5,120.5 
		111.5,106 	"/>
	<polyline fill="none" stroke="#000000" stroke-linecap="round" stroke-miterlimit="10" points="82.5,198 82.5,120.5 117.5,120.5 
		117.5,198 	"/>
	<line fill="none" stroke="#000000" stroke-linecap="round" stroke-miterlimit="10" x1="83" y1="187.5" x2="117" y2="187.5"/>
	<line fill="none" stroke="#000000" stroke-linecap="round" stroke-miterlimit="10" x1="83" y1="134.5" x2="117" y2="134.5"/>
	<path fill="none" stroke="#000000" stroke-linecap="round" stroke-linejoin="round" stroke-miterlimit="10" d="M69.502,54.719
		c0-17.273,14.006-31.281,31.281-31.281"/>
	<path d="M57,156"/>
	<path fill="none" stroke="#000000" stroke-width="2" stroke-linecap="round" stroke-miterlimit="10" d="M57,156"/>
	<path fill="none" stroke="#000000" stroke-linecap="round" stroke-miterlimit="10" d="M100.902,44.109"/>
	<path fill="none" stroke="#000000" stroke-linecap="round" stroke-miterlimit="10" d="M100.902,44.109"/>
	<path fill="none" stroke="#000000" stroke-linecap="round" stroke-linejoin="round" stroke-miterlimit="10" d="M116.061,68.311"/>
	<path fill="none" stroke="#000000" stroke-linecap="round" stroke-linejoin="round" stroke-miterlimit="10" d="M82.967,63.055"/>
	<polyline fill="none" points="93,64.833 95,69.333 95.833,71.333 	"/>
	<polygon fill="#FFFFFF" points="91.227,50.315 90.624,47.5 91.312,45.084 92.406,42.875 93.62,41.521 95.31,40.844 97.655,40.089 
		99.833,40 102,40 103.834,40.25 105.667,41.292 107.167,42.063 108.667,43.532 109,44.849 109,47.167 109,49 109.583,50.833 
		110,52.833 110,54 112,54.667 111,57 111.334,58.333 111.667,59 110,59 109.114,59.181 109.334,60.667 108.5,63 107.167,63.833 
		106.334,65.667 104.834,65.833 101.834,67.667 100.396,67.693 98,67.167 95.667,66.5 94,65.167 92.167,62.167 91.678,59.181 
		91.167,56.333 90.833,53.167 	"/>
	<polygon fill="#FFFFFF" points="93.333,64.25 94.667,65.5 96.083,66.667 97.083,66.833 98.5,67.417 99.583,67.5 101.334,67.667 
		102.75,67.5 104,66.833 105.334,66.167 106.334,65.667 107.084,64.917 107.667,64.417 108.834,64.583 110.167,65.667 
		107.584,68.167 105.75,69.167 104.167,70.167 101.75,71 99.417,70.833 97,70.333 94.167,68.583 92.917,67.583 92.083,66.75 
		91.25,65.583 	"/>
	<g>
		<path fill="none" stroke="#231F20" stroke-linecap="round" stroke-miterlimit="10" d="M109.813,54.761
			c0-0.057-0.003-4.767-0.003-4.823c-0.084-5.503-0.976-9.67-9.415-9.938c-8.729-0.277-9.355,4.458-9.418,9.981
			c0,0.042,0,4.736,0,4.779"/>
		<path fill="none" stroke="#231F20" stroke-linecap="round" stroke-miterlimit="10" d="M91.678,56.593v2.588
			c0,4.701,3.902,8.512,8.718,8.512c4.813,0,8.719-3.811,8.719-8.512v-2.588"/>
		<path fill="none" stroke="#231F20" stroke-linecap="round" stroke-miterlimit="10" d="M91.491,51.878c0,0,0.118-1.378,1.053-1.378
			s1.169,0,1.169,0l8.178-0.903c0,0,0.701-1.337,0.701-2.098c0-0.76,0.935,1.485,0.935,1.485s2.57,0.236,3.271,0.236
			c0.702,0,2.526,0.519,2.665,0.797"/>
		<polyline fill="none" stroke="#231F20" stroke-linecap="round" stroke-miterlimit="10" points="110,54.5 111.5,54.5 111.5,58.5 
			110,58.5 		"/>
		<polyline fill="none" stroke="#231F20" stroke-linecap="round" stroke-miterlimit="10" points="91,58.5 89.5,58.5 89.5,54.5 
			91,54.5 		"/>
		<path fill="none" stroke="#231F20" stroke-linecap="round" stroke-miterlimit="10" d="M107.932,63.966
			c0,0,10.117,6.096,12.826,8.216c2.71,2.121,3.07,5.036,3.07,5.036l0.813,8.58l0.091,0.963"/>
		<path fill="none" stroke="#231F20" stroke-linecap="round" stroke-miterlimit="10" d="M93.3,63.966c0,0-10.116,6.096-12.826,8.216
			c-2.71,2.121-3.07,5.035-3.07,5.035L76.5,86.762"/>
		<path fill="none" stroke="#231F20" stroke-linecap="round" stroke-miterlimit="10" d="M110.334,65.5
			C99.168,77.834,91,65.5,91,65.5"/>
		<path fill="none" stroke="#231F20" stroke-linecap="round" stroke-miterlimit="10" d="M80.586,90.301
			c0,0,4.893-7.467-1.564-16.423"/>
		<path fill="none" stroke="#231F20" stroke-linecap="round" stroke-miterlimit="10" d="M121.361,72.878
			c-6.457,8.956-1.564,16.423-1.564,16.423"/>
	</g>
	<path fill="none" stroke="#231F20" stroke-linecap="round" stroke-miterlimit="10" d="M123.167,87.5"/>
	<polyline fill="#FFFFFF" points="92.667,55.167 90,55 90,58 92,58 	"/>
</g>
</svg>
