<?xml version="1.0" encoding="utf-8"?>
<!-- Generator: Adobe Illustrator 16.0.0, SVG Export Plug-In . SVG Version: 6.00 Build 0)  -->
<!DOCTYPE svg PUBLIC "-//W3C//DTD SVG 1.1//EN" "http://www.w3.org/Graphics/SVG/1.1/DTD/svg11.dtd">
<svg version="1.1" id="Layer_1" xmlns="http://www.w3.org/2000/svg" xmlns:xlink="http://www.w3.org/1999/xlink" x="0px" y="0px"
	 width="200px" height="200px" viewBox="0 0 200 200" enable-background="new 0 0 200 200" xml:space="preserve">
<path fill="#F4BA0B" d="M59.489,145.349c0,0,0.659-12.704,2.816-18.217s5.842-10.187,7.521-10.427
	c1.678-0.239,1.723-2.253,11.31-4.171C90.724,110.617,94.843,111,96.521,111c1.678,0,1.438,0,1.438,0L99,113.229v4.555l0.199,4.794
	l-0.579,13.423l0.38,6.711v4.794l-0.76,2.396c0,0-1.459-3.835-9.848-6.231c-8.389-2.397-8.16-2.637-12.474-1.918"/>
<path fill="#0AB4C5" d="M139.426,145.349c0,0-0.659-12.704-2.816-18.217s-5.842-10.187-7.52-10.427
	c-1.679-0.239-1.724-2.253-11.311-4.171c-9.588-1.917-13.708-1.534-15.386-1.534s-1.438,0-1.438,0L100,113.229v4.555l-0.241,4.794
	l0.6,13.423L100,142.712v4.794l0.717,2.396c0,0,1.437-3.835,9.828-6.231c8.389-2.397,8.148-2.637,12.463-1.918"/>
<polygon fill="#0AB4C5" points="163,102.443 163,111.072 163,118.264 163,123.536 193.039,114.429 165.196,103.162 "/>
<polygon fill="#0AB4C5" points="7.355,114.068 95.682,77.695 98.945,75.426 101.765,77.74 149.479,97.163 162.908,102.439 
	162.193,123.774 138.705,129.768 135.351,121.619 134.393,119.462 131.037,116.346 129.599,114.788 126.482,112.99 121.929,112.031 
	114.738,110.354 105.39,110.114 98.199,109.874 86.214,110.354 81.9,111.072 75.866,112.99 71.114,114.188 67.998,116.825 
	64.642,120.66 62.005,124.975 60.807,129.529 59.848,132.645 59.129,133.844 "/>
<polygon fill="none" stroke="#000000" stroke-miterlimit="10" points="4.253,110.211 100.057,71.124 196.5,109.688 196.5,114.907 
	99.138,75.456 4.676,114.7 "/>
<line fill="none" stroke="#000000" stroke-miterlimit="10" x1="4" y1="114.7" x2="60.088" y2="134.083"/>
<line fill="none" stroke="#000000" stroke-miterlimit="10" x1="195.274" y1="114.907" x2="138.228" y2="131.207"/>
<path fill="none" stroke="#000000" stroke-miterlimit="10" d="M140.291,146.867c-1.463-31.959-14.642-33.877-22.695-35.155
	c-6.477-1.027-23.178-3.446-41.73,1.278C58.295,117.464,58.8,147.187,58.8,147.187"/>
<path fill="none" stroke="#000000" stroke-miterlimit="10" d="M58.97,146.388c0,0,27.484-10.866,40.268,5.113"/>
<path fill="none" stroke="#000000" stroke-miterlimit="10" d="M139.507,146.388c0,0-27.484-10.866-40.269,5.113"/>
<line fill="none" stroke="#000000" stroke-miterlimit="10" x1="99.5" y1="110" x2="99.5" y2="151"/>
<line fill="none" stroke="#000000" stroke-width="3" stroke-miterlimit="10" x1="163.5" y1="97" x2="163.5" y2="133"/>
<circle fill="none" stroke="#000000" stroke-linecap="round" stroke-miterlimit="10" cx="163.156" cy="135.72" r="3.116"/>
<path fill="none" stroke="#000000" stroke-linecap="round" stroke-miterlimit="10" d="M165.322,138.558c0,0,0,8.289,3.391,8.665
	c3.391,0.378,1.884,1.508,1.884,1.508l1.507,0.377c0,0-6.405,4.521-8.289-0.377c-1.884-4.897-0.188-10.009-0.188-10.009"/>
<line fill="none" stroke="#000000" stroke-miterlimit="10" x1="99.5" y1="60" x2="99.5" y2="43"/>
<line fill="none" stroke="#000000" stroke-miterlimit="10" x1="113.9" y1="62.294" x2="120.293" y2="48.887"/>
<line fill="none" stroke="#000000" stroke-miterlimit="10" x1="126.279" y1="69.598" x2="134.725" y2="60.048"/>
<line fill="none" stroke="#000000" stroke-miterlimit="10" x1="84.868" y1="62.294" x2="78.476" y2="48.887"/>
<line fill="none" stroke="#000000" stroke-miterlimit="10" x1="72.489" y1="69.598" x2="64.044" y2="60.048"/>
</svg>
