<?xml version="1.0" encoding="utf-8"?>
<!-- Generator: Adobe Illustrator 16.0.0, SVG Export Plug-In . SVG Version: 6.00 Build 0)  -->
<!DOCTYPE svg PUBLIC "-//W3C//DTD SVG 1.1//EN" "http://www.w3.org/Graphics/SVG/1.1/DTD/svg11.dtd">
<svg version="1.1" id="Layer_1" xmlns="http://www.w3.org/2000/svg" xmlns:xlink="http://www.w3.org/1999/xlink" x="0px" y="0px"
	 width="100px" height="100px" viewBox="0 0 100 100" enable-background="new 0 0 100 100" xml:space="preserve">
<path fill="none" stroke="#000000" stroke-linecap="round" stroke-miterlimit="10" d="M76.708,81.915
	c14.726,3.8,14.726,9.96,0,13.761c-14.726,3.8-38.599,3.8-53.323,0c-14.726-3.801-14.726-9.961,0-13.761
	C38.109,78.114,61.982,78.114,76.708,81.915z"/>
<path fill="none" stroke="#000000" stroke-linecap="round" stroke-miterlimit="10" d="M59.901,2.149
	c5.444,0.832,5.444,2.179,0,3.011c-5.442,0.83-14.269,0.83-19.71,0c-5.443-0.832-5.443-2.179,0-3.011
	C45.633,1.317,54.459,1.317,59.901,2.149z"/>
<polyline fill="none" stroke="#000000" stroke-linecap="round" stroke-miterlimit="10" points="12.341,88.156 37.883,20.955 
	38.188,5.448 "/>
<path fill="#F4BA0B" d="M45.25,6.631C45.25,6.631,58,8.02,61,6v14.38c0,0,21.75,59.588,22.5,60.598S85,83.25,85,83.25
	s-14.5-5.302-39.75-5.554l-3-0.253c0,0,2.5-6.563,2.5-9.593S44.5,59.52,44.5,56.237c0-3.281-0.5-12.622,0-15.904
	c0.5-3.282,0.75-10.351,0.75-12.875c0-2.525-0.25-9.088,0.5-11.36S45.5,7.767,45.25,6.631z"/>
<polyline fill="none" stroke="#000000" stroke-linecap="round" stroke-miterlimit="10" points="88.056,88.156 62.514,20.955 
	62.21,5.448 "/>
<g>
	
		<line fill="none" stroke="#231F20" stroke-linecap="round" stroke-linejoin="round" stroke-miterlimit="10" x1="48.291" y1="70.168" x2="55.254" y2="70.168"/>
	
		<line fill="none" stroke="#231F20" stroke-linecap="round" stroke-linejoin="round" stroke-miterlimit="10" x1="48.291" y1="74.777" x2="62.886" y2="74.777"/>
	
		<line fill="none" stroke="#231F20" stroke-linecap="round" stroke-linejoin="round" stroke-miterlimit="10" x1="48.291" y1="60.953" x2="55.254" y2="60.953"/>
	
		<line fill="none" stroke="#231F20" stroke-linecap="round" stroke-linejoin="round" stroke-miterlimit="10" x1="48.291" y1="65.561" x2="55.589" y2="65.561"/>
	
		<line fill="none" stroke="#231F20" stroke-linecap="round" stroke-linejoin="round" stroke-miterlimit="10" x1="48.291" y1="51.736" x2="55.254" y2="51.736"/>
	
		<line fill="none" stroke="#231F20" stroke-linecap="round" stroke-linejoin="round" stroke-miterlimit="10" x1="48.291" y1="56.344" x2="62.886" y2="56.344"/>
	
		<line fill="none" stroke="#231F20" stroke-linecap="round" stroke-linejoin="round" stroke-miterlimit="10" x1="48.291" y1="74.779" x2="48.291" y2="37.797"/>
	
		<line fill="none" stroke="#231F20" stroke-linecap="round" stroke-linejoin="round" stroke-miterlimit="10" x1="48.291" y1="42.521" x2="55.254" y2="42.521"/>
	
		<line fill="none" stroke="#231F20" stroke-linecap="round" stroke-linejoin="round" stroke-miterlimit="10" x1="48.291" y1="37.913" x2="62.514" y2="37.913"/>
	
		<line fill="none" stroke="#231F20" stroke-linecap="round" stroke-linejoin="round" stroke-miterlimit="10" x1="48.291" y1="47.129" x2="55.589" y2="47.129"/>
</g>
<path fill="#0AB4C5" d="M17,85.75c0,0,35.5-13.75,64.75,1c0,0,9.5,0.5,0,5S62.5,96.5,62.5,96.5s-29.75,0.75-31.75,0.25
	s-14-3.75-14.75-5s-1.5-3-1.5-3L17,85.75z"/>
</svg>
