<?xml version="1.0" encoding="utf-8"?>
<!-- Generator: Adobe Illustrator 16.0.0, SVG Export Plug-In . SVG Version: 6.00 Build 0)  -->
<!DOCTYPE svg PUBLIC "-//W3C//DTD SVG 1.1//EN" "http://www.w3.org/Graphics/SVG/1.1/DTD/svg11.dtd">
<svg version="1.1" id="Layer_1" xmlns="http://www.w3.org/2000/svg" xmlns:xlink="http://www.w3.org/1999/xlink" x="0px" y="0px"
	 width="100px" height="100px" viewBox="0 0 100 100" enable-background="new 0 0 100 100" xml:space="preserve">
<path fill="#F4BA0B" d="M82.733,16.75c0,0-30.563,1.25-31.813,10.25s-0.031,7-0.031,7l-0.266,7.75l-0.187,11.5L51,65.75V74
	l-0.695,1.5c0,0,25.526-2.75,30.526-1.5s2.014,0.25,2.014,0.25L82.352,22L82.733,16.75z"/>
<path fill="#0AB4C5" d="M17.302,16.75c0,0,30.563,1.25,31.813,10.25s0.031,7,0.031,7l0.266,7.75l0.169,11.5L49,65.75V74l0.713,1.5
	c0,0-25.518-2.75-30.518-1.5s-2.009,0.25-2.009,0.25L17.682,22L17.302,16.75z"/>
<g>
	<g>
		<path fill="none" stroke="#000000" stroke-linecap="round" stroke-miterlimit="10" d="M83.5,15.5v59.875c0,0-30-2.792-33,2.795
			V28.672C50.5,28.672,48.5,16.099,83.5,15.5z"/>
		<path fill="none" stroke="#000000" stroke-linecap="round" stroke-miterlimit="10" d="M84.883,22.386c0,0,3.617-1.298,5.617-1.497
			v59.276c0,0-39.678-3.592-41.467-1.995"/>
		<path fill="none" stroke="#000000" stroke-linecap="round" stroke-miterlimit="10" d="M91.558,27.657c0,0,3.942-2.395,5.942-2.395
			v61.072l-47.84-7.483"/>
	</g>
	<g>
		<path fill="none" stroke="#000000" stroke-linecap="round" stroke-miterlimit="10" d="M16.5,15.5v59.875c0,0,31-2.792,34,2.795
			V28.672C50.5,28.672,52.5,16.099,16.5,15.5z"/>
		<path fill="none" stroke="#000000" stroke-linecap="round" stroke-miterlimit="10" d="M15.39,22.386c0,0-3.89-1.298-5.89-1.497
			v59.276c0,0,39.813-3.592,41.603-1.995"/>
		<path fill="none" stroke="#000000" stroke-linecap="round" stroke-miterlimit="10" d="M8.714,27.657c0,0-4.183-2.395-6.214-2.395
			v61.072l47.977-7.483"/>
	</g>
</g>
</svg>
