<?xml version="1.0" encoding="utf-8"?>
<!-- Generator: Adobe Illustrator 16.0.0, SVG Export Plug-In . SVG Version: 6.00 Build 0)  -->
<!DOCTYPE svg PUBLIC "-//W3C//DTD SVG 1.1//EN" "http://www.w3.org/Graphics/SVG/1.1/DTD/svg11.dtd">
<svg version="1.1" id="Layer_1" xmlns="http://www.w3.org/2000/svg" xmlns:xlink="http://www.w3.org/1999/xlink" x="0px" y="0px"
	 width="100px" height="100px" viewBox="0 0 100 100" enable-background="new 0 0 100 100" xml:space="preserve">
<path fill="#0AB4C5" d="M85.334,68.167l8.583-0.25c0,0,3.041,0.709,3.208-4.125S97,41.333,97,41.333V31l-0.167-3.333l-0.166-3.333
	c0,0,1.334-3.667-3.5-4.667S85.5,18.833,85.5,18.833L84,19.167c0,0,0.333-1.5,1.333,2.333S85.5,35,85.5,35l0.167,5l0.166,11.167
	L86.667,58L85.334,68.167z"/>
<path fill="#F4BA0B" d="M3.985,20.644c0,0,16.321,0.221,18.747,0c2.426-0.22,17.424-0.662,20.732-0.662S67.063,19.1,68.386,19.1
	s12.352,0.441,12.352,0.441s2.867,4.852,2.867,5.955s0.883,17.864,0.883,20.07c0,2.206,0,16.1-0.442,19.629
	c-0.44,3.529,1.323,7.059-1.323,8.602c-2.646,1.544-16.54,0.882-17.423,1.104c-0.883,0.22-3.97,0-3.97,8.16l-1.104,4.853
	l1.104,0.661l-5.515-4.411l-9.042-6.616c0,0-2.205-3.97-9.263-3.97c-7.058,0-14.335,0.881-14.335,0.881L6.852,73.577
	c0,0-3.529,0.881-3.97-4.633c-0.44-5.513,0-42.787,0-42.787S2.441,21.526,3.985,20.644z"/>
<path fill="none" stroke="#000000" stroke-linecap="round" stroke-miterlimit="10" d="M41.593,74.95H7.056
	C4.264,74.95,2,72.688,2,69.895V23.829c0-2.792,2.264-5.056,5.056-5.056h72.815c2.793,0,5.057,2.264,5.057,5.056v46.065
	c0,2.793-2.264,5.056-5.057,5.056H67.245c-2.792,0-5.056,2.263-5.056,5.056V91L44.883,76.167
	C43.967,75.382,42.799,74.95,41.593,74.95z"/>
<path fill="none" stroke="#000000" stroke-linecap="round" stroke-miterlimit="10" d="M85.773,68.999h8.463
	c5.077,0,3.88-7.836,3.88-7.836V18.134c0-3.48-3.239-6.3-7.237-6.3H24.92c-3.997,0-7.238,2.819-7.238,6.3"/>
<line fill="#FFFFFF" stroke="#000000" stroke-miterlimit="10" x1="11" y1="36.5" x2="66" y2="36.5"/>
<line fill="#FFFFFF" stroke="#000000" stroke-miterlimit="10" x1="20" y1="48.5" x2="76" y2="48.5"/>
<line fill="#FFFFFF" stroke="#000000" stroke-miterlimit="10" x1="11" y1="58.5" x2="66" y2="58.5"/>
</svg>
