<?xml version="1.0" encoding="utf-8"?>
<!-- Generator: Adobe Illustrator 16.0.0, SVG Export Plug-In . SVG Version: 6.00 Build 0)  -->
<!DOCTYPE svg PUBLIC "-//W3C//DTD SVG 1.1//EN" "http://www.w3.org/Graphics/SVG/1.1/DTD/svg11.dtd">
<svg version="1.1" id="Layer_1" xmlns="http://www.w3.org/2000/svg" xmlns:xlink="http://www.w3.org/1999/xlink" x="0px" y="0px"
	 width="100px" height="100px" viewBox="0 0 100 100" enable-background="new 0 0 100 100" xml:space="preserve">
<polygon fill="#0AB4C5" points="17,29 17,34 17,46 17,48 21,48.333 21.667,38.333 22,30.917 22.5,28 16,28 "/>
<polygon fill="#F4BA0B" points="77,21 83,21 91,20 94,20 96,21.333 96.5,27.667 89.667,27 85,27 80.334,26.333 77.334,25 "/>
<polygon fill="#F4BA0B" points="3.999,19.333 22.75,20.583 33.542,20.292 41.333,20 48,20 54,20 57,20.667 58.334,25.833 51.334,26 
	41,26 32,26.333 22.5,27.5 12,27 6.667,26.333 "/>
<g>
	<rect x="40.5" y="90.5" fill="none" stroke="#000000" stroke-miterlimit="10" width="56" height="7"/>
	<rect x="49.5" y="84.5" fill="none" stroke="#000000" stroke-miterlimit="10" width="38" height="6"/>
	<rect x="16.5" y="27.5" fill="none" stroke="#000000" stroke-miterlimit="10" width="6" height="22"/>
	<polygon fill="none" stroke="#000000" stroke-miterlimit="10" points="59.5,84.5 59.5,18.871 68.291,1.744 76.5,17.792 76.5,84.5 	
		"/>
	<rect x="4.5" y="19.5" fill="none" stroke="#000000" stroke-miterlimit="10" width="55" height="8"/>
	<polyline fill="none" stroke="#000000" stroke-miterlimit="10" points="59.655,83.056 76.104,55.822 59.634,32.897 74.952,13.747 	
		"/>
	<polyline fill="none" stroke="#000000" stroke-miterlimit="10" points="76.501,83.57 60.053,56.134 76.522,33.04 61.984,13.747 	
		"/>
	<polyline fill="none" stroke="#000000" stroke-miterlimit="10" points="5.489,26.928 16.437,19.666 27.539,27.069 38.056,19.703 
		47.362,26.979 57.754,19.494 	"/>
	<rect x="76.5" y="19.5" fill="none" stroke="#000000" stroke-miterlimit="10" width="20" height="8"/>
	<polyline fill="none" stroke="#000000" stroke-miterlimit="10" points="77.396,26.928 86.36,19.666 95.451,27.069 	"/>
	<path fill="none" stroke="#000000" stroke-linecap="round" stroke-miterlimit="10" d="M15.606,58.204
		c0,1.423,0.948,2.371,3.793,2.371c2.371,0,3.794-1.422,3.794-3.32c0-1.896-2.845-3.318-2.845-3.318s-1.897-0.948-1.897-3.794
		v-0.475"/>
</g>
<polygon fill="#0AB4C5" points="50.333,85.667 85.334,86 86,88.667 50,89.334 "/>
<polygon fill="#0AB4C5" points="94.829,91.719 42.005,92.073 41,94.906 95.334,95.615 "/>
</svg>
