<?xml version="1.0" encoding="utf-8"?>
<!-- Generator: Adobe Illustrator 16.0.0, SVG Export Plug-In . SVG Version: 6.00 Build 0)  -->
<!DOCTYPE svg PUBLIC "-//W3C//DTD SVG 1.1//EN" "http://www.w3.org/Graphics/SVG/1.1/DTD/svg11.dtd">
<svg version="1.1" id="Layer_1" xmlns="http://www.w3.org/2000/svg" xmlns:xlink="http://www.w3.org/1999/xlink" x="0px" y="0px"
	 width="100px" height="100px" viewBox="0 0 100 100" enable-background="new 0 0 100 100" xml:space="preserve">
<path fill="#0AB4C5" d="M55.125,36.375c0,0,2.688,1.313,5.438,1.313S65,38,67.5,38s4.5,0,4.5,0l1.25-0.5l2,4L81.5,56l3.5,2l5.25,1.5
	L92.5,60l0.25,2.25l0.75,2.25l2.875,1L97,67.25V71h-5c0,0-1.75-10-8.25-11.25S73,59,69.5,63.25s-3.25,8-3.25,8L56.5,71.5L56,38.25
	L55.125,36.375z"/>
<circle fill="#F4BA0B" stroke="#000000" stroke-linecap="round" stroke-miterlimit="10" cx="79.833" cy="72.072" r="8.499"/>
<circle fill="#F4BA0B" stroke="#000000" stroke-linecap="round" stroke-miterlimit="10" cx="25.504" cy="71.49" r="8.999"/>
<circle fill="#FFFFFF" stroke="#000000" stroke-linecap="round" stroke-miterlimit="10" cx="25.504" cy="71.49" r="2.333"/>
<circle fill="#FFFFFF" stroke="#000000" stroke-linecap="round" stroke-miterlimit="10" cx="79.833" cy="72.071" r="2.333"/>
<polygon fill="#FFFFFF" stroke="#000000" stroke-linecap="round" stroke-miterlimit="10" points="58,39.5 73,40.5 79.5,56 
	58.25,55.5 "/>
<line fill="none" stroke="#000000" stroke-linecap="round" stroke-miterlimit="10" x1="55" y1="72.5" x2="67" y2="72.5"/>
<path fill="none" stroke="#000000" stroke-linecap="round" stroke-miterlimit="10" d="M67.499,72c0-6.382,5.618-12,12-12
	c6.383,0,12,5.618,12,12H98.5V60.25L83,56.5l-8.75-19.75L55.5,36v36.5H38l0.314-1.75c-0.044-6.781-6.052-12.711-12.833-12.667
	c-6.781,0.045-12.711,6.053-12.666,12.834L1.5,71V20.5h54V72"/>
<polyline fill="none" stroke="#000000" stroke-linecap="round" stroke-miterlimit="10" points="93.5,59.25 94.5,64 98,65.25 "/>
<rect x="16.5" y="31.5" fill="none" stroke="#000000" stroke-linecap="round" stroke-miterlimit="10" width="31" height="7"/>
<rect x="9.5" y="31.5" fill="none" stroke="#000000" stroke-linecap="round" stroke-miterlimit="10" width="5" height="7"/>
</svg>
