<?xml version="1.0" encoding="utf-8"?>
<!-- Generator: Adobe Illustrator 16.0.0, SVG Export Plug-In . SVG Version: 6.00 Build 0)  -->
<!DOCTYPE svg PUBLIC "-//W3C//DTD SVG 1.1//EN" "http://www.w3.org/Graphics/SVG/1.1/DTD/svg11.dtd">
<svg version="1.1" id="Layer_1" xmlns="http://www.w3.org/2000/svg" xmlns:xlink="http://www.w3.org/1999/xlink" x="0px" y="0px"
	 width="100px" height="100px" viewBox="0 0 100 100" enable-background="new 0 0 100 100" xml:space="preserve">
<path fill="#0AB4C5" d="M58.852,71.229l3.405,3.792l-4.931,2.804l0.535,4.064l-3.222,1.236l-2.32-3.384l-5.541,1.212l-0.688,4.051
	l-3.443,0.229l-1.223-3.927l-5.647-0.468l-1.852,3.673l-3.359-0.794l-0.009-4.108l-5.266-2.111l-2.846,2.954l-2.975-1.75l1.2-3.924
	l-4.4-3.577l-3.599,1.989l-2.326-2.549l2.308-3.401l-3.165-4.707l-4.016,0.837L4,60.248l3.202-2.566l-1.625-5.434l-4.089-0.385
	L1,48.448l3.824-1.513l0.047-5.665L1.07,39.695l0.542-3.408l4.097-0.317l1.709-5.407L4.26,27.944l1.521-3.096l4.002,0.902
	l3.236-4.658l-2.249-3.437l2.368-2.51l3.565,2.047l4.458-3.503l-1.138-3.945l3.003-1.702l2.798,3l5.298-2.029l0.077-4.104
	l3.371-0.741l1.805,3.582l5.25-0.375l1.679-3.791l3.439,0.286l0.624,4.065L52.5,9l2.76-3.114l3.202,1.286l-0.587,3.703l4.875,3.233
	l3.257-2.498l2.681,2.172l-1.774,3.708l3.822,4.186l3.854-1.429l1.92,2.868l-2.634,3.011l2.274,5.135l4.094-0.229l0.99,3.305
	l-3.55,2.062l0.794,5.614L82.47,43l-0.029,3.452l-4.008,0.925l-0.885,5.599l3.52,2.119l-1.043,3.291l-4.093-0.297l-2.502,5.093
	l-3.23-3.025c0,0,10.426-21.781-5.824-38.031s-37.5-9-46,0.75s-12.5,26.5-2.75,39.75C25.633,76.227,40.078,80.957,58.852,71.229z"/>
<path fill="none" d="M65.271,53.106c0,0,6.979-18.481-9.271-29.231s-28.625,0.25-31.25,2.25S9.375,43,22.625,60.875
	c0,0,12,14.375,30.938,5.938l-4.083-4.083c0,0-15.104,6.396-23.479-5.729s-2-24.25,2-26.875s10.875-9.5,24.75-2.375
	c0,0,12.367,9.407,8.434,21.204L65.271,53.106z"/>
<image display="none" overflow="visible" width="350" height="350" transform="matrix(0.09 0 0 0.09 -23.6665 39.167)">
</image>
<g>
	<g>
		<g>
			<path fill="none" stroke="#000000" stroke-width="0.75" stroke-miterlimit="10" d="M72.905,50.84
				c0.09,2.496-2.706,9.316-2.706,9.316l3.23,3.025c0.97-1.643,1.806-3.343,2.502-5.093l4.093,0.297l0.521-1.646l0.522-1.646
				l-3.52-2.119c0.439-1.843,0.733-3.716,0.885-5.599l4.008-0.925l0.015-1.727L82.47,43l-3.992-0.989
				c-0.121-1.884-0.384-3.761-0.794-5.614l3.55-2.062l-0.495-1.653l-0.495-1.652l-4.094,0.229c-0.669-1.755-1.477-3.471-2.424-5.13
				l2.783-3.016l-0.96-1.435l-0.96-1.433l-3.854,1.429c-0.578-0.738-1.188-1.46-1.832-2.165c-0.642-0.704-1.306-1.377-1.99-2.021
				l1.774-3.708l-1.342-1.086l-1.339-1.086l-3.257,2.498c-1.568-1.093-3.202-2.054-4.889-2.878l0.601-4.058l-1.601-0.643
				L55.26,5.886l-2.376,3.348c-1.808-0.576-3.652-1.007-5.518-1.299L46.743,3.87l-1.719-0.143l-1.72-0.143l-1.286,3.908
				c-1.89-0.02-3.781,0.104-5.655,0.374L34.57,4.168l-1.686,0.37l-1.685,0.371l-0.077,4.104c-1.802,0.534-3.574,1.211-5.298,2.029
				l-2.798-3l-1.501,0.851l-1.501,0.851l1.138,3.945c-1.53,1.023-3.003,2.173-4.403,3.452c-0.018,0.017-0.036,0.035-0.055,0.052
				l-3.565-2.047L11.954,16.4l-1.184,1.255l2.249,3.437c-1.209,1.483-2.29,3.042-3.236,4.658l-4.002-0.902l-0.759,1.548L4.26,27.944
				l3.159,2.619c-0.71,1.762-1.279,3.571-1.709,5.407l-4.097,0.317l-0.271,1.705L1.07,39.695l3.802,1.575
				c-0.16,1.882-0.176,3.776-0.047,5.665L1,48.448l0.243,1.708l0.244,1.708l4.089,0.385c0.398,1.842,0.94,3.658,1.625,5.434
				L4,60.248l0.736,1.563l0.736,1.559l4.016-0.837c0.921,1.628,1.975,3.2,3.165,4.707l-2.308,3.401l1.164,1.275l1.162,1.273
				l3.599-1.989c1.393,1.322,2.863,2.515,4.4,3.577l-1.2,3.924l1.487,0.875l1.488,0.875l2.846-2.954
				c1.708,0.844,3.467,1.548,5.266,2.111l0.009,4.108l1.68,0.396l1.679,0.398l1.852-3.673c1.868,0.301,3.758,0.456,5.647,0.468
				l1.223,3.927l1.722-0.112l1.721-0.116l0.688-4.051c1.867-0.263,3.72-0.664,5.541-1.212l2.32,3.384l1.61-0.618l1.611-0.618
				l-0.535-4.064c1.696-0.797,3.345-1.732,4.931-2.804l-3.405-3.792c0,0-3.258,2.096-4.256,2.295"/>
		</g>
	</g>
</g>
<g>
	<path fill="none" stroke="#000000" stroke-width="0.75" stroke-linecap="round" stroke-miterlimit="10" d="M10.564,37.976
		c3.554-17.216,20.39-28.292,37.604-24.739C65.383,16.791,76.46,33.625,72.905,50.84"/>
	<path fill="none" stroke="#000000" stroke-width="0.75" stroke-linecap="round" stroke-miterlimit="10" d="M10.564,37.976
		c-3.553,17.215,7.523,34.048,24.738,37.603c6.749,1.393,13.44,0.535,19.294-2.056"/>
</g>
<g>
	<path fill="none" stroke="#000000" stroke-width="0.75" stroke-linecap="round" stroke-miterlimit="10" d="M17.272,38.69
		c3.161-13.509,16.672-21.901,30.178-18.744c13.511,3.16,21.905,16.67,18.745,30.179"/>
	<path fill="none" stroke="#000000" stroke-width="0.75" stroke-linecap="round" stroke-miterlimit="10" d="M17.272,38.69
		c-3.157,13.511,5.234,27.02,18.742,30.179c5.297,1.237,10.595,0.7,15.267-1.225"/>
</g>
<g>
	<path fill="none" stroke="#000000" stroke-width="0.75" stroke-linecap="round" stroke-miterlimit="10" d="M22.286,39.861
		c2.513-10.74,13.255-17.413,23.994-14.902c10.743,2.513,17.416,13.254,14.904,23.995l4.087,4.153c0,0,0.479-1.294,0.925-2.981"/>
	<path fill="none" stroke="#000000" stroke-width="0.75" stroke-linecap="round" stroke-miterlimit="10" d="M22.286,39.861
		c-2.511,10.742,4.161,21.483,14.901,23.995c4.21,0.984,8.423,0.557,12.2-1.035l4.175,3.991l-2.281,0.832"/>
</g>
<path fill-rule="evenodd" clip-rule="evenodd" fill="#F4BA0B" stroke="#000000" stroke-width="0.75" stroke-miterlimit="10" d="
	M47.711,57.678c-10.336,3.197-16.405-3.847-16.405-3.847c-3.153-3.782-4.181-7.999-3.405-12.485l5.749,5.045l3.061,2.692
	l3.855-1.308l3.859-1.307l0.798-3.996l0.797-3.993l-3.06-2.686l-5.75-5.048c4.348-1.349,9.275-0.471,12.948,2.753
	c0,0,8.586,6.157,4.888,16.056l23.562,21.597c9.541-4.543,16.423,3.472,16.423,3.472c3.531,3.378,4.835,8.212,3.869,12.659
	l-5.529-5.288l-2.942-2.814l-3.909,1.142l-3.91,1.142l-0.966,3.96l-0.966,3.953l2.946,2.814l5.524,5.29
	c-4.4,1.16-8.777-0.491-12.819-3.305c0,0-7.598-4.639-5.171-15.011L47.711,57.678z"/>
<path fill="#F4BA0B" stroke="#000000" stroke-width="0.75" stroke-linecap="round" stroke-miterlimit="10" d="M65.125,52.625"/>
</svg>
