<?xml version="1.0" encoding="utf-8"?>
<!-- Generator: Adobe Illustrator 16.0.0, SVG Export Plug-In . SVG Version: 6.00 Build 0)  -->
<!DOCTYPE svg PUBLIC "-//W3C//DTD SVG 1.1//EN" "http://www.w3.org/Graphics/SVG/1.1/DTD/svg11.dtd">
<svg version="1.1" id="Layer_1" xmlns="http://www.w3.org/2000/svg" xmlns:xlink="http://www.w3.org/1999/xlink" x="0px" y="0px"
	 width="100px" height="100px" viewBox="0 0 100 100" enable-background="new 0 0 100 100" xml:space="preserve">
<path fill="#0AB4C5" d="M5.134,73.617c0,0-2.366-51.617,44.843-51.617c47.455,0,44.332,54.729,44.84,51.481"/>
<path fill="#FFFFFF" d="M17.207,73.617c0,0-4.744-38.89,32.737-39.577C86.342,33.373,82.3,76.002,82.68,73.513"/>
<path fill="#F4BA0B" d="M22.619,73.617c0,0-3.957-32.938,27.31-33.52c30.362-0.565,26.99,35.54,27.308,33.431"/>
<image display="none" overflow="visible" width="350" height="350" transform="matrix(0.09 0 0 0.09 -23.6665 39.167)">
</image>
<line fill="none" stroke="#000000" stroke-width="0.5" stroke-linecap="round" stroke-miterlimit="10" x1="4.954" y1="65.878" x2="4.954" y2="73.617"/>
<line fill="none" stroke="#000000" stroke-width="0.5" stroke-linecap="round" stroke-miterlimit="10" x1="49.831" y1="29.688" x2="49.829" y2="40.006"/>
<line fill="none" stroke="#000000" stroke-width="0.5" stroke-linecap="round" stroke-miterlimit="10" x1="76.941" y1="67.692" x2="87.261" y2="67.693"/>
<line fill="none" stroke="#000000" stroke-width="0.5" stroke-linecap="round" stroke-miterlimit="10" x1="12.209" y1="67.692" x2="22.528" y2="67.693"/>
<path fill="none" stroke="#000000" stroke-width="0.5" stroke-linecap="round" stroke-miterlimit="10" d="M17.101,65.969
	c0.014-18.067,14.661-32.703,32.73-32.686c18.067,0.014,32.739,14.673,32.728,32.74"/>
<line fill="none" stroke="#000000" stroke-width="0.5" stroke-linecap="round" stroke-miterlimit="10" x1="82.664" y1="65.771" x2="82.664" y2="73.511"/>
<line fill="none" stroke="#000000" stroke-width="0.5" stroke-linecap="round" stroke-miterlimit="10" x1="17.101" y1="65.878" x2="17.101" y2="73.617"/>
<g>
	<path fill="none" stroke="#000000" stroke-width="0.5" stroke-linecap="round" stroke-miterlimit="10" d="M4.979,66.767
		c0.066-24.772,20.212-44.8,44.983-44.73c24.771,0.066,44.787,20.201,44.719,44.97"/>
	
		<line fill="none" stroke="#000000" stroke-width="0.5" stroke-linecap="round" stroke-miterlimit="10" x1="94.681" y1="65.556" x2="94.681" y2="73.295"/>
</g>
<g>
	<g>
		<path fill="none" stroke="#000000" stroke-width="0.5" stroke-linecap="round" stroke-miterlimit="10" d="M40.555,73.68
			c0.013-5.154,4.203-9.316,9.353-9.303c5.152,0.015,9.313,4.201,9.299,9.352"/>
	</g>
</g>
<line fill="none" stroke="#000000" stroke-width="0.5" stroke-linecap="round" stroke-miterlimit="10" x1="33.344" y1="32.707" x2="38.796" y2="41.815"/>
<line fill="none" stroke="#000000" stroke-width="0.5" stroke-linecap="round" stroke-miterlimit="10" x1="65.882" y1="32.707" x2="61.72" y2="41.815"/>
<line fill="none" stroke="#000000" stroke-width="0.5" stroke-linecap="round" stroke-miterlimit="10" x1="78.829" y1="42.722" x2="70.833" y2="49.398"/>
<line fill="none" stroke="#000000" stroke-width="0.5" stroke-linecap="round" stroke-miterlimit="10" x1="85.441" y1="55.375" x2="75.694" y2="57.679"/>
<line fill="none" stroke="#000000" stroke-width="0.5" stroke-linecap="round" stroke-miterlimit="10" x1="14.429" y1="55.375" x2="24.176" y2="57.679"/>
<line fill="none" stroke="#000000" stroke-width="0.5" stroke-linecap="round" stroke-miterlimit="10" x1="20.557" y1="42.561" x2="28.044" y2="49.212"/>
<line fill="none" stroke="#000000" stroke-width="0.5" stroke-linecap="round" stroke-miterlimit="10" x1="0.923" y1="73.706" x2="98.947" y2="73.706"/>
<polyline fill="none" stroke="#000000" stroke-width="0.5" stroke-linecap="round" stroke-linejoin="bevel" stroke-miterlimit="10" points="
	53.824,65.037 57.4,58.761 65.813,55.305 61.828,63.376 56.251,66.337 "/>
<path fill="none" stroke="#000000" stroke-width="0.5" stroke-linecap="round" stroke-miterlimit="10" d="M22.457,73.498
	c0,0-4.162-33.542,27.183-33.432c31.345,0.11,26.843,33.432,26.843,33.432"/>
</svg>
