<?xml version="1.0" encoding="utf-8"?>
<!-- Generator: Adobe Illustrator 16.0.0, SVG Export Plug-In . SVG Version: 6.00 Build 0)  -->
<!DOCTYPE svg PUBLIC "-//W3C//DTD SVG 1.1//EN" "http://www.w3.org/Graphics/SVG/1.1/DTD/svg11.dtd">
<svg version="1.1" id="Layer_1" xmlns="http://www.w3.org/2000/svg" xmlns:xlink="http://www.w3.org/1999/xlink" x="0px" y="0px"
	 width="100px" height="100px" viewBox="0 0 100 100" enable-background="new 0 0 100 100" xml:space="preserve">
<path fill="#F4BA0B" d="M27.249,26.196c0,0-0.249-3.196,2.986-3.196s44.792,0,44.792,0S79,23.255,79,26.324
	c0,3.069,0,56.631,0,56.631S78.76,87,76.271,87c-2.487,0-45.04,0-45.04,0S27,87.006,27,83.379S27.249,26.196,27.249,26.196z"/>
<image display="none" overflow="visible" width="350" height="350" transform="matrix(0.09 0 0 0.09 -23.6665 39.167)">
</image>
<path fill="none" stroke="#000000" stroke-linecap="round" stroke-miterlimit="10" d="M17.298,76.187V11.673
	c0-2.268,0.829-4.269,3.098-4.269h65.46c2.27,0,4.019,2.001,4.019,4.269v82.538c0,2.269-1.749,4.27-4.019,4.27h-65.46"/>
<line fill="none" stroke="#000000" stroke-linecap="round" stroke-miterlimit="10" x1="44.573" y1="47.25" x2="75.897" y2="47.25"/>
<line fill="none" stroke="#000000" stroke-linecap="round" stroke-miterlimit="10" x1="29.631" y1="47.486" x2="39.593" y2="47.486"/>
<line fill="none" stroke="#000000" stroke-linecap="round" stroke-miterlimit="10" x1="41.728" y1="64.326" x2="75.897" y2="64.326"/>
<line fill="none" stroke="#000000" stroke-linecap="round" stroke-miterlimit="10" x1="32.003" y1="81.403" x2="75.897" y2="81.403"/>
<line fill="none" stroke="#000000" stroke-linecap="round" stroke-miterlimit="10" x1="30.358" y1="30.173" x2="75.897" y2="30.173"/>
<g>
	<line fill="none" stroke="#000000" stroke-linecap="round" stroke-miterlimit="10" x1="36.051" y1="15.231" x2="36.051" y2="1"/>
	<line fill="none" stroke="#000000" stroke-linecap="round" stroke-miterlimit="10" x1="47.555" y1="15.231" x2="47.555" y2="1"/>
	<line fill="none" stroke="#000000" stroke-linecap="round" stroke-miterlimit="10" x1="59.057" y1="15.231" x2="59.057" y2="1"/>
	<line fill="none" stroke="#000000" stroke-linecap="round" stroke-miterlimit="10" x1="70.561" y1="15.231" x2="70.561" y2="1"/>
</g>
<path fill="#0AB4C5" stroke="#000000" stroke-miterlimit="10" d="M9.798,90.32L27.167,59l17.167-15.5l-2.741,20.589L22.843,97.641
	c0,0-1.177,1.692-3.177,0.859S11,93.667,11,93.667S8.929,91.641,9.798,90.32z"/>
<g>
	<path fill="none" stroke="#000000" stroke-linecap="round" stroke-miterlimit="10" d="M12.55,94.45l5.335,2.994
		c1.961,1.1,4.108,1.713,4.958,0.196l1.456-2.593c0.213-0.381-0.403-0.91-0.895-1.186L12.73,87.873
		c-0.49-0.275-1.263-0.527-1.477-0.146L9.798,90.32C8.947,91.837,10.589,93.35,12.55,94.45z"/>
	
		<line fill="none" stroke="#000000" stroke-linecap="round" stroke-miterlimit="10" x1="16.103" y1="89.228" x2="32.944" y2="59.214"/>
	
		<line fill="none" stroke="#000000" stroke-linecap="round" stroke-miterlimit="10" x1="20.431" y1="91.656" x2="37.138" y2="61.883"/>
	<polyline fill="none" stroke="#000000" stroke-linecap="round" stroke-miterlimit="10" points="24.76,94.086 41.592,64.089 
		43.704,50.613 	"/>
	<polyline fill="none" stroke="#000000" stroke-linecap="round" stroke-miterlimit="10" points="11.239,87.787 27.699,58.455 
		39.157,47.861 	"/>
	<path fill="none" stroke="#000000" stroke-linecap="round" stroke-miterlimit="10" d="M45.221,46.028"/>
	<polygon fill="none" stroke="#000000" stroke-linecap="round" stroke-miterlimit="10" points="43.756,49.811 39.547,47.45 
		44.824,42.833 	"/>
</g>
</svg>
