<?xml version="1.0" encoding="utf-8"?>
<!-- Generator: Adobe Illustrator 16.0.0, SVG Export Plug-In . SVG Version: 6.00 Build 0)  -->
<!DOCTYPE svg PUBLIC "-//W3C//DTD SVG 1.1//EN" "http://www.w3.org/Graphics/SVG/1.1/DTD/svg11.dtd">
<svg version="1.1" id="Layer_1" xmlns="http://www.w3.org/2000/svg" xmlns:xlink="http://www.w3.org/1999/xlink" x="0px" y="0px"
	 width="50px" height="50px" viewBox="0 0 100 100" enable-background="new 0 0 100 100" xml:space="preserve">
<path fill="none" stroke="#fefefe" stroke-width="3" stroke-miterlimit="10" d="M50.13,5.52c-25.569,0-46.371,17.168-46.371,38.264
	c0,11.422,6.215,22.252,16.779,29.491c-1.435,5.439-4.5,8.643-4.515,8.654c-1.587,1.585-2.167,3.985-1.517,6.267
	c0.051,0.18,0.117,0.355,0.193,0.531c0.979,2.272,3.232,3.736,5.736,3.736c10.159,0,18.544-5.502,24.185-10.688
	c1.899,0.181,3.743,0.272,5.511,0.272c25.567,0,46.37-17.162,46.37-38.265C96.497,22.688,75.696,5.52,50.13,5.52z"/>
<g>
	<path id="mail" fill="#fefefe" d="M68.605,28.658H32.734c-3.301,0-5.979,2.679-5.979,5.979v19.43c0,3.302,2.677,5.979,5.979,5.979
		h35.871c3.302,0,5.979-2.677,5.979-5.979v-19.43C74.584,31.336,71.907,28.658,68.605,28.658z M29.745,36.504l10.461,7.847
		l-10.461,7.847V36.504z M71.595,54.066c0,1.649-1.343,2.989-2.989,2.989H32.734c-1.648,0-2.989-1.34-2.989-2.989l11.706-8.781
		l6.528,4.897c0.797,0.595,1.743,0.897,2.69,0.897c0.946,0,1.892-0.3,2.688-0.897l6.53-4.897L71.595,54.066L71.595,54.066z
		 M71.595,52.198l-10.462-7.847l10.462-7.847V52.198z M52.462,48.987c-0.521,0.392-1.141,0.598-1.792,0.598
		c-0.652,0-1.271-0.208-1.793-0.598l-6.181-4.636l-1.245-0.935l-11.706-8.779v-0.001c0-1.649,1.341-2.989,2.989-2.989h35.871
		c1.646,0,2.989,1.34,2.989,2.989L52.462,48.987z"/>
</g>
</svg>
