<?xml version="1.0" encoding="utf-8"?>
<!-- Generator: Adobe Illustrator 16.0.0, SVG Export Plug-In . SVG Version: 6.00 Build 0)  -->
<!DOCTYPE svg PUBLIC "-//W3C//DTD SVG 1.1//EN" "http://www.w3.org/Graphics/SVG/1.1/DTD/svg11.dtd">
<svg version="1.1" id="Layer_1" xmlns="http://www.w3.org/2000/svg" xmlns:xlink="http://www.w3.org/1999/xlink" x="0px" y="0px"
	 width="100px" height="100px" viewBox="0 0 150 150" enable-background="new 0 0 150 150" xml:space="preserve">
<g>
	<g>
		<path fill="#fefefe" d="M74.995,3C35.234,3,3,35.239,3,75c0,39.766,32.234,72,71.995,72c39.766,0,71.995-32.234,71.995-72
			C146.995,35.239,114.766,3,74.995,3z M122.575,111.691l-6.521-5.369c-0.268-0.225-0.663-0.182-0.883,0.095
			c-0.22,0.258-0.182,0.655,0.085,0.874l6.564,5.398c-2.621,3.256-5.562,6.234-8.788,8.865l-5.303-6.784
			c-0.21-0.268-0.606-0.31-0.879-0.105c-0.272,0.216-0.319,0.611-0.105,0.884l5.294,6.778c-3.055,2.392-6.348,4.481-9.837,6.262
			l-3.977-7.518c-0.158-0.311-0.534-0.425-0.84-0.267c-0.306,0.152-0.42,0.54-0.258,0.845l3.962,7.503
			c-3.814,1.838-7.833,3.318-12.039,4.325l-1.608-9.002c-0.063-0.345-0.387-0.559-0.72-0.516c-0.345,0.076-0.568,0.391-0.507,0.729
			l1.613,9.022c-3.179,0.695-6.425,1.179-9.771,1.345v-10.735c0-1.685-1.364-3.06-3.05-3.06c-1.689,0-3.059,1.375-3.059,3.06v10.735
			c-2.788-0.138-5.508-0.52-8.186-1.03l1.351-7.565c0.063-0.339-0.167-0.669-0.506-0.716c-0.334-0.059-0.664,0.157-0.726,0.496
			l-1.346,7.542c-4.109-0.869-8.071-2.115-11.818-3.768l3.48-6.601c0.162-0.306,0.042-0.688-0.263-0.851
			c-0.301-0.146-0.683-0.032-0.845,0.273l-3.508,6.649c-3.513-1.633-6.816-3.619-9.919-5.867l4.917-6.29
			c0.21-0.277,0.162-0.67-0.105-0.884c-0.277-0.215-0.668-0.157-0.883,0.105l-4.921,6.305c-3.299-2.506-6.349-5.341-9.065-8.473
			l6.463-5.313c0.262-0.215,0.306-0.61,0.086-0.888c-0.22-0.258-0.616-0.301-0.883-0.09l-6.501,5.364
			c-2.635-3.169-4.912-6.644-6.859-10.311l7.613-3.999c0.306-0.158,0.425-0.54,0.263-0.841c-0.162-0.314-0.534-0.42-0.84-0.271
			l-7.599,3.99c-2.02-4.01-3.661-8.248-4.75-12.707l8.812-1.646c0.339-0.062,0.559-0.396,0.496-0.726
			c-0.066-0.343-0.387-0.559-0.73-0.497l-8.821,1.647c-0.72-3.256-1.227-6.592-1.398-10.028H25.21c1.689,0,3.055-1.364,3.055-3.06
			c0-1.689-1.37-3.06-3.055-3.06H14.947c0.172-3.298,0.649-6.516,1.327-9.65c0.038,0.004,0.057,0.052,0.101,0.052l9.823,1.847
			c0.039,0.009,0.082,0.009,0.115,0.009c0.295,0,0.553-0.215,0.615-0.51c0.063-0.339-0.162-0.669-0.497-0.731l-9.828-1.847
			c-0.034-0.01-0.072,0.019-0.105,0.019c1.083-4.597,2.73-8.973,4.802-13.097l8.659,4.539c0.091,0.057,0.191,0.086,0.287,0.086
			c0.224,0,0.444-0.124,0.554-0.33c0.167-0.315,0.048-0.687-0.263-0.845l-8.668-4.568c1.985-3.743,4.3-7.279,7.002-10.506
			l7.417,6.114c0.125,0.091,0.258,0.139,0.401,0.139c0.181,0,0.357-0.077,0.482-0.225c0.214-0.272,0.181-0.668-0.086-0.878
			l-7.37-6.066c2.783-3.184,5.9-6.067,9.289-8.602l5.619,7.179c0.119,0.163,0.305,0.244,0.492,0.244
			c0.134,0,0.267-0.048,0.381-0.133c0.268-0.22,0.32-0.606,0.11-0.874l-5.604-7.169c3.165-2.281,6.544-4.277,10.129-5.899
			l3.986,7.546c0.114,0.224,0.329,0.339,0.553,0.339c0.101,0,0.201-0.029,0.296-0.081c0.301-0.153,0.42-0.53,0.258-0.845
			l-3.933-7.441c3.848-1.657,7.904-2.888,12.129-3.719l1.489,8.339c0.052,0.301,0.315,0.516,0.611,0.516c0.038,0,0.076,0,0.114-0.01
			c0.344-0.066,0.563-0.396,0.501-0.72l-1.489-8.358c2.401-0.415,4.835-0.74,7.327-0.869c0,0.053-0.029,0.09-0.029,0.129v11.203
			c0,1.69,1.375,3.06,3.06,3.06c1.686,0,3.05-1.365,3.05-3.06V15.077c0-0.043-0.019-0.081-0.019-0.129
			c3.379,0.167,6.668,0.663,9.876,1.365l-1.7,9.513c-0.062,0.344,0.162,0.668,0.506,0.73c0.039,0.009,0.072,0.009,0.104,0.009
			c0.297,0,0.564-0.219,0.617-0.51l1.699-9.509c4.263,1.027,8.315,2.544,12.162,4.416l-4.177,7.914
			c-0.162,0.306-0.048,0.692,0.258,0.85c0.096,0.048,0.195,0.072,0.291,0.072c0.225,0,0.439-0.119,0.549-0.339l4.186-7.918
			c3.509,1.8,6.813,3.914,9.872,6.348l-5.546,7.093c-0.216,0.272-0.168,0.659,0.104,0.874c0.124,0.081,0.257,0.129,0.392,0.129
			c0.187,0,0.367-0.091,0.495-0.244l5.557-7.107c3.236,2.673,6.167,5.699,8.773,8.998l-6.802,5.599
			c-0.263,0.215-0.301,0.611-0.086,0.878c0.124,0.158,0.306,0.229,0.481,0.229c0.144,0,0.281-0.043,0.401-0.144l6.764-5.57
			c2.501,3.293,4.684,6.835,6.472,10.592l-7.488,3.938c-0.3,0.148-0.425,0.54-0.263,0.841c0.11,0.214,0.33,0.339,0.554,0.339
			c0.101,0,0.196-0.029,0.291-0.072l7.466-3.923c1.823,4.038,3.149,8.338,4.038,12.792l-7.972,1.494
			c-0.338,0.063-0.559,0.396-0.495,0.726c0.062,0.295,0.318,0.511,0.61,0.511c0.048,0,0.081,0,0.124-0.019l7.977-1.49
			c0.443,2.487,0.797,5.007,0.925,7.589h-10.338c-1.686,0-3.056,1.371-3.056,3.06s1.37,3.06,3.056,3.06h10.338
			c-0.134,2.755-0.524,5.441-1.017,8.082l-7.885-1.485c-0.334-0.053-0.669,0.173-0.734,0.506c-0.063,0.329,0.161,0.664,0.495,0.726
			l7.881,1.475c-0.936,4.439-2.301,8.697-4.143,12.712l-7.271-3.813c-0.301-0.163-0.688-0.049-0.845,0.257
			c-0.162,0.306-0.037,0.688,0.263,0.84l7.284,3.824C127.276,104.929,125.086,108.437,122.575,111.691z"/>
		<path fill="#fefefe" d="M114.236,71.94H79.97c-1.047-1.694-2.836-2.887-4.975-2.887c-0.697,0-1.341,0.176-1.962,0.406
			L49.32,45.745c-1.193-1.198-3.126-1.198-4.32,0c-1.198,1.193-1.198,3.126,0,4.314l24.205,24.21
			c-0.033,0.258-0.143,0.478-0.143,0.726c0,1.852,0.869,3.479,2.191,4.578l-16.845,29.898l1.771,0.999l16.844-29.9
			c0.621,0.22,1.279,0.362,1.977,0.362c2.139,0,3.923-1.188,4.974-2.882h34.267c1.686,0,3.056-1.365,3.056-3.06
			C117.291,73.311,115.921,71.94,114.236,71.94z"/>
	</g>
</g>
</svg>
