<?xml version="1.0" encoding="utf-8"?>
<!-- Generator: Adobe Illustrator 16.0.0, SVG Export Plug-In . SVG Version: 6.00 Build 0)  -->
<!DOCTYPE svg PUBLIC "-//W3C//DTD SVG 1.1//EN" "http://www.w3.org/Graphics/SVG/1.1/DTD/svg11.dtd">
<svg version="1.1" id="Layer_1" xmlns="http://www.w3.org/2000/svg" xmlns:xlink="http://www.w3.org/1999/xlink" x="0px" y="0px"
	 width="80px" height="80px" viewBox="0 0 100 100" enable-background="new 0 0 100 100" xml:space="preserve">
<path fill="#fefefe" d="M59.605,49.66c0,5.203-4.219,9.427-9.431,9.427c-5.207,0-9.428-4.224-9.428-9.427
	c0-5.213,4.221-9.431,9.428-9.431C55.387,40.229,59.605,44.447,59.605,49.66z"/>
<path fill="#fefefe" d="M78.066,81.644c-10.579,0-25.393-5.661-39.624-15.147c-10.587-7.053-19.484-15.329-25.047-23.298
	c-5.902-8.465-7.401-15.751-4.224-20.52c2.184-3.279,6.358-5.01,12.078-5.01c10.584,0,25.398,5.665,39.634,15.15
	c10.585,7.056,19.479,15.327,25.04,23.296c5.904,8.465,7.406,15.754,4.227,20.522C87.966,79.91,83.789,81.644,78.066,81.644z
	 M21.249,21.453c-3.064,0-7.103,0.577-8.932,3.325c-2.226,3.334-0.698,9.259,4.187,16.255c5.293,7.592,13.831,15.517,24.036,22.319
	C53.97,72.301,68.349,77.86,78.066,77.86c3.067,0,7.104-0.576,8.932-3.318c2.226-3.337,0.701-9.263-4.181-16.258
	c-5.299-7.593-13.831-15.519-24.032-22.319C45.348,27.016,30.963,21.453,21.249,21.453z"/>
<path fill="#fefefe" d="M21.208,80.908c-6.128,0-10.528-1.842-12.724-5.326c-3.052-4.85-1.362-12.091,4.761-20.405
	c5.766-7.821,14.866-15.866,25.636-22.647C52.929,23.685,67.598,18.4,78.109,18.4c6.129,0,10.529,1.844,12.727,5.331
	c3.053,4.853,1.363,12.095-4.761,20.4C80.308,51.959,71.207,60,60.442,66.778C46.389,75.629,31.723,80.908,21.208,80.908z
	 M78.109,22.186c-9.686,0-23.945,5.189-37.214,13.547c-10.378,6.535-19.113,14.24-24.604,21.69
	c-5.064,6.868-6.74,12.75-4.601,16.146c1.847,2.938,6.195,3.556,9.517,3.556c9.686,0,23.949-5.188,37.221-13.546
	c10.372-6.532,19.109-14.234,24.604-21.685c5.059-6.871,6.737-12.755,4.598-16.145C85.777,22.806,81.432,22.186,78.109,22.186z"/>
<path fill="#fefefe" d="M49.659,98.311c-11.344,0-20.238-21.374-20.238-48.657C29.421,22.368,38.315,1,49.659,1
	c11.347,0,20.235,21.368,20.235,48.653C69.894,76.937,61.006,98.311,49.659,98.311z M49.659,4.783
	c-7.943,0-16.449,18.029-16.449,44.87c0,26.846,8.505,44.877,16.449,44.877c7.947,0,16.452-18.031,16.452-44.877
	C66.11,22.812,57.605,4.783,49.659,4.783z"/>
</svg>
