<?xml version="1.0" encoding="utf-8"?>
<!-- Generator: Adobe Illustrator 16.0.0, SVG Export Plug-In . SVG Version: 6.00 Build 0)  -->
<!DOCTYPE svg PUBLIC "-//W3C//DTD SVG 1.1//EN" "http://www.w3.org/Graphics/SVG/1.1/DTD/svg11.dtd">
<svg version="1.1" id="Layer_1" xmlns="http://www.w3.org/2000/svg" xmlns:xlink="http://www.w3.org/1999/xlink" x="0px" y="0px"
	 width="100px" height="100px" viewBox="0 0 150 150" enable-background="new 0 0 150 150" xml:space="preserve">
<g>
	<g id="iconos_8_">
		<path fill="#fefefe" d="M39.762,113.885l-0.565,16.004l6.144,2.46l5.725-14.3c-0.916,0.276-1.869,0.472-2.876,0.472
			C44.647,118.521,41.547,116.664,39.762,113.885z"/>
		<path fill="#fefefe" d="M104.964,118.521c-1.13,0-2.197-0.23-3.212-0.577l5.767,14.404l6.145-2.46l-0.551-15.597
			C111.293,116.842,108.328,118.521,104.964,118.521z"/>
		<polygon fill="#fefefe" points="38.701,147.372 42.135,137.343 38.997,135.8 		"/>
		<path fill="#fefefe" d="M116.181,146.037c0.876-0.371,1.37-1.181,1.105-1.808l-3.298-8.706l-3.169,1.34l3.298,8.707
			C114.381,146.197,115.307,146.407,116.181,146.037z"/>
		<circle fill="#fefefe" cx="48.189" cy="108.494" r="5.09"/>
		<circle fill="#fefefe" cx="104.964" cy="108.494" r="5.09"/>
		<path fill="#fefefe" d="M77.193,26.983c1.477,0,2.916,0.154,4.32,0.411v-3.908h4.937V3.738H69.171v19.748h4.937v3.717
			C75.12,27.073,76.146,26.983,77.193,26.983z"/>
		<path fill="#fefefe" d="M58.063,51.051c0,3.498,0.953,6.766,2.592,9.585c2.242,3.858,5.786,6.85,10.037,8.388
			c2.032,0.736,4.214,1.158,6.5,1.158c1.787,0,3.508-0.264,5.146-0.721c4.277-1.195,7.943-3.829,10.449-7.358
			c2.222-3.124,3.537-6.932,3.537-11.052c0-10.564-8.564-19.13-19.131-19.13C66.629,31.92,58.063,40.483,58.063,51.051z
			 M77.193,42.412c4.771,0,8.641,3.868,8.641,8.639s-3.869,8.64-8.641,8.64s-8.639-3.868-8.639-8.64
			C68.554,46.279,72.422,42.412,77.193,42.412z"/>
		<path fill="#fefefe" d="M32.145,82.729v7.405h7.405v-2.469h10.286l-4.51,11.267c0.913-0.274,1.864-0.467,2.866-0.467
			c3.728,0,6.949,2.069,8.676,5.095l6.362-15.895h10.877v7.638c0,1.234,1.003,2.236,2.237,2.236h0.464
			c1.234,0,2.236-1.002,2.236-2.236v-7.638h10.586l6.486,16.206c1.678-3.197,4.991-5.406,8.847-5.406c0.878,0,1.718,0.15,2.53,0.363
			l-4.468-11.163h10.577v2.469h7.405v-7.405h-7.405v2.468h-11.567l-7.158-17.878c-2.871,3.118-6.536,5.49-10.69,6.756l4.455,11.123
			h-9.598v-5.168c0-1.234-1.002-2.236-2.236-2.236h-0.464c-1.233,0-2.237,1.002-2.237,2.236v5.168h-9.888L68.862,73.6
			c-4.109-1.523-7.699-4.122-10.401-7.477l-7.637,19.074H39.55v-2.468H32.145z"/>
	</g>
</g>
</svg>
