<?xml version="1.0" encoding="utf-8"?>
<!-- Generator: Adobe Illustrator 16.0.0, SVG Export Plug-In . SVG Version: 6.00 Build 0)  -->
<!DOCTYPE svg PUBLIC "-//W3C//DTD SVG 1.1//EN" "http://www.w3.org/Graphics/SVG/1.1/DTD/svg11.dtd">
<svg version="1.1" id="Layer_1" xmlns="http://www.w3.org/2000/svg" xmlns:xlink="http://www.w3.org/1999/xlink" x="0px" y="0px"
	 width="40px" height="40px" viewBox="0 0 100 100" enable-background="new 0 0 100 100" xml:space="preserve">
<path fill="#fefefe" d="M90.543,6.428H9.66c-4.65,0-8.457,3.81-8.457,8.457v53.864c0,4.655,3.811,8.459,8.457,8.459h36.99v7.208
	H20.77l-3.451,3.451v3.451h65.565v-3.451l-3.45-3.451H53.553v-7.205h36.99c4.656,0,8.457-3.808,8.457-8.459V14.885
	C99,10.238,95.199,6.428,90.543,6.428z M95.549,58.4c0,2.764-2.245,5.008-5.006,5.008H9.66c-2.759,0-5.006-2.244-5.006-5.008V14.885
	c0-2.76,2.247-5.006,5.006-5.006h80.883c2.762,0,5.007,2.246,5.007,5.006L95.549,58.4L95.549,58.4z"/>
</svg>
