<?xml version="1.0" encoding="utf-8"?>
<!-- Generator: Adobe Illustrator 16.0.0, SVG Export Plug-In . SVG Version: 6.00 Build 0)  -->
<!DOCTYPE svg PUBLIC "-//W3C//DTD SVG 1.1//EN" "http://www.w3.org/Graphics/SVG/1.1/DTD/svg11.dtd">
<svg version="1.1" id="Layer_1" xmlns="http://www.w3.org/2000/svg" xmlns:xlink="http://www.w3.org/1999/xlink" x="0px" y="0px"
	 width="150px" height="150px" viewBox="0 0 150 150" enable-background="new 0 0 150 150" xml:space="preserve">
<path fill="#fefefe" d="M135.804,12.479H13.761C6.745,12.479,1,18.228,1,25.24v81.274c0,7.024,5.75,12.764,12.761,12.764h55.814
	v10.877H30.524l-5.208,5.207v5.207h98.931v-5.207l-5.207-5.207H79.989v-10.872h55.814c7.025,0,12.761-5.746,12.761-12.765V25.24
	C148.564,18.228,142.829,12.479,135.804,12.479z M143.356,90.897c0,4.172-3.388,7.559-7.553,7.559H13.761
	c-4.163,0-7.554-3.387-7.554-7.559V25.24c0-4.165,3.39-7.554,7.554-7.554h122.043c4.167,0,7.555,3.389,7.555,7.554v65.658H143.356z"
	/>
</svg>
