<?xml version="1.0" encoding="utf-8"?>
<!-- Generator: Adobe Illustrator 16.0.0, SVG Export Plug-In . SVG Version: 6.00 Build 0)  -->
<!DOCTYPE svg PUBLIC "-//W3C//DTD SVG 1.1//EN" "http://www.w3.org/Graphics/SVG/1.1/DTD/svg11.dtd">
<svg version="1.1" id="Layer_1" xmlns="http://www.w3.org/2000/svg" xmlns:xlink="http://www.w3.org/1999/xlink" x="0px" y="0px"
	 width="40px" height="40px" viewBox="0 0 100 100" enable-background="new 0 0 100 100" xml:space="preserve">
<g>
	<g>
		<path fill="#fefefe" d="M97.982,41.783c-0.132-0.749-0.568-1.411-1.205-1.826c-0.645-0.416-1.424-0.544-2.162-0.358
			c-1.685,0.421-3.433,0.327-5.021-0.285c-4.295-1.65-6.443-6.487-4.799-10.781c0.628-1.622,1.752-2.997,3.258-3.977
			c0.64-0.413,1.076-1.075,1.205-1.826c0.132-0.749-0.054-1.519-0.514-2.125c-3.022-3.987-6.626-7.468-10.7-10.344
			c-0.621-0.438-1.396-0.594-2.141-0.444c-0.74,0.155-1.388,0.612-1.784,1.261c-0.883,1.462-2.174,2.6-3.734,3.292
			c-1.076,0.479-2.214,0.724-3.385,0.724c-3.296,0-6.286-1.945-7.625-4.954c-0.713-1.604-0.896-3.366-0.536-5.094
			c0.157-0.743-0.003-1.518-0.437-2.142c-0.438-0.621-1.112-1.03-1.865-1.133c-4.943-0.69-9.997-0.615-14.865,0.217
			c-0.752,0.128-1.411,0.563-1.83,1.198c-0.418,0.635-0.554,1.416-0.371,2.154c0.411,1.667,0.303,3.386-0.307,4.972
			c-1.227,3.203-4.359,5.355-7.786,5.355c-1.02,0-2.024-0.189-2.992-0.56c-1.626-0.626-3.003-1.753-3.981-3.262
			c-0.411-0.638-1.07-1.077-1.818-1.209c-0.75-0.131-1.52,0.052-2.125,0.507c-4.004,3.01-7.503,6.606-10.398,10.684
			c-0.442,0.623-0.603,1.403-0.446,2.149c0.158,0.747,0.621,1.396,1.273,1.789c1.482,0.886,2.632,2.183,3.331,3.754
			c0.905,2.036,0.966,4.303,0.168,6.382c-0.798,2.078-2.361,3.723-4.396,4.629c-1.631,0.722-3.447,0.896-5.194,0.511
			c-0.744-0.166-1.526-0.012-2.154,0.419c-0.629,0.435-1.049,1.11-1.157,1.867c-0.709,5.003-0.646,10.033,0.19,14.951
			c0.129,0.758,0.571,1.426,1.216,1.844c0.645,0.415,1.434,0.538,2.179,0.348c1.706-0.447,3.476-0.356,5.092,0.265
			c2.079,0.799,3.722,2.359,4.628,4.393c0.905,2.036,0.962,4.301,0.165,6.383c-0.643,1.666-1.812,3.064-3.385,4.048
			c-0.652,0.407-1.103,1.065-1.245,1.82c-0.14,0.756,0.042,1.533,0.501,2.15c3.035,4.036,6.655,7.558,10.764,10.459
			c0.629,0.445,1.416,0.608,2.169,0.438c0.75-0.163,1.399-0.637,1.784-1.303c0.891-1.541,2.211-2.731,3.819-3.448
			c1.082-0.479,2.219-0.722,3.386-0.722c3.296,0,6.291,1.941,7.629,4.952c0.741,1.665,0.909,3.494,0.492,5.287
			c-0.179,0.75-0.029,1.54,0.408,2.174C41.717,98,42.4,98.424,43.16,98.529C45.39,98.84,47.657,99,49.896,99
			c2.768,0,5.552-0.243,8.272-0.716c0.757-0.132,1.426-0.573,1.842-1.226c0.414-0.649,0.535-1.44,0.336-2.183
			c-0.468-1.735-0.385-3.515,0.242-5.142c1.23-3.199,4.362-5.354,7.794-5.354c1.021,0,2.023,0.19,2.985,0.558
			c1.665,0.642,3.063,1.811,4.044,3.38c0.411,0.651,1.072,1.104,1.829,1.242c0.752,0.139,1.533-0.045,2.146-0.51
			c4.022-3.046,7.524-6.674,10.409-10.783c0.443-0.628,0.601-1.407,0.436-2.157c-0.164-0.748-0.631-1.396-1.291-1.783
			c-1.518-0.887-2.701-2.2-3.405-3.795c-1.866-4.202,0.031-9.144,4.229-11.011c1.626-0.725,3.438-0.898,5.185-0.511
			c0.75,0.161,1.53,0.008,2.158-0.428c0.63-0.436,1.045-1.117,1.148-1.877C98.933,51.727,98.842,46.707,97.982,41.783z
			 M58.388,69.335c-2.708,1.205-5.577,1.814-8.523,1.814c-8.292,0-15.827-4.893-19.197-12.465
			c-4.704-10.578,0.07-23.015,10.651-27.721c2.71-1.207,5.578-1.817,8.524-1.817c8.291,0,15.827,4.895,19.196,12.467
			C73.746,52.192,68.966,64.627,58.388,69.335z"/>
		<path fill="#fefefe" d="M49.846,34.625c-2.171,0-4.295,0.451-6.298,1.342c-7.816,3.479-11.351,12.671-7.872,20.49
			c2.489,5.6,8.06,9.215,14.189,9.215c2.171,0,4.292-0.449,6.297-1.341c7.817-3.479,11.349-12.671,7.872-20.49
			C61.546,38.241,55.976,34.625,49.846,34.625z"/>
	</g>
</g>
</svg>
