<?xml version="1.0" encoding="utf-8"?>
<!-- Generator: Adobe Illustrator 16.0.0, SVG Export Plug-In . SVG Version: 6.00 Build 0)  -->
<!DOCTYPE svg PUBLIC "-//W3C//DTD SVG 1.1//EN" "http://www.w3.org/Graphics/SVG/1.1/DTD/svg11.dtd">
<svg version="1.1" id="Layer_1" xmlns="http://www.w3.org/2000/svg" xmlns:xlink="http://www.w3.org/1999/xlink" x="0px" y="0px"
	 width="100px" height="100px" viewBox="0 0 150 150" enable-background="new 0 0 150 150" xml:space="preserve">
<g>
	<g>
		<polygon fill="#fefefe" points="108.842,34.612 108.982,35.7 107.352,36.039 107.137,38.357 109.089,38.357 111.689,38.107 
			113.029,36.511 111.604,35.956 110.823,35.058 109.651,33.158 109.089,30.471 106.886,30.92 106.268,31.867 106.268,32.935 
			107.328,33.662 		"/>
		<polygon fill="#fefefe" points="106.963,35.504 107.08,34.051 105.788,33.493 103.977,33.912 102.637,36.065 102.637,37.46 
			104.2,37.46 		"/>
		<path fill="#fefefe" d="M69.723,41.678l-0.397,1.024h-1.927v0.996h0.458c0,0,0.028,0.21,0.066,0.489l1.182-0.1l0.739-0.458
			l0.193-0.926l0.956-0.081l0.377-0.779l-0.877-0.181L69.723,41.678z"/>
		<polygon fill="#fefefe" points="64.757,43.483 64.682,44.458 66.078,44.34 66.222,43.362 65.384,42.702 		"/>
		<path fill="#fefefe" d="M148.607,74.554c-0.023-2.144-0.13-4.273-0.333-6.368c-0.677-6.988-2.347-13.684-4.85-19.962
			c-0.188-0.468-0.359-0.941-0.56-1.401c-3.334-7.88-8.016-15.054-13.752-21.245c-0.377-0.403-0.76-0.801-1.143-1.194
			c-1.081-1.125-2.194-2.222-3.346-3.274C111.592,9.243,94.282,2,75.311,2C56.178,2,38.746,9.372,25.677,21.419
			c-3.046,2.808-5.844,5.872-8.384,9.152C7.717,42.958,2,58.476,2,75.311c0,40.427,32.89,73.314,73.314,73.314
			c28.436,0,53.122-16.284,65.275-40.008c2.601-5.073,4.623-10.479,5.986-16.146c0.348-1.44,0.646-2.883,0.904-4.344
			c0.739-4.164,1.143-8.448,1.143-12.817C148.625,75.058,148.61,74.808,148.607,74.554z M134.809,45.252l0.424-0.476
			c0.56,1.082,1.081,2.184,1.578,3.298l-0.695-0.027l-1.307,0.181V45.252z M124.213,32.462l0.015-3.274
			c1.151,1.221,2.262,2.478,3.325,3.781l-1.322,1.966l-4.617-0.041l-0.292-0.963L124.213,32.462z M35.779,24.323v-0.124h1.468
			l0.127-0.504h2.403v1.05l-0.69,0.923h-3.31L35.779,24.323L35.779,24.323z M38.125,27.594c0,0,1.468-0.25,1.595-0.25
			s0,1.467,0,1.467l-3.31,0.208l-0.63-0.754L38.125,27.594z M139.479,56.697h-5.365l-3.269-2.434l-3.439,0.334v2.1h-1.09
			l-1.175-0.839l-5.957-1.511v-3.859l-7.551,0.587l-2.341,1.257h-2.998l-1.469-0.147l-3.64,2.02v3.803l-7.438,5.367l0.618,2.292
			h1.508l-0.395,2.182l-1.061,0.389l-0.059,5.706l6.431,7.322h2.798l0.168-0.447h5.029l1.452-1.343h2.851l1.566,1.569l4.252,0.438
			l-0.565,5.654l4.718,8.334l-2.482,4.749l0.168,2.235l1.955,1.952v5.381l2.571,3.457v4.467h2.22
			c-12.353,15.163-31.149,24.877-52.182,24.877c-37.097,0.003-67.277-30.181-67.277-67.28c0-9.339,1.918-18.24,5.371-26.331v-2.1
			l2.406-2.921c0.834-1.577,1.73-3.116,2.687-4.615l0.107,1.222l-2.792,3.393c-0.866,1.634-1.674,3.304-2.406,5.021v3.83
			l2.795,1.344v5.323l2.681,4.575l2.179,0.334l0.281-1.568l-2.572-3.968l-0.504-3.856h1.508l0.636,3.968l3.718,5.424l-0.958,1.752
			l2.365,3.615l5.87,1.455v-0.951l2.349,0.336l-0.223,1.677l1.845,0.337l2.85,0.777l4.026,4.585l5.142,0.392l0.503,4.193
			l-3.519,2.459l-0.167,3.745l-0.503,2.294l5.09,6.37l0.389,2.185c0,0,1.845,0.501,2.072,0.501c0.224,0,4.137,2.962,4.137,2.962
			v11.518l1.396,0.392l-0.95,5.313l2.349,3.133l-0.433,5.266l3.103,5.456l3.982,3.478l4.005,0.074l0.392-1.287l-2.943-2.479
			l0.169-1.23l0.529-1.508l0.11-1.537l-1.989-0.06l-1.004-1.26l1.652-1.591l0.222-1.201l-1.845-0.527l0.109-1.115l2.63-0.398
			l3.998-1.92l1.343-2.462l4.193-5.368l-0.953-4.196l1.289-2.234l3.854,0.117l2.597-2.055l0.84-8.099l2.88-3.657l0.503-2.35
			l-2.626-0.843l-1.734-2.845l-5.925-0.059l-4.699-1.79l-0.222-3.352l-1.568-2.741l-4.249-0.063l-2.455-3.854l-2.181-1.064
			l-0.11,1.177l-3.97,0.234l-1.453-2.023l-4.14-0.841l-3.41,3.94l-5.367-0.91l-0.39-6.049l-3.917-0.67l1.571-2.967l-0.449-1.704
			l-5.147,3.44l-3.239-0.395l-1.155-2.529l0.706-2.609l1.786-3.29l4.109-2.081l7.936-0.003l-0.021,2.421l2.853,1.327l-0.227-4.136
			l2.057-2.068l4.149-2.727l0.283-1.917l4.137-4.307l4.399-2.437l-0.389-0.319l2.979-2.803l1.092,0.289l0.5,0.627l1.131-1.254
			l0.277-0.124l-1.24-0.174l-1.257-0.42v-1.206l0.667-0.546h1.468l0.673,0.296l0.582,1.175l0.713-0.108v-0.103l0.205,0.069
			l2.063-0.316l0.292-1.007l1.176,0.296v1.091l-1.091,0.751h0.003l0.159,1.197l3.737,1.151c0,0,0.003,0.016,0.009,0.046l0.86-0.072
			l0.059-1.62l-2.964-1.347l-0.168-0.779l2.458-0.838l0.108-2.352l-2.569-1.565l-0.169-3.965l-3.521,1.73H69.31l0.339-3.018
			l-4.796-1.131l-1.983,1.499v4.572l-3.568,1.13l-1.43,2.979l-1.549,0.25v-3.812l-3.354-0.464l-1.676-1.091l-0.676-2.471l5.997-3.51
			l2.935-0.892l0.296,1.973l1.634-0.085l0.126-0.991l1.709-0.244l0.03-0.348l-0.735-0.305l-0.169-1.048l2.103-0.178l1.269-1.321
			l0.069-0.097l0.015,0.006l0.386-0.397l4.419-0.558l1.954,1.66l-5.124,2.728l6.52,1.537l0.844-2.179h2.851l1.007-1.901
			l-2.015-0.504v-2.403l-6.317-2.797l-4.36,0.503l-2.46,1.287l0.168,3.13l-2.572-0.392l-0.395-1.731l2.463-2.236l-4.472-0.224
			l-1.284,0.389l-0.558,1.507l1.675,0.284l-0.334,1.676l-2.849,0.169l-0.446,1.116l-4.134,0.115c0,0-0.115-2.347-0.281-2.347
			c-0.165,0,3.242-0.058,3.242-0.058l2.463-2.406l-1.344-0.673l-1.789,1.737l-2.967-0.169l-1.788-2.46h-3.803l-3.968,2.964h3.637
			l0.331,1.064l-0.944,0.877l4.026,0.112l0.615,1.454l-4.532-0.168l-0.221-1.119l-2.849-0.615l-1.511-0.838l-3.392,0.026
			C46.894,12.819,60.55,8.031,75.311,8.031c17.013,0,32.559,6.359,44.417,16.809l-0.799,1.428l-3.104,1.216l-1.308,1.419
			l0.301,1.656l1.602,0.223l0.966,2.413l2.763-1.113l0.453,3.226h-0.83l-2.268-0.334l-2.515,0.423l-2.436,3.437l-3.48,0.546
			l-0.504,2.979l1.47,0.347l-0.427,1.914l-3.454-0.693l-3.169,0.693l-0.675,1.764l0.551,3.703l1.858,0.872l3.121-0.018l2.108-0.19
			l0.643-1.677l3.292-4.279l2.17,0.443l2.136-1.929l0.397,1.508l5.253,3.542l-0.645,0.863l-2.365-0.127l0.91,1.29l1.455,0.319
			l1.708-0.711l-0.035-2.057l0.757-0.38l-0.61-0.645l-3.504-1.954l-0.922-2.597h2.912l0.931,0.923l2.509,2.163l0.106,2.614
			l2.601,2.768l0.969-3.793l1.799-0.984l0.339,3.104l1.755,1.929l3.51-0.06c0.678,1.746,1.287,3.521,1.82,5.334L139.479,56.697z
			 M41.988,35.308l1.761-0.838l1.592,0.38l-0.549,2.138l-1.718,0.546L41.988,35.308z M51.332,40.341v1.384H47.31l-1.508-0.418
			l0.377-0.966l1.933-0.798h2.642v0.798H51.332z M53.184,42.271v1.341l-1.007,0.649l-1.254,0.231c0,0,0-2.011,0-2.222H53.184z
			 M52.05,41.725V40.13l1.384,1.261L52.05,41.725z M52.681,44.952v1.305l-0.963,0.966H49.58l0.336-1.467l1.01-0.087l0.208-0.503
			L52.681,44.952z M47.355,42.271h2.222l-2.849,3.983l-1.177-0.63l0.253-1.676L47.355,42.271z M56.456,44.493v1.303h-2.138
			l-0.584-0.844v-1.213h0.168L56.456,44.493z M54.48,42.702l0.609-0.639l1.028,0.639l-0.823,0.679L54.48,42.702z M140.571,60.093
			l0.209-0.248c0.088,0.38,0.183,0.76,0.265,1.146L140.571,60.093z"/>
		<path fill="#fefefe" d="M13.405,46.881v2.1c0.732-1.712,1.541-3.383,2.406-5.021L13.405,46.881z"/>
	</g>
</g>
</svg>
