<?xml version="1.0" encoding="utf-8"?>
<!-- Generator: Adobe Illustrator 16.0.0, SVG Export Plug-In . SVG Version: 6.00 Build 0)  -->
<!DOCTYPE svg PUBLIC "-//W3C//DTD SVG 1.1//EN" "http://www.w3.org/Graphics/SVG/1.1/DTD/svg11.dtd">
<svg version="1.1" id="Layer_1" xmlns="http://www.w3.org/2000/svg" xmlns:xlink="http://www.w3.org/1999/xlink" x="0px" y="0px"
	 width="120px" height="120px" viewBox="0 0 150 150" enable-background="new 0 0 150 150" xml:space="preserve">
<g>
	<g>
		<path fill="#fefefe" d="M129.303,133.72h-9.166v-6.222c0-0.355-0.289-0.645-0.644-0.645s-0.644,0.289-0.644,0.645v6.222h-11.585
			v-6.222c0-0.355-0.289-0.645-0.643-0.645c-0.355,0-0.645,0.289-0.645,0.645v6.222H94.393v-6.222c0-0.355-0.289-0.645-0.644-0.645
			s-0.644,0.289-0.644,0.645v6.222H81.521v-6.222c0-0.355-0.289-0.645-0.644-0.645s-0.644,0.289-0.644,0.645v6.222H68.648v-6.222
			c0-0.355-0.288-0.645-0.644-0.645c-0.354,0-0.644,0.289-0.644,0.645v6.222H55.776v-6.222c0-0.355-0.288-0.645-0.644-0.645
			c-0.354,0-0.644,0.289-0.644,0.645v6.222H42.904v-6.222c0-0.355-0.288-0.645-0.644-0.645c-0.354,0-0.644,0.289-0.644,0.645v6.222
			H30.032v-6.222c0-0.355-0.288-0.645-0.644-0.645c-0.354,0-0.644,0.289-0.644,0.645v6.222H5.361v-14.588h5.171
			c0.354,0,0.643-0.288,0.643-0.644s-0.289-0.644-0.643-0.644H5.361V106.26h5.171c0.354,0,0.643-0.287,0.643-0.643
			c0-0.356-0.289-0.645-0.643-0.645H5.361V93.388h5.171c0.354,0,0.643-0.288,0.643-0.644s-0.289-0.644-0.643-0.644H5.361V80.516
			h5.171c0.354,0,0.643-0.288,0.643-0.643c0-0.356-0.289-0.645-0.643-0.645H5.361V67.644h5.171c0.354,0,0.643-0.288,0.643-0.643
			c0-0.356-0.289-0.644-0.643-0.644H5.361V54.771h5.171c0.354,0,0.643-0.288,0.643-0.643s-0.289-0.644-0.643-0.644H5.361V41.899
			h5.171c0.354,0,0.643-0.288,0.643-0.643c0-0.355-0.289-0.644-0.643-0.644H5.361V29.027h5.171c0.354,0,0.643-0.288,0.643-0.644
			c0-0.355-0.289-0.644-0.643-0.644H5.361V17.228c0-1.066-0.865-1.931-1.93-1.931c-1.066,0-1.931,0.865-1.931,1.931v118.423
			c0,1.066,0.865,1.931,1.931,1.931h125.872c1.066,0,1.932-0.864,1.932-1.931S130.369,133.72,129.303,133.72z"/>
		<rect x="21.638" y="32.807" fill="#fefefe" width="13.193" height="87.267"/>
		<path fill="#fefefe" d="M62.828,73.877c-1.728-2.259-3.128-4.688-4.199-7.223h-8.995v53.42h13.194V73.877z"/>
		<path fill="#fefefe" d="M90.505,86.873c-0.428,0.019-0.855,0.044-1.282,0.044c-4.142,0-8.161-0.758-11.911-2.193v35.348h13.193
			V86.873z"/>
		<path fill="#fefefe" d="M119.467,94.813L106.771,81.93c-0.163,0.102-0.335,0.188-0.497,0.286v37.855h13.193V94.813z"/>
		<path fill="#fefefe" d="M147.921,108.164l-35.625-36.147c8.934-11.523,8.138-28.207-2.438-38.783
			c-11.465-11.465-30.122-11.465-41.59,0c-11.464,11.467-11.464,30.121,0,41.588c10.576,10.577,27.258,11.371,38.784,2.439
			l35.625,36.146c1.448,1.448,3.794,1.448,5.242,0C149.369,111.961,149.369,109.613,147.921,108.164z M104.617,69.58
			c-8.575,8.576-22.528,8.577-31.104,0c-8.575-8.574-8.574-22.527,0-31.101c8.576-8.574,22.527-8.577,31.104,0
			C113.193,47.052,113.193,61.006,104.617,69.58z"/>
		<path fill="#fefefe" d="M90.136,50.883c-3.363-1.392-4.336-2.233-4.336-3.757c0-1.217,0.893-2.641,3.404-2.641
			c2.365,0,3.852,0.85,4.488,1.213c0.162,0.094,0.358,0.109,0.537,0.048c0.177-0.064,0.316-0.201,0.384-0.377l0.956-2.522
			c0.111-0.293-0.006-0.625-0.276-0.783c-1.369-0.797-2.895-1.253-4.645-1.386v-3.096c0-0.355-0.288-0.644-0.645-0.644h-2.365
			c-0.354,0-0.644,0.289-0.644,0.644v3.325c-3.52,0.777-5.764,3.35-5.764,6.677c0,4.016,3.223,5.835,6.698,7.203
			c2.778,1.124,3.911,2.268,3.911,3.944c0,1.853-1.568,3.097-3.896,3.097c-1.803,0-3.677-0.559-5.142-1.532
			c-0.163-0.11-0.37-0.136-0.559-0.076c-0.189,0.061-0.339,0.208-0.402,0.394l-0.917,2.555c-0.097,0.272-0.003,0.575,0.232,0.741
			c1.339,0.955,3.471,1.628,5.569,1.772v3.239c0,0.356,0.291,0.644,0.645,0.644h2.404c0.355,0,0.644-0.288,0.644-0.644v-3.438
			c3.629-0.812,6.032-3.576,6.032-7.021C96.45,54.952,94.561,52.685,90.136,50.883z"/>
	</g>
</g>
</svg>
