<?xml version="1.0" encoding="utf-8"?>
<!-- Generator: Adobe Illustrator 16.0.0, SVG Export Plug-In . SVG Version: 6.00 Build 0)  -->
<!DOCTYPE svg PUBLIC "-//W3C//DTD SVG 1.1//EN" "http://www.w3.org/Graphics/SVG/1.1/DTD/svg11.dtd">
<svg version="1.1" id="Layer_1" xmlns="http://www.w3.org/2000/svg" xmlns:xlink="http://www.w3.org/1999/xlink" x="0px" y="0px"
	 width="100px" height="100px" viewBox="0 0 150 150" enable-background="new 0 0 150 150" xml:space="preserve">
<g>
	<path fill="#fefefe" d="M91.926,138.413c-0.46,1.451-1.928,2.348-3.451,2.348h-0.052c-2.012,0-3.851,1.138-4.75,2.935l-0.037,0.074
		c-1.212,2.424-3.688,3.955-6.399,3.955h-5.084c-2.711,0-5.188-1.531-6.4-3.955l-0.036-0.074c-0.9-1.797-2.739-2.935-4.75-2.935
		h-0.052c-1.521,0-2.99-0.896-3.449-2.348c-0.765-2.403,1.01-4.616,3.301-4.616h27.857C90.914,133.797,92.688,136.01,91.926,138.413
		z M37.761,99.646l-9.849,9.85c-1.36,1.358-1.36,3.563,0,4.923c0.679,0.682,1.57,1.021,2.462,1.021c0.891,0,1.783-0.339,2.461-1.021
		l9.85-9.85c1.36-1.359,1.36-3.563,0-4.923C41.327,98.285,39.119,98.285,37.761,99.646z M29.426,67.636
		c0-1.922-1.56-3.483-3.482-3.483H12.015c-1.922,0-3.482,1.561-3.482,3.483c0,1.922,1.56,3.482,3.482,3.482h13.929
		C27.867,71.118,29.426,69.558,29.426,67.636z M74.694,22.367c1.921,0,3.481-1.56,3.481-3.482V4.957
		c0-1.922-1.561-3.482-3.481-3.482c-1.922,0-3.482,1.56-3.482,3.482v13.929C71.212,20.807,72.772,22.367,74.694,22.367z
		 M109.166,36.646c0.892,0,1.781-0.34,2.461-1.021l9.85-9.849c1.36-1.36,1.36-3.564,0-4.923s-3.563-1.36-4.923,0l-9.85,9.849
		c-1.36,1.36-1.36,3.564,0,4.923C107.383,36.306,108.274,36.646,109.166,36.646z M37.761,35.625c0.679,0.681,1.57,1.02,2.461,1.02
		c0.892,0,1.784-0.339,2.462-1.02c1.36-1.359,1.36-3.563,0-4.923l-9.85-9.85c-1.357-1.359-3.565-1.359-4.923,0
		c-1.36,1.36-1.36,3.564,0,4.924L37.761,35.625z M137.373,64.153h-13.929c-1.922,0-3.482,1.561-3.482,3.483
		c0,1.922,1.561,3.482,3.482,3.482h13.929c1.922,0,3.482-1.56,3.482-3.482C140.855,65.713,139.295,64.153,137.373,64.153z
		 M111.627,99.646c-1.358-1.36-3.563-1.36-4.923,0c-1.359,1.359-1.36,3.563,0,4.923l9.85,9.85c0.681,0.682,1.57,1.021,2.462,1.021
		s1.78-0.339,2.461-1.021c1.36-1.36,1.36-3.564,0-4.923L111.627,99.646z M88.623,125.092H60.766c-1.922,0-3.482,1.559-3.482,3.482
		c0,1.922,1.56,3.481,3.482,3.481h27.857c1.922,0,3.482-1.56,3.482-3.481C92.105,126.65,90.545,125.092,88.623,125.092z
		 M92.105,119.867c0,1.923-1.561,3.482-3.482,3.482H60.766c-1.922,0-3.482-1.56-3.482-3.482c0-1.854,1.454-3.356,3.281-3.461
		c-2.167-19.595-22.434-23.959-22.434-47.03c0-20.193,16.37-36.563,36.563-36.563c20.192,0,36.563,16.371,36.563,36.563
		c0,23.071-20.266,27.435-22.434,47.03C90.651,116.511,92.105,118.014,92.105,119.867z M88.601,60.492
		c-1.187-3.547-4.808-7.614-11.238-8.497v-4.203c0-1.442-1.171-2.612-2.612-2.612c-1.442,0-2.612,1.17-2.612,2.612v4.279
		c-5.342,1.035-9.466,5.179-10.013,10.448c-0.508,4.915,2.352,11.38,12.088,13.418c5.295,1.108,8.348,4.086,7.965,7.769
		c-0.311,2.992-2.96,6.021-7.43,6.021c-5.305,0-8.106-2.754-8.895-5.111c-0.458-1.367-1.937-2.107-3.305-1.648
		c-1.369,0.46-2.106,1.938-1.648,3.305c1.187,3.547,4.809,7.613,11.238,8.495v4.207c0,1.44,1.17,2.611,2.612,2.611
		c1.441,0,2.612-1.171,2.612-2.611v-4.28c5.341-1.034,9.465-5.18,10.012-10.448c0.509-4.915-2.352-11.379-12.089-13.418
		c-5.294-1.109-8.346-4.086-7.963-7.769c0.311-2.993,2.96-6.021,7.43-6.021c5.304,0,8.107,2.752,8.895,5.11
		c0.459,1.367,1.931,2.109,3.305,1.649C88.32,63.34,89.058,61.862,88.601,60.492z"/>
</g>
</svg>
