<?xml version="1.0" encoding="iso-8859-1"?>
<!-- Generator: Adobe Illustrator 16.0.0, SVG Export Plug-In . SVG Version: 6.00 Build 0)  -->
<!DOCTYPE svg PUBLIC "-//W3C//DTD SVG 1.1//EN" "http://www.w3.org/Graphics/SVG/1.1/DTD/svg11.dtd">
<svg version="1.1" id="Capa_1" xmlns="http://www.w3.org/2000/svg" xmlns:xlink="http://www.w3.org/1999/xlink" x="0px" y="0px"
	 width="100px" height="100px"  fill="#fff" viewBox="0 0 477.909 477.909" style="enable-background:new 0 0 477.909 477.909;"
	 xml:space="preserve">
<g>
	<g>
		<g>
			<path d="M238.954,477.909C107.195,477.909,0,370.716,0,238.955C0,107.196,107.195,0,238.954,0
				c131.761,0,238.955,107.196,238.955,238.955C477.909,370.716,370.715,477.909,238.954,477.909z M238.954,28.675
				c-115.951,0-210.28,94.329-210.28,210.28c0,115.949,94.329,210.28,210.28,210.28c115.949,0,210.28-94.331,210.28-210.28
				C449.234,123.004,354.903,28.675,238.954,28.675z"/>
		</g>
		<path d="M296.546,130.025c-45.905-45.917-120.609-45.917-166.526,0c-45.917,45.903-45.917,120.616,0,166.53
			c44.335,44.333,115.519,45.85,161.705,4.546l9.335,9.33c-2.329,5.964-1.106,12.965,3.691,17.768l49.266,49.266
			c6.478,6.478,16.979,6.478,23.447,0c6.473-6.469,6.473-16.97,0-23.438l-49.261-49.266c-4.803-4.798-11.822-6.021-17.768-3.687
			l-9.335-9.344C342.404,245.54,340.888,174.355,296.546,130.025z M144.089,282.48c-38.156-38.149-38.156-100.235,0-138.396
			c38.151-38.156,100.237-38.151,138.391,0c38.153,38.156,38.153,100.242,0,138.396C244.326,320.639,182.245,320.639,144.089,282.48
			z"/>
		<path d="M204.521,238.08l-10.207-10.202l28.191-28.196c13.28,7.817,30.675,6.072,42.071-5.316
			c13.497-13.502,13.497-35.488,0-48.995c-13.506-13.501-35.49-13.501-48.997,0c-11.388,11.393-13.128,28.785-5.318,42.064
			l-49.965,49.97c-2.257,2.259-2.257,5.909,0,8.163l4.082,4.074c2.256,2.264,5.901,2.264,8.163,0l9.53-9.512l10.207,10.202
			c2.257,2.269,5.913,2.26,8.163,0l4.081-4.078C206.782,243.995,206.782,240.341,204.521,238.08z M223.747,153.538
			c9.01-9.003,23.655-9.003,32.653,0c9.018,9.01,9.018,23.653,0,32.66c-8.998,9.003-23.639,9.01-32.653,0
			C214.744,177.195,214.744,162.548,223.747,153.538z"/>
		<g>
			<path d="M172.945,267.615l3.461,11.851l3.147-11.024c0.341-1.147,0.588-1.932,0.752-2.356c0.163-0.425,0.469-0.826,0.912-1.204
				c0.446-0.383,1.062-0.574,1.841-0.574c0.789,0,1.409,0.196,1.857,0.574c0.446,0.378,0.761,0.793,0.943,1.246
				c0.182,0.448,0.434,1.223,0.758,2.314l3.15,11.024l3.498-11.851c0.229-0.854,0.42-1.47,0.565-1.862
				c0.142-0.382,0.383-0.719,0.721-1.008c0.338-0.303,0.821-0.438,1.458-0.438c0.634,0,1.185,0.215,1.652,0.653
				c0.469,0.453,0.698,0.961,0.698,1.568c0,0.532-0.201,1.362-0.602,2.464l-4.333,12.713c-0.378,1.069-0.67,1.854-0.875,2.324
				c-0.21,0.477-0.534,0.896-0.985,1.293c-0.448,0.369-1.057,0.565-1.839,0.565c-0.798,0-1.435-0.215-1.892-0.616
				c-0.46-0.393-0.798-0.901-1.024-1.471c-0.219-0.588-0.458-1.339-0.716-2.286l-3.034-10.338l-2.936,10.338
				c-0.388,1.446-0.808,2.524-1.263,3.252c-0.453,0.733-1.25,1.093-2.389,1.093c-0.586,0-1.078-0.107-1.484-0.336
				c-0.408-0.233-0.751-0.551-1.024-0.971c-0.271-0.425-0.511-0.915-0.716-1.494c-0.21-0.578-0.369-1.026-0.488-1.372l-4.296-12.703
				c-0.425-1.195-0.64-2.017-0.64-2.474c0-0.569,0.229-1.088,0.682-1.531c0.455-0.457,1.015-0.686,1.673-0.686
				c0.885,0,1.477,0.247,1.792,0.746C172.285,265.539,172.591,266.411,172.945,267.615z"/>
			<path d="M205.3,267.615l3.461,11.851l3.148-11.024c0.34-1.147,0.588-1.932,0.751-2.356c0.163-0.425,0.469-0.826,0.912-1.204
				c0.446-0.383,1.062-0.574,1.841-0.574c0.787,0,1.41,0.196,1.857,0.574c0.45,0.378,0.761,0.793,0.943,1.246
				c0.182,0.448,0.434,1.223,0.758,2.314l3.15,11.024l3.498-11.851c0.229-0.854,0.42-1.47,0.565-1.862
				c0.143-0.382,0.383-0.719,0.721-1.008c0.338-0.303,0.821-0.438,1.458-0.438c0.635,0,1.185,0.215,1.652,0.653
				c0.469,0.453,0.698,0.961,0.698,1.568c0,0.532-0.201,1.362-0.602,2.464l-4.333,12.713c-0.374,1.069-0.67,1.854-0.875,2.324
				c-0.21,0.477-0.535,0.896-0.985,1.293c-0.45,0.369-1.057,0.565-1.834,0.565c-0.805,0-1.439-0.215-1.893-0.616
				c-0.459-0.393-0.798-0.901-1.024-1.471c-0.219-0.588-0.457-1.339-0.716-2.286l-3.034-10.338l-2.936,10.338
				c-0.387,1.446-0.807,2.524-1.267,3.262c-0.453,0.724-1.25,1.092-2.389,1.092c-0.586,0-1.078-0.103-1.487-0.336
				c-0.406-0.242-0.749-0.551-1.022-0.975c-0.273-0.421-0.511-0.901-0.721-1.499c-0.205-0.578-0.369-1.036-0.483-1.372
				l-4.296-12.703c-0.425-1.19-0.64-2.025-0.64-2.474c0-0.569,0.224-1.088,0.682-1.54c0.455-0.458,1.01-0.682,1.673-0.682
				c0.88,0,1.478,0.252,1.788,0.751C204.616,265.548,204.957,266.411,205.3,267.615z"/>
			<path d="M237.664,267.615l3.46,11.851l3.15-11.024c0.336-1.147,0.588-1.932,0.756-2.356c0.159-0.425,0.467-0.826,0.901-1.204
				c0.438-0.383,1.06-0.574,1.844-0.574c0.779,0,1.409,0.196,1.857,0.574c0.452,0.378,0.765,0.793,0.942,1.246
				c0.173,0.448,0.438,1.223,0.752,2.314l3.149,11.024l3.491-11.851c0.233-0.854,0.42-1.47,0.561-1.862
				c0.145-0.382,0.383-0.719,0.723-1.008c0.341-0.303,0.822-0.438,1.461-0.438c0.626,0,1.177,0.215,1.652,0.653
				c0.472,0.453,0.7,0.961,0.7,1.568c0,0.532-0.201,1.362-0.603,2.464l-4.335,12.713c-0.374,1.069-0.668,1.854-0.878,2.324
				c-0.21,0.477-0.532,0.896-0.979,1.293c-0.458,0.369-1.064,0.565-1.849,0.565c-0.803,0-1.447-0.215-1.891-0.616
				c-0.466-0.393-0.807-0.901-1.026-1.471c-0.22-0.588-0.472-1.339-0.724-2.286l-3.033-10.338l-2.931,10.338
				c-0.393,1.446-0.812,2.524-1.261,3.252c-0.457,0.733-1.25,1.093-2.394,1.093c-0.584,0-1.078-0.107-1.489-0.336
				c-0.401-0.233-0.746-0.551-1.02-0.971c-0.273-0.425-0.511-0.915-0.717-1.494c-0.21-0.578-0.368-1.026-0.487-1.372l-4.296-12.703
				c-0.427-1.195-0.642-2.017-0.642-2.474c0-0.569,0.227-1.088,0.679-1.531c0.455-0.448,1.013-0.686,1.673-0.686
				c0.885,0,1.482,0.247,1.788,0.746C236.98,265.548,237.321,266.411,237.664,267.615z"/>
		</g>
	</g>
</g>
<g>
</g>
<g>
</g>
<g>
</g>
<g>
</g>
<g>
</g>
<g>
</g>
<g>
</g>
<g>
</g>
<g>
</g>
<g>
</g>
<g>
</g>
<g>
</g>
<g>
</g>
<g>
</g>
<g>
</g>
</svg>
