<?xml version="1.0" encoding="utf-8"?>
<!-- Generator: Adobe Illustrator 16.0.0, SVG Export Plug-In . SVG Version: 6.00 Build 0)  -->
<!DOCTYPE svg PUBLIC "-//W3C//DTD SVG 1.1//EN" "http://www.w3.org/Graphics/SVG/1.1/DTD/svg11.dtd">
<svg version="1.1" id="Layer_1" xmlns="http://www.w3.org/2000/svg" xmlns:xlink="http://www.w3.org/1999/xlink" x="0px" y="0px"
	 width="80px" height="80px" viewBox="0 0 100 100" enable-background="new 0 0 100 100" xml:space="preserve">
<g>
	<path fill="#fefefe" d="M74.291,1H26.93c-2.146,0-3.889,1.73-3.889,3.889v89.532c0,2.146,1.758,3.89,3.889,3.89h47.361
		c2.146,0,3.89-1.729,3.89-3.89V4.903C78.181,2.758,76.437,1,74.291,1z M50.611,4.252c1.619,0,2.92,1.301,2.92,2.921
		c0,1.619-1.301,2.92-2.92,2.92c-1.62,0-2.921-1.301-2.921-2.92C47.69,5.553,48.991,4.252,50.611,4.252z M50.764,95.072
		c-2.256,0-4.069-1.813-4.069-4.068c0-2.257,1.813-4.069,4.069-4.069c2.256,0,4.068,1.813,4.068,4.069
		C54.832,93.259,53.006,95.072,50.764,95.072z M73.322,80.484c0,1.08-0.871,1.952-1.95,1.952H29.851
		c-1.079,0-1.951-0.872-1.951-1.952V15.283c0-1.08,0.872-1.952,1.951-1.952h41.521c1.079,0,1.95,0.872,1.95,1.952V80.484z"/>
</g>
</svg>
