<?xml version="1.0" encoding="utf-8"?>
<!-- Generator: Adobe Illustrator 16.0.0, SVG Export Plug-In . SVG Version: 6.00 Build 0)  -->
<!DOCTYPE svg PUBLIC "-//W3C//DTD SVG 1.1//EN" "http://www.w3.org/Graphics/SVG/1.1/DTD/svg11.dtd">
<svg version="1.1" id="Layer_1" xmlns="http://www.w3.org/2000/svg" xmlns:xlink="http://www.w3.org/1999/xlink" x="0px" y="0px"
	 width="75px" height="75px" viewBox="0 0 75 75" enable-background="new 0 0 75 75" xml:space="preserve">
<path fill="none" stroke="#000000" stroke-linecap="round" stroke-linejoin="round" stroke-miterlimit="10" d="M34.722,61.998
	V13.708c0-1.238,1.288-2.542,2.525-2.542H67.78c1.237,0,2.523,1.303,2.523,2.542v48.291c0.848,2.383-1.286,1.694-2.523,1.694H37.248
	C36.01,63.692,34.034,64.646,34.722,61.998z"/>
<polyline fill="none" stroke="#000000" stroke-linecap="round" stroke-linejoin="round" stroke-miterlimit="10" points="
	45.736,62.9 45.736,45.957 59.292,45.957 59.292,62.9 "/>
<line fill="none" stroke="#000000" stroke-linecap="round" stroke-linejoin="round" stroke-miterlimit="10" x1="0.835" y1="63.748" x2="74.54" y2="63.748"/>
<rect x="42.347" y="18.79" fill="none" stroke="#000000" stroke-linecap="round" stroke-linejoin="round" stroke-miterlimit="10" width="5.932" height="5.93"/>
<rect x="56.75" y="18.79" fill="none" stroke="#000000" stroke-linecap="round" stroke-linejoin="round" stroke-miterlimit="10" width="5.929" height="5.93"/>
<rect x="42.347" y="32.345" fill="none" stroke="#000000" stroke-linecap="round" stroke-linejoin="round" stroke-miterlimit="10" width="5.932" height="5.931"/>
<rect x="56.75" y="32.345" fill="none" stroke="#000000" stroke-linecap="round" stroke-linejoin="round" stroke-miterlimit="10" width="5.929" height="5.931"/>
<path fill="none" stroke="#000000" stroke-linecap="round" stroke-linejoin="round" stroke-miterlimit="10" d="M17.847,63.336
	V25.888c0-1.148,0.641-2.079,1.432-2.079h9.849c0.791,0,1.431,0.931,1.431,2.079v37.448"/>
<path fill="none" stroke="#000000" stroke-linecap="round" stroke-linejoin="round" stroke-miterlimit="10" d="M5.269,63.336V38.459
	c0-0.762,0.426-1.381,0.952-1.381h6.542c0.525,0,0.952,0.619,0.952,1.381v24.877"/>
</svg>