<?xml version="1.0" encoding="utf-8"?>
<!-- Generator: Adobe Illustrator 16.0.0, SVG Export Plug-In . SVG Version: 6.00 Build 0)  -->
<!DOCTYPE svg PUBLIC "-//W3C//DTD SVG 1.1//EN" "http://www.w3.org/Graphics/SVG/1.1/DTD/svg11.dtd">
<svg version="1.1" id="Layer_1" xmlns="http://www.w3.org/2000/svg" xmlns:xlink="http://www.w3.org/1999/xlink" x="0px" y="0px"
	 width="75px" height="75px" viewBox="0 0 75 75" enable-background="new 0 0 75 75" xml:space="preserve">
<g>
	<path fill="none" stroke="#231F20" stroke-miterlimit="10" d="M69.896,65.253H6.437c-2.266,0-4.104-1.838-4.104-4.104V19.303
		c0-2.266,1.837-4.104,4.104-4.104h63.458c2.268,0,4.104,1.838,4.104,4.104v41.847C74,63.415,72.163,65.253,69.896,65.253z"/>
	<path fill="none" stroke="#231F20" stroke-miterlimit="10" d="M2.333,30.84c0,2.267,1.837,4.104,4.104,4.104h63.458
		c2.268,0,4.104-1.837,4.104-4.104"/>
	<path fill="none" stroke="#231F20" stroke-linecap="round" stroke-linejoin="round" d="M40.038,30.886
		c1.376,0,2.493,1.117,2.493,2.494v10.631c0,1.377-1.117,2.494-2.493,2.494h-3.743c-1.377,0-2.493-1.117-2.493-2.494V33.38
		c0-1.377,1.116-2.494,2.493-2.494H40.038z"/>
	<path fill="none" stroke="#231F20" stroke-width="0.75" stroke-linecap="round" stroke-linejoin="round" d="M38.663,37.71
		c0.365,0,0.662,0.467,0.662,1.042v4.437c0,0.575-0.297,1.041-0.662,1.041H37.67c-0.365,0-0.661-0.466-0.661-1.041v-4.437
		c0-0.574,0.296-1.042,0.661-1.042H38.663z"/>

	<path fill="none" stroke="#231F20" stroke-linecap="round" stroke-linejoin="round" d="M22.215,14.782
		c0-3.758,2.282-6.801,5.095-6.801h21.714c2.812,0,5.094,3.042,5.094,6.801"/>
</g>
</svg>