<?xml version="1.0" encoding="utf-8"?>
<!-- Generator: Adobe Illustrator 16.0.0, SVG Export Plug-In . SVG Version: 6.00 Build 0)  -->
<!DOCTYPE svg PUBLIC "-//W3C//DTD SVG 1.1//EN" "http://www.w3.org/Graphics/SVG/1.1/DTD/svg11.dtd">
<svg version="1.1" id="Layer_1" xmlns="http://www.w3.org/2000/svg" xmlns:xlink="http://www.w3.org/1999/xlink" x="0px" y="0px"
	 width="100px" height="100px" viewBox="0 0 100 100" enable-background="new 0 0 100 100" xml:space="preserve">
<g>
	<path fill="#F6D376" d="M16.583,66.454c0,0,16.712-46.791,50.97-35.093c0,0,5.014,8.354,11.697,8.354
		c6.685,0,26.737-9.19,11.698-24.231c0,0-49.299-10.026-61.832,7.521C16.583,40.552,4.05,68.962,4.885,76.481
		c0.836,7.521,7.52,10.027,14.205,9.192C19.09,85.674,37.472,84.837,16.583,66.454z"/>
	<path fill="none" stroke="#535876" stroke-width="3" stroke-miterlimit="10" d="M14.599,65.359c0,0-13.405-0.788-11.827,12.617
		c1.577,13.403,10.25,11.039,10.25,11.039s10.251-3.154,11.828-9.463C26.427,73.244,18.542,65.359,14.599,65.359z"/>
	<path fill="none" stroke="#535876" stroke-width="3" stroke-miterlimit="10" d="M82.48,13.076c0,0-13.319,5.008-6.021,17.309
		c7.299,12.299,14.679,6.275,14.679,6.275s8.568-7.467,7.378-14.253C97.327,15.618,86.298,11.379,82.48,13.076z"/>
	<path fill="none" stroke="#535876" stroke-width="3" stroke-miterlimit="10" d="M11.912,64.955c0,0,10.027-59.325,63.504-45.956"/>
</g>
</svg>
