<?xml version="1.0" encoding="utf-8"?>
<!-- Generator: Adobe Illustrator 16.0.0, SVG Export Plug-In . SVG Version: 6.00 Build 0)  -->
<!DOCTYPE svg PUBLIC "-//W3C//DTD SVG 1.1//EN" "http://www.w3.org/Graphics/SVG/1.1/DTD/svg11.dtd">
<svg version="1.1" id="Layer_1" xmlns="http://www.w3.org/2000/svg" xmlns:xlink="http://www.w3.org/1999/xlink" x="0px" y="0px"
	 width="100px" height="100px" viewBox="0 0 100 100" enable-background="new 0 0 100 100" xml:space="preserve">
<g>
	<path fill="#535876" d="M62.475,97.92c-0.126,0-0.37,0-0.495,0c-2.625-0.496-4.997-2.244-6.245-4.625
		c-0.128-0.129-0.128-0.258-0.256-0.371c-0.127-0.256-1.122-2.129-4.002-2.244h-0.115c-0.995,0-1.873,0-2.869,0h-0.138
		c-2.996,0-4.003,2.127-4.003,2.244c-0.126,0.127-0.126,0.256-0.253,0.371c-1.249,2.369-3.62,4.117-6.245,4.625
		c-0.373,0.127-0.752,0.127-1.124,0c-2.37-0.625-4.869-1.504-7.124-2.627c-0.373-0.127-0.624-0.369-0.88-0.623
		c-1.62-2.129-2.372-4.994-1.746-7.623c0-0.125,0-0.256,0.126-0.496c0-0.256,0.498-2.369-1.619-4.244l-0.127-0.127
		c-0.753-0.623-1.504-1.25-2.244-1.873l0,0c-0.997-0.754-2-1.121-3.124-1.121c-0.88,0-1.503,0.254-1.503,0.254
		c-0.126,0.127-0.258,0.127-0.498,0.127c-2.499,0.996-5.493,0.877-7.864-0.498c-0.373-0.125-0.627-0.369-0.752-0.752
		c-1.378-2-2.628-4.115-3.75-6.373c-0.126-0.367-0.253-0.623-0.253-0.994c0-2.752,1.375-5.492,3.491-7.125
		c0.128-0.129,0.255-0.254,0.371-0.254c0.126-0.127,1.874-1.504,1.504-4.371c0,0,0,0,0-0.129c-0.256-0.881-0.371-1.873-0.496-2.869
		c0-0.127,0-0.127,0-0.127c-0.498-2.867-2.868-3.494-2.868-3.494c-0.129,0-0.257-0.125-0.498-0.125
		c-2.625-0.879-4.87-2.998-5.748-5.623C1,46.46,1,46.207,1,45.837c0.256-2.242,0.624-4.625,1.249-6.998
		c0.129-0.37,0.256-0.624,0.498-0.88c1.873-2.242,4.625-3.491,7.364-3.375c0.131,0,0.257,0,0.499,0c0.625,0,2.626-0.127,3.874-2.372
		c0,0,0-0.128,0.128-0.128c0.371-0.752,0.88-1.62,1.503-2.496c0,0,0-0.128,0.13-0.128c1.375-2.5,0.254-4.373,0.126-4.627
		c-0.126-0.125-0.126-0.256-0.256-0.371c-1.503-2.497-1.871-5.492-0.752-8.246c0.129-0.254,0.257-0.624,0.499-0.88
		c1.617-1.618,3.377-3.121,5.25-4.371c0.256-0.256,0.624-0.371,0.88-0.371c2.868-0.623,5.874,0.256,7.993,2.13
		c0.126,0.126,0.254,0.126,0.37,0.254c0,0,1.122,0.994,2.753,0.994c0.496,0,1.122-0.126,1.746-0.255l0,0
		c0.995-0.37,2-0.752,2.87-0.994c2.624-0.997,2.996-3.249,2.996-3.494c0-0.128,0-0.256,0.126-0.373
		c0.371-2.867,2.128-5.492,4.741-6.868c0.256-0.128,0.627-0.254,0.88-0.254c2.498-0.129,4.246-0.129,6.742,0
		c0.371,0,0.625,0.126,0.879,0.254c2.625,1.376,4.373,3.874,4.742,6.742c0,0.126,0.127,0.256,0.127,0.498
		c0,0.254,0.372,2.372,2.994,3.494l0,0c0.997,0.254,2.003,0.624,2.871,0.994l0,0c0.624,0.254,1.247,0.37,1.746,0.37
		c1.746,0,2.753-0.994,2.753-0.994c0.128-0.128,0.257-0.253,0.371-0.253c2.129-1.876,5.124-2.753,7.992-2.132
		c0.371,0.131,0.625,0.256,0.88,0.373c1.874,1.376,3.62,2.868,5.25,4.373c0.256,0.256,0.374,0.496,0.497,0.879
		c0.994,2.753,0.753,5.748-0.75,8.245c0,0.131-0.13,0.256-0.258,0.372c-0.127,0.115-1.247,2.127,0.128,4.626c0,0,0,0.128,0.13,0.128
		c0.494,0.879,0.992,1.618,1.503,2.497c0,0,0,0.128,0.126,0.128c1.249,2.129,3.249,2.37,3.875,2.37c0.127,0,0.37,0,0.498,0
		c2.751-0.125,5.622,1.124,7.365,3.379c0.256,0.253,0.371,0.624,0.498,0.879c0.624,2.244,0.994,4.625,1.248,6.998
		c0,0.371,0,0.624-0.129,0.995c-0.993,2.753-3.121,4.742-5.749,5.621c-0.125,0.127-0.252,0.127-0.496,0.127
		c-0.254,0-2.371,0.752-2.868,3.621v0.127c-0.127,0.994-0.253,2.002-0.495,2.869v0.129c-0.372,2.498,1.505,3.873,1.505,3.873
		c0.126,0.129,0.254,0.256,0.369,0.371c2.128,1.746,3.491,4.371,3.491,7.125c0,0.369-0.127,0.748-0.256,0.994
		c-0.994,2.129-2.243,4.373-3.746,6.373c-0.256,0.254-0.496,0.498-0.752,0.75c-1.375,0.752-2.868,1.123-4.499,1.123l0,0
		c-1.12,0-2.37-0.258-3.376-0.623c-0.126,0-0.255-0.131-0.497-0.131l0,0c0,0-0.625-0.254-1.502-0.254
		c-1.123,0-2.129,0.371-2.997,1.123c0,0,0,0-0.129,0c-0.622,0.625-1.376,1.248-2.245,1.873c0,0-0.126,0-0.126,0.129
		c-1.874,1.617-1.874,3.377-1.746,4.113c0.128,0.258,0.128,0.498,0.128,0.754l0,0c0.496,2.625-0.128,5.365-1.874,7.367
		c-0.255,0.256-0.498,0.496-0.879,0.625c-2.242,0.994-4.742,1.873-7.127,2.627C62.847,97.92,62.603,97.92,62.475,97.92z
		 M32.002,91.293c1.745,0.752,3.492,1.377,5.25,1.873c1.249-0.371,2.244-1.248,2.752-2.371c0.128-0.127,0.128-0.254,0.256-0.496
		c0.994-1.748,3.492-4.246,7.748-4.371c0.127,0,0.127,0,0.127,0h0.129c0.994,0,1.873,0,2.869,0h0.125h0.128
		c4.117,0.125,6.743,2.623,7.749,4.371c0.129,0.127,0.257,0.254,0.257,0.496c0.496,1.121,1.503,2,2.752,2.371
		c1.746-0.496,3.62-1.121,5.25-1.873c0.624-1.121,0.88-2.371,0.497-3.619c0-0.131-0.126-0.371-0.126-0.5
		c-0.371-1.998,0-5.492,3.119-8.373l0.131-0.125l0.127-0.131c0.877-0.621,1.505-1.246,2.242-1.869l0.128-0.131
		c0,0,0.128,0,0.128-0.127c1.748-1.377,3.749-2.129,5.874-2.129c1.25,0,2.246,0.258,2.87,0.5c0.128,0,0.369,0.125,0.497,0.125
		c0.623,0.256,1.249,0.373,1.873,0.373l0,0c0.624,0,1.248-0.129,1.746-0.373c0.997-1.502,2.002-3.121,2.755-4.742
		c-0.128-1.246-0.881-2.494-1.873-3.246c-0.13-0.131-0.258-0.256-0.373-0.373c-1.617-1.377-3.62-4.244-2.994-8.375v-0.125v-0.127
		c0.256-0.883,0.371-1.875,0.495-2.869c0-0.129,0-0.129,0-0.256v-0.127c0.882-4.117,3.748-6.12,5.622-6.872
		c0.128-0.127,0.256-0.127,0.496-0.255c1.25-0.37,2.372-1.249,2.995-2.497c-0.254-1.748-0.495-3.491-0.878-5.125
		c-0.994-0.995-2.243-1.504-3.62-1.376c-0.255,0-0.372,0-0.623,0c-1.378,0-5.126-0.495-7.623-4.498l-0.126-0.128
		c-0.5-0.996-0.999-1.748-1.505-2.625l-0.128-0.127c0,0,0-0.129-0.128-0.129c-2.001-3.747-1.122-7.123-0.127-8.867
		c0.127-0.131,0.127-0.257,0.255-0.499c0.751-1.122,0.997-2.499,0.624-3.874c-1.25-1.122-2.498-2.244-3.875-3.249
		c-1.376-0.128-2.751,0.371-3.748,1.247c-0.125,0.128-0.252,0.257-0.496,0.373c-0.127,0.879-1.999,2.127-4.869,2.127
		c-0.995,0-2.129-0.126-3.122-0.496h-0.128h-0.128c-0.878-0.371-1.873-0.752-2.753-0.994h-0.129c0,0,0,0-0.125,0
		c-3.875-1.505-5.494-4.744-5.875-6.745c0-0.126-0.13-0.371-0.13-0.496c-0.126-1.375-0.879-2.624-1.998-3.376
		c-1.875-0.131-3.122-0.131-5,0c-1.119,0.752-1.871,2.001-2,3.376c0,0.126,0,0.371-0.125,0.496c-0.373,2.001-1.875,5.25-5.875,6.745
		c0,0,0,0-0.128,0h-0.128c-0.879,0.251-1.873,0.623-2.751,0.994h-0.126h-0.129c-0.994,0.371-2,0.496-3.123,0.496
		c-2.868,0-4.742-1.248-5.62-2c-0.131-0.126-0.258-0.256-0.498-0.371c-0.997-0.995-2.372-1.503-3.749-1.249
		c-1.376,0.997-2.625,2.13-3.875,3.249c-0.37,1.376-0.128,2.753,0.625,3.875c0.128,0.126,0.128,0.255,0.256,0.496
		c0.996,1.747,1.873,5.25-0.128,8.872v0.127l-0.128,0.129c-0.498,0.877-0.994,1.617-1.502,2.496c0,0.128-0.131,0.128-0.131,0.254
		c-2.495,4.001-6.241,4.499-7.619,4.499c-0.129,0-0.371,0-0.499,0c-1.375-0.128-2.624,0.371-3.619,1.378
		c-0.371,1.746-0.752,3.491-0.88,5.124c0.625,1.249,1.618,2.127,2.996,2.497c0.128,0,0.37,0.127,0.498,0.255
		c1.873,0.752,4.742,2.752,5.62,6.871v0.125c0,0.129,0,0.129,0,0.258c0.128,0.994,0.256,1.871,0.499,2.869v0.125v0.129
		c0.623,4.117-1.376,6.998-2.995,8.373c-0.129,0.129-0.257,0.256-0.373,0.371c-1.122,0.754-1.748,2.002-1.874,3.248
		c0.879,1.621,1.748,3.252,2.753,4.742c1.122,0.5,2.497,0.5,3.748-0.127c0.125-0.125,0.37-0.125,0.497-0.125
		c0.624-0.258,1.619-0.5,2.868-0.5c2.129,0,4.118,0.752,5.875,2.129c0,0,0,0,0.127,0c0.128,0,0.128,0.127,0.256,0.127
		c0.624,0.625,1.375,1.248,2.244,1.873l0.127,0.127l0.128,0.127c3.123,2.756,3.494,6.375,3.123,8.375c0,0.127,0,0.371-0.126,0.496
		C31.122,88.922,31.376,90.172,32.002,91.293z M49.858,74.813c-13.487,0-24.358-10.986-24.358-24.358
		c0-13.371,10.871-24.484,24.358-24.484c13.487,0,24.356,10.987,24.356,24.356S63.345,74.813,49.858,74.813z M49.858,30.584
		c-10.872,0-19.856,8.872-19.856,19.857c0,10.988,8.987,19.744,19.856,19.744c10.872,0,19.859-8.871,19.859-19.857
		C69.718,39.34,60.73,30.584,49.858,30.584z"/>
</g>
</svg>
