<?xml version="1.0" encoding="utf-8"?>
<!-- Generator: Adobe Illustrator 16.0.0, SVG Export Plug-In . SVG Version: 6.00 Build 0)  -->
<!DOCTYPE svg PUBLIC "-//W3C//DTD SVG 1.1//EN" "http://www.w3.org/Graphics/SVG/1.1/DTD/svg11.dtd">
<svg version="1.1" id="Layer_1" xmlns="http://www.w3.org/2000/svg" xmlns:xlink="http://www.w3.org/1999/xlink" x="0px" y="0px"
	 width="100px" height="100px" viewBox="0 0 100 100" enable-background="new 0 0 100 100" xml:space="preserve">
<path fill="#F6D376" d="M92.329,84.014c0,0,7.086-15.354,5.903-21.259c-1.18-5.904-21.258-41.336-48.42-41.336
	c0,0,3.542-11.811-7.087-11.811c-10.627,0-36.614,29.525-40.156,43.7C-0.976,67.479,3.75,86.376,3.75,86.376l82.67,3.544
	L92.329,84.014z"/>
<path fill="none" stroke="#535876" stroke-width="3" stroke-miterlimit="10" d="M75.504,79.716c0,0-2.237-28.174-11.173-45.071
	c-8.938-16.903-11.174,67.61-30.166-7.512c0,0-10.053,26.295-10.053,39.439"/>
</svg>
