<?xml version="1.0" encoding="utf-8"?>
<!-- Generator: Adobe Illustrator 16.0.0, SVG Export Plug-In . SVG Version: 6.00 Build 0)  -->
<!DOCTYPE svg PUBLIC "-//W3C//DTD SVG 1.1//EN" "http://www.w3.org/Graphics/SVG/1.1/DTD/svg11.dtd">
<svg version="1.1" id="Layer_1" xmlns="http://www.w3.org/2000/svg" xmlns:xlink="http://www.w3.org/1999/xlink" x="0px" y="0px"
	 width="100px" height="100px" viewBox="0 0 100 100" enable-background="new 0 0 100 100" xml:space="preserve">
<g>
	<path fill="#F6D376" d="M80.351,81.384c0,0,15.985-4.918,17.218-11.066c1.229-6.149-1.229-22.138-1.229-22.138
		s-8.609-4.922-23.365-18.45C58.215,16.204,33.617,13.743,25.007,17.433C16.396,21.121,2.866,33.419,1.638,42.03
		c-1.227,8.61,6.15,19.677,6.15,19.677l-6.15,4.918c0,0,2.461,15.991,8.61,17.221C16.396,85.073,80.351,81.384,80.351,81.384z"/>
	<path fill="none" stroke="#535876" stroke-width="3" stroke-miterlimit="10" d="M74.458,76.75c0,0-2.154-27.138-10.763-43.416
		c-8.608-16.283-10.763,65.127-29.057-7.236c0,0-9.683,25.329-9.683,37.991"/>
</g>
</svg>
