<?xml version="1.0" encoding="utf-8"?>
<!-- Generator: Adobe Illustrator 16.0.0, SVG Export Plug-In . SVG Version: 6.00 Build 0)  -->
<!DOCTYPE svg PUBLIC "-//W3C//DTD SVG 1.1//EN" "http://www.w3.org/Graphics/SVG/1.1/DTD/svg11.dtd">
<svg version="1.1" id="Layer_1" xmlns="http://www.w3.org/2000/svg" xmlns:xlink="http://www.w3.org/1999/xlink" x="0px" y="0px"
	 width="10px" height="10px" viewBox="0 0 100 82.999" enable-background="new 0 0 100 82.999" xml:space="preserve">
<g>
	<path d="M29.72,1.094l12.137,9.708C28.913,19.701,18.8,35.479,17.99,48.424c0.405-0.405,3.235-0.811,4.45-0.811
		c9.305,0,16.182,7.283,16.182,16.992c0,9.303-7.282,17.394-16.992,17.394C10.708,81.999,1,72.696,1,56.108
		C1,33.456,14.35,12.421,29.72,1.094z M87.163,1.094l12.139,9.708c-12.945,8.9-23.062,24.677-23.867,37.623
		c0.402-0.405,2.828-0.811,4.448-0.811c9.303,0,16.18,7.283,16.18,16.992c0,9.303-7.28,17.394-17.393,17.394
		c-10.923,0-20.226-9.303-20.226-25.891C58.444,33.456,71.39,12.421,87.163,1.094z"/>
</g>
</svg>
