<?xml version="1.0" encoding="utf-8"?>
<!-- Generator: Adobe Illustrator 16.0.0, SVG Export Plug-In . SVG Version: 6.00 Build 0)  -->
<!DOCTYPE svg PUBLIC "-//W3C//DTD SVG 1.1//EN" "http://www.w3.org/Graphics/SVG/1.1/DTD/svg11.dtd">
<svg version="1.1" id="Layer_1" xmlns="http://www.w3.org/2000/svg" xmlns:xlink="http://www.w3.org/1999/xlink" x="0px" y="0px"
	 width="100px" height="75px" viewBox="0 0 100 100" enable-background="new 0 0 100 100" xml:space="preserve">
<g>
	<g>
		<path fill="none" d="M87.836,28.061c-4.401,2.487-18.365,9.437-21.234,10.968c-0.595,0.296-0.964,0.706-1.08,0.941
			c-0.441,0.198-0.998,0.458-1.548,0.726c-0.439,0.214-0.873,0.436-1.236,0.635c-0.279,0.152-0.511,0.287-0.69,0.412
			c-1.213-0.28-5.463-1.672-7.775-2.804c-1.073-0.522-1.903-0.729-2.613-0.729c-0.995,0-1.69,0.405-2.374,0.726
			c-0.323,0.156-0.731,0.319-1.182,0.482c-0.426-0.027-0.874-0.055-1.334-0.08c-1.639-0.088-3.395-0.152-4.513-0.184
			c-2.187-0.057-5.261-0.019-7.128-0.69c-0.02-0.52-0.176-1.055-0.682-1.326c-0.159-0.077-0.52-0.22-1.04-0.422
			c-1.543-0.593-4.325-1.61-5.313-1.939c-0.2-0.413-0.579-0.741-1.214-0.979c-1.529-0.574-11.54-4.655-15.366-6.631
			c0,0-10.179,22.526-10.179,26.989c1.658,0.702,14.131,6.039,14.897,6.421c0.766,0.384,1.083,0.129,1.466-0.382
			c1.053-1.507,2.272-3.814,3.498-6.399c0.628,0.24,1.417,0.546,2.192,0.849c1.391,0.545,2.771,1.106,3.066,1.254
			c0.249,0.126,0.5,0.188,0.74,0.188c0.001,0,0.001,0,0.002,0c0.557,0,0.986-0.32,1.261-0.677l0.006-0.009l0.006-0.01
			c0.338-0.49,0.675-1.048,1.009-1.658c1.034,1.008,2.097,1.87,3.108,2.608c-0.042,0.053-0.083,0.104-0.119,0.156l0,0
			c-0.307,0.422-0.434,0.894-0.433,1.339c0.001,0.588,0.208,1.131,0.473,1.57c0.268,0.441,0.584,0.784,0.893,0.983
			c0.412,0.266,0.843,0.382,1.246,0.382c0.002,0,0.004,0,0.006,0c0.154-0.001,0.303-0.019,0.447-0.047
			c-0.056,0.184-0.085,0.374-0.084,0.562c0.005,0.789,0.423,1.544,0.997,2.129c0.58,0.579,1.334,1.003,2.129,1.008
			c0,0,0.001,0,0.002,0c0.307,0,0.618-0.069,0.905-0.223c0.04-0.022,0.08-0.048,0.121-0.069c-0.009,0.066-0.014,0.132-0.014,0.2
			c0.007,0.713,0.443,1.316,0.993,1.751c0.555,0.434,1.253,0.72,1.929,0.724c0.234,0,0.467-0.037,0.688-0.122
			c-0.008,0.062-0.01,0.123-0.01,0.184c0,0.119,0.013,0.244,0.052,0.362c0.13,0.416,0.316,0.829,0.688,1.152
			c0.371,0.321,0.889,0.52,1.615,0.61c0.149,0.017,0.296,0.026,0.44,0.026c1.197-0.004,2.144-0.586,2.764-1.061
			c0.93,0.409,1.879,0.741,2.442,0.897c0.187,0.047,0.377,0.069,0.555,0.069c0.824-0.009,1.49-0.447,1.898-0.914
			c0.31,0.052,0.612,0.077,0.904,0.077c0.982-0.002,1.846-0.271,2.51-0.649c0.535-0.307,0.948-0.674,1.196-1.07
			c0.4,0.075,0.761,0.106,1.087,0.106c0.945,0.001,1.578-0.278,1.937-0.556c0.178-0.14,0.479-0.315,0.726-0.698
			c0.214-0.329,0.377-0.782,0.469-1.474c1.306-0.1,2.104-0.551,2.565-1.102c0.495-0.588,0.587-1.245,0.65-1.496
			c0.046-0.185,0.093-0.349,0.096-0.555c0.004-0.213-0.076-0.439-0.214-0.634c-0.068-0.103-0.154-0.2-0.254-0.311
			c0.586-0.356,1.387-0.895,2.074-1.387c0.21,0.401,0.541,0.813,0.97,1.211c0.336,0.292,0.809,0.408,1.382,0.517
			c0.571,0.094,1.228,0.14,1.851,0.14c0.484,0,0.949-0.027,1.337-0.085c0.626-0.093,1.368-0.359,2.073-0.652
			c0.403,0.98,2.346,3.229,2.925,3.686c0.455,0.363,1.194,1.246,2.007,0.625c0.813-0.624,17.88-9.91,19.504-10.293
			C99,49.157,87.836,28.061,87.836,28.061z"/>
	</g>
	<path fill="#231F20" d="M33.398,60.391c-0.308-0.199-0.625-0.542-0.893-0.983l0,0c-0.265-0.439-0.472-0.982-0.473-1.57l0,0
		c-0.001-0.445,0.126-0.917,0.433-1.339l0,0l0,0c0.324-0.448,0.833-0.9,1.372-1.266l0,0c0.546-0.359,1.087-0.635,1.612-0.647l0,0
		c0.014,0,0.036,0,0.053,0.002l0,0c0.569,0.03,1.183,0.287,1.689,0.73l0,0c0.502,0.44,0.892,1.094,0.892,1.885l0,0
		c0,0.807-0.404,1.695-1.345,2.601l0,0c-0.469,0.449-1.188,0.963-2.088,0.97l0,0c-0.002,0-0.004,0-0.006,0l0,0
		C34.241,60.772,33.81,60.656,33.398,60.391L33.398,60.391z M33.086,56.944c-0.21,0.292-0.288,0.588-0.289,0.893l0,0
		c-0.001,0.402,0.151,0.824,0.363,1.179l0,0c0.209,0.349,0.486,0.628,0.651,0.732l0,0c0.301,0.189,0.574,0.26,0.839,0.261l0,0
		c0.58,0.005,1.167-0.377,1.559-0.756l0,0c0.844-0.818,1.111-1.51,1.111-2.051l0,0c-0.001-0.532-0.257-0.977-0.635-1.311l0,0
		c-0.374-0.334-0.868-0.53-1.227-0.541l0,0c0,0,0,0-0.009,0l0,0c-0.206-0.011-0.717,0.195-1.187,0.518l0,0
		c-0.474,0.315-0.937,0.741-1.177,1.074l0,0l-0.31-0.22L33.086,56.944L33.086,56.944z"/>
	<path fill="#231F20" d="M38.138,64.424c-0.794-0.005-1.549-0.429-2.129-1.008l0,0c-0.574-0.585-0.992-1.34-0.997-2.129l0,0
		c-0.002-0.421,0.133-0.854,0.435-1.209l0,0c0.749-0.883,1.867-1.755,2.718-2.061l0,0c0.258-0.089,0.545-0.126,0.847-0.127l0,0
		c0.797,0.013,1.703,0.232,2.241,0.807l0,0c0.398,0.453,0.883,1.187,0.892,2.041l0,0c0.004,0.418-0.139,0.868-0.479,1.244l0,0
		c-0.837,0.934-1.601,1.669-2.622,2.219l0,0c-0.287,0.153-0.598,0.223-0.905,0.223l0,0C38.14,64.424,38.139,64.424,38.138,64.424
		L38.138,64.424z M36.033,60.569c-0.179,0.217-0.253,0.449-0.255,0.718l0,0c-0.004,0.497,0.303,1.118,0.775,1.59l0,0
		c0.469,0.477,1.084,0.787,1.586,0.782l0,0c0.195-0.002,0.376-0.042,0.546-0.136l0,0c0.907-0.488,1.594-1.138,2.413-2.05l0,0
		c0.211-0.239,0.282-0.473,0.285-0.735l0,0c0.011-0.527-0.372-1.175-0.699-1.53l0,0c-0.249-0.305-1.037-0.563-1.67-0.551l0,0
		c-0.237,0-0.452,0.032-0.596,0.084l0,0C37.801,58.944,36.674,59.791,36.033,60.569L36.033,60.569l-0.293-0.245L36.033,60.569
		L36.033,60.569z"/>
	<path fill="#231F20" d="M40.146,66.083c-0.55-0.435-0.986-1.038-0.993-1.751l0,0c-0.001-0.288,0.079-0.587,0.246-0.856l0,0l0,0
		c0.487-0.803,1.421-1.754,2.059-2.429l0,0c0.536-0.557,1.269-0.974,2.061-0.979l0,0c0.263,0,0.531,0.051,0.788,0.16l0,0
		c0.751,0.326,1.529,1.101,1.548,2.132l0,0c0,0.305-0.078,0.624-0.248,0.923l0,0c-0.619,1.092-1.47,2.636-2.632,3.307l0,0
		c-0.278,0.153-0.588,0.218-0.898,0.218l0,0C41.397,66.803,40.701,66.517,40.146,66.083L40.146,66.083z M40.052,63.869
		c-0.098,0.161-0.133,0.311-0.134,0.463l0,0c-0.007,0.368,0.261,0.809,0.7,1.148l0,0c0.43,0.343,1.006,0.563,1.457,0.561l0,0
		c0.206,0,0.383-0.043,0.524-0.119l0,0c0.86-0.468,1.748-1.934,2.34-3.011l0,0c0.108-0.194,0.15-0.377,0.15-0.552l0,0
		c0.018-0.58-0.557-1.215-1.083-1.428l0,0c-0.158-0.068-0.319-0.1-0.489-0.1l0,0c-0.505-0.006-1.085,0.299-1.507,0.742l0,0
		C41.374,62.244,40.453,63.201,40.052,63.869L40.052,63.869l-0.328-0.197L40.052,63.869L40.052,63.869z"/>
	<path fill="#231F20" d="M45.106,68.993c-0.726-0.091-1.244-0.289-1.615-0.61l0,0c-0.372-0.323-0.558-0.736-0.688-1.152l0,0
		l0.364-0.114l0.364-0.118c0.116,0.367,0.243,0.617,0.46,0.806l0,0c0.22,0.189,0.569,0.352,1.206,0.428l0,0
		c0.12,0.016,0.236,0.022,0.348,0.022l0,0c0.763,0.003,1.443-0.316,1.971-0.664l0,0c-0.093-0.283-0.493-0.453-0.667-0.554
		l-0.114,0.138l-0.46,0.436l0.284-0.874c0.148-0.507,0.206-0.905,0.204-1.217l0,0c-0.012-0.737-0.27-0.984-0.533-1.183l0,0
		c-0.158-0.114-0.366-0.185-0.582-0.185l0,0c-0.285,0.004-0.597,0.11-0.92,0.475l0,0c-0.279,0.32-0.596,0.748-0.832,1.17l0,0
		c-0.239,0.416-0.389,0.841-0.383,1.072l0,0c0,0.058,0.007,0.099,0.018,0.13l0,0l-0.364,0.118l-0.364,0.114
		c-0.039-0.118-0.052-0.243-0.052-0.362l0,0c0.003-0.481,0.214-0.966,0.48-1.446l0,0c0.269-0.478,0.61-0.941,0.924-1.301l0,0
		c0.439-0.508,0.988-0.738,1.495-0.733l0,0c0.386,0,0.739,0.123,1.021,0.322l0,0c0.41,0.271,0.871,0.851,0.859,1.809l0,0
		c-0.001,0.331-0.049,0.702-0.155,1.137l0,0c0.298,0.16,0.716,0.372,1.033,0.507l0,0l0.588,0.245l-0.493,0.403
		c-0.608,0.492-1.632,1.205-2.958,1.209l0,0C45.402,69.02,45.256,69.01,45.106,68.993L45.106,68.993z"/>
	<path fill="#231F20" d="M53.11,67.621c-1.943-0.396-4.563-2.595-6.354-4.571l0,0c-0.069-0.076-0.065-0.199,0.014-0.271l0,0
		c0.079-0.069,0.199-0.063,0.27,0.014l0,0c1.746,1.945,4.39,4.117,6.143,4.452l0,0l0,0c0.105,0.021,0.173,0.123,0.153,0.224l0,0
		c-0.019,0.094-0.1,0.156-0.188,0.156l0,0C53.137,67.625,53.123,67.624,53.11,67.621L53.11,67.621z"/>
	<path fill="#231F20" d="M57.776,65.99c-1.685-0.351-4.935-3.002-7.319-5.788l0,0c-0.066-0.083-0.056-0.201,0.021-0.271l0,0
		c0.084-0.07,0.203-0.06,0.271,0.022l0,0c2.32,2.745,5.636,5.385,7.1,5.662l0,0l0,0c0.106,0.021,0.172,0.119,0.151,0.226l0,0
		c-0.017,0.093-0.099,0.152-0.187,0.152l0,0C57.801,65.994,57.79,65.992,57.776,65.99L57.776,65.99z"/>
	<path fill="#231F20" d="M61.772,63.495c-1.261-0.545-3.697-2.537-4.488-3.323l0,0c-0.396-0.395-1.295-1.44-2.139-2.498l0,0
		c-0.84-1.065-1.604-2.086-1.759-2.564l0,0c-0.031-0.1,0.025-0.208,0.128-0.238l0,0c0.101-0.028,0.206,0.026,0.237,0.129l0,0
		c0.085,0.313,0.865,1.4,1.694,2.435l0,0c0.833,1.048,1.738,2.099,2.108,2.467l0,0c0.74,0.744,3.223,2.756,4.37,3.244l0,0l0,0
		c0.098,0.044,0.144,0.152,0.1,0.251l0,0c-0.027,0.073-0.101,0.115-0.174,0.115l0,0C61.824,63.512,61.799,63.507,61.772,63.495
		L61.772,63.495z"/>
	<g>
		<path fill="#231F20" d="M34.73,57.435c-0.308-0.338-0.654-0.63-0.671-1.064l0,0c0.002-0.329,0.248-0.6,0.706-0.84l0,0l0,0
			c0.313-0.168,0.63-0.24,0.93-0.24l0,0c0.947,0.004,1.712,0.725,1.721,1.537l0,0c0.003,0.404-0.21,0.819-0.658,1.115l0,0
			c-0.296,0.196-0.56,0.295-0.81,0.295l0,0C35.378,58.224,35.065,57.783,34.73,57.435L34.73,57.435z M34.947,55.873
			c-0.422,0.225-0.504,0.394-0.5,0.497l0,0c-0.019,0.163,0.236,0.464,0.565,0.799l0,0c0.355,0.387,0.62,0.688,0.935,0.678l0,0
			c0.147,0,0.336-0.054,0.594-0.227l0,0c0.358-0.244,0.482-0.52,0.485-0.793l0,0c0-0.551-0.581-1.148-1.332-1.149l0,0
			C35.458,55.678,35.206,55.735,34.947,55.873L34.947,55.873l-0.091-0.172L34.947,55.873L34.947,55.873z"/>
	</g>
	<g>
		<path fill="#231F20" d="M38.372,61.152c-0.42-0.486-0.765-1.002-0.78-1.423l0,0c0-0.016,0-0.038,0.003-0.054l0,0
			c0.054-0.286,0.28-0.416,0.521-0.599l0,0c0.245-0.168,0.53-0.324,0.724-0.438l0,0c0.273-0.154,0.548-0.229,0.807-0.229l0,0
			c1.007,0.018,1.667,1.013,1.675,1.843l0,0c0,0.228-0.051,0.449-0.174,0.641l0,0l-0.162-0.106l0.162,0.106
			c-0.265,0.394-0.865,0.924-1.122,1.087l0,0c-0.087,0.051-0.185,0.068-0.276,0.068l0,0C39.28,62.034,38.805,61.619,38.372,61.152
			L38.372,61.152z M39.033,58.979c-0.34,0.184-0.949,0.546-1.041,0.714l0,0c-0.012,0.019-0.011,0.021-0.012,0.034l0,0l0,0.002
			c-0.016,0.185,0.287,0.734,0.681,1.163l0,0c0.383,0.443,0.889,0.791,1.087,0.772l0,0c0.039-0.001,0.059-0.008,0.074-0.019l0,0
			c0.17-0.094,0.81-0.661,0.997-0.963l0,0l0,0c0.075-0.114,0.112-0.262,0.112-0.43l0,0c0.001-0.314-0.138-0.694-0.375-0.977l0,0
			c-0.236-0.287-0.554-0.477-0.912-0.477l0,0C39.458,58.801,39.255,58.85,39.033,58.979L39.033,58.979z"/>
	</g>
	<g>
		<path fill="#231F20" d="M42.503,63.511c-0.364-0.396-0.82-0.713-0.842-1.232l0,0c0-0.277,0.164-0.541,0.477-0.797l0,0l0,0
			c0.616-0.511,1.198-0.737,1.701-0.737l0,0c0.375-0.002,0.701,0.13,0.929,0.364l0,0c0.228,0.231,0.35,0.56,0.35,0.918l0,0
			c0,0.437-0.175,0.925-0.554,1.4l0,0c-0.397,0.495-0.702,0.741-1.058,0.749l0,0C43.09,64.16,42.837,63.848,42.503,63.511
			L42.503,63.511z M42.383,61.78c-0.27,0.224-0.333,0.383-0.333,0.498l0,0c-0.022,0.222,0.328,0.559,0.732,0.962l0,0
			c0.335,0.358,0.571,0.561,0.724,0.545l0,0c0.132,0.008,0.377-0.124,0.753-0.6l0,0c0.335-0.425,0.471-0.83,0.471-1.159l0,0
			c-0.01-0.541-0.329-0.886-0.891-0.896l0,0C43.457,61.13,42.95,61.31,42.383,61.78L42.383,61.78l-0.122-0.149L42.383,61.78
			L42.383,61.78z"/>
	</g>
	<g>
		<path fill="#231F20" d="M45.533,65.957l0.122-0.149L45.533,65.957c-0.483-0.393-0.706-0.729-0.708-1.073l0,0
			c0.006-0.403,0.292-0.662,0.549-0.895l0,0c0.102-0.092,0.235-0.13,0.359-0.13l0,0c0.573,0.033,1.238,0.62,1.274,1.285l0,0
			c0,0.072-0.012,0.147-0.034,0.222l0,0c-0.137,0.43-0.492,0.773-0.931,0.78l0,0C45.867,66.146,45.688,66.084,45.533,65.957
			L45.533,65.957z M46.042,65.756c0.208,0.007,0.468-0.201,0.559-0.505l0,0c0.011-0.034,0.016-0.067,0.018-0.106l0,0
			c0.003-0.173-0.126-0.415-0.318-0.599l0,0c-0.19-0.185-0.438-0.303-0.567-0.299l0,0c-0.053,0.001-0.078,0.012-0.1,0.031l0,0
			c-0.262,0.226-0.428,0.431-0.421,0.605l0,0c-0.004,0.15,0.115,0.405,0.565,0.772l0,0l0,0
			C45.87,65.729,45.955,65.756,46.042,65.756L46.042,65.756z"/>
	</g>
	<g>
		<path fill="#231F20" d="M11.51,27.168c3.827,1.976,13.837,6.057,15.366,6.631c1.531,0.573,1.595,1.658,1.148,3.252
			c-0.445,1.593-6.503,17.662-10.33,23.145c-0.255,0.34-0.481,0.568-0.831,0.568c-0.175,0-0.38-0.058-0.636-0.187
			c-0.766-0.382-13.239-5.719-14.897-6.421C1.332,49.694,11.51,27.168,11.51,27.168 M11.963,28.243
			C9.457,33.396,3.662,46.746,2.11,53.641c0.346,0.146,10.827,4.681,11.194,4.834c1.39,0.577,2.705,1.125,3.272,1.409
			c0.16,0.082,0.242,0.099,0.274,0.103c0.027-0.02,0.089-0.079,0.215-0.244c3.697-5.309,9.748-21.243,10.211-22.901
			c0.451-1.608,0.171-1.999-0.672-2.314c-1.332-0.5-9.856-3.961-14.32-6.107L11.963,28.243z"/>
	</g>
	<path fill="#231F20" d="M63.988,59.846c-0.946-0.931-4.639-4.756-6.12-6.367l0,0c-2.039-0.283-3.844-1.363-5.158-2.748l0,0
		c-1.213-1.278-2.021-2.818-2.181-4.285l0,0c-0.202,0.035-0.437,0.067-0.692,0.098l0,0c-0.487,0.054-1.024,0.095-1.456,0.095l0,0
		c-0.123-0.001-0.234-0.003-0.339-0.01l0,0c-0.274,0.672-0.766,1.471-1.331,2.208l0,0c-0.66,0.853-1.384,1.603-2.081,1.923l0,0
		c-0.458,0.202-1.009,0.317-1.562,0.318l0,0c-0.512-0.001-1.034-0.101-1.482-0.355l0,0c-0.447-0.252-0.814-0.688-0.942-1.273l0,0
		l-0.01-0.042v-0.041c0.004-0.52,0.188-1.065,0.386-1.594l0,0c0.198-0.526,0.418-1.031,0.513-1.359l0,0
		c0.196-0.664,0.396-2.569,0.489-3.292l0,0c0.053-0.387,0.169-0.904,0.52-1.39l0,0c0.35-0.488,0.938-0.921,1.832-1.16l0,0
		c1.545-0.415,3.75-1.083,4.908-1.634l0,0c0.685-0.321,1.38-0.726,2.375-0.726l0,0c0.71,0,1.54,0.206,2.613,0.729l0,0
		c2.427,1.188,6.996,2.666,7.937,2.836l0,0l0.154,0.03l0.089,0.127c1.819,2.601,4.258,7.43,5.8,15.064l0,0l0.042,0.215l-0.16,0.144
		c-0.695,0.621-2.831,2.079-3.69,2.556l0,0l-0.249,0.137L63.988,59.846L63.988,59.846z M51.265,45.973
		c0.011,1.331,0.76,2.929,2,4.231l0,0c1.239,1.305,2.952,2.309,4.837,2.534l0,0l0.142,0.018l0.095,0.104
		c1.309,1.426,4.78,5.03,5.982,6.237l0,0c0.832-0.498,2.46-1.615,3.136-2.171l0,0C65.958,49.635,63.635,45,61.909,42.494l0,0
		c-1.317-0.299-5.537-1.684-7.974-2.868l0,0c-1.007-0.49-1.721-0.651-2.277-0.65l0,0c-0.774-0.001-1.317,0.306-2.046,0.652l0,0
		c-1.262,0.596-3.466,1.258-5.036,1.682l0,0c-0.763,0.207-1.167,0.532-1.414,0.869l0,0c-0.246,0.339-0.337,0.715-0.381,1.044l0,0
		c-0.098,0.713-0.279,2.586-0.514,3.403l0,0c-0.122,0.414-0.344,0.912-0.532,1.415l0,0c-0.184,0.478-0.328,0.96-0.338,1.279l0,0
		c0.094,0.353,0.285,0.573,0.569,0.738l0,0c0.292,0.169,0.688,0.255,1.101,0.253l0,0c0.445,0.002,0.906-0.099,1.251-0.253l0,0
		c0.452-0.189,1.179-0.89,1.785-1.688l0,0c0.613-0.797,1.143-1.709,1.321-2.287l0,0l0.118-0.37l0.368,0.123
		c0.021,0.012,0.228,0.039,0.469,0.036l0,0c0.384,0,0.903-0.038,1.37-0.091l0,0c0.457-0.052,0.885-0.126,1.018-0.17l0,0l0.491-0.152
		L51.265,45.973L51.265,45.973z"/>
	<path fill="#231F20" d="M57.231,53.347l0.171-0.721c1.038,0.317,3.953,0.223,3.953,0.223c-0.766,0.621-2.289,0.692-2.618,0.692l0,0
		c-0.005,0-0.009,0-0.013,0l0,0C58.249,53.541,57.814,53.493,57.231,53.347L57.231,53.347z M57.231,53.347L57.231,53.347
		L57.231,53.347L57.231,53.347L57.231,53.347L57.231,53.347z"/>
	<g>
		<path fill="#231F20" d="M41.51,49.335c-0.308-0.124-0.346-0.432-0.355-0.75l0,0c0.001-0.523,0.189-1.228,0.588-1.794l0,0l0,0
			c0.451-0.67,0.887-0.749,1.352-0.798l0,0c0.113-0.016,0.256-0.027,0.406-0.027l0,0c0.266,0.001,0.566,0.03,0.825,0.133l0,0
			c0.253,0.095,0.5,0.32,0.497,0.655l0,0c0,0.012,0,0.021-0.001,0.04l0,0c-0.047,0.671-0.294,1.956-1.169,2.366l0,0
			c-0.449,0.196-0.959,0.266-1.393,0.268l0,0C41.963,49.425,41.704,49.393,41.51,49.335L41.51,49.335z M42.259,49.038
			c0.39,0,0.857-0.067,1.238-0.235l0,0c0.593-0.224,0.92-1.427,0.937-2.021l0,0c0-0.013,0-0.022,0-0.029l0,0
			c-0.004-0.14-0.072-0.211-0.255-0.294l0,0c-0.18-0.074-0.441-0.106-0.678-0.106l0,0c-0.132,0-0.257,0.011-0.355,0.024l0,0
			c-0.492,0.077-0.648,0.046-1.085,0.637l0,0l-0.16-0.111l0.158,0.111c-0.344,0.484-0.519,1.142-0.518,1.571l0,0
			c0,0.134,0.019,0.246,0.045,0.31l0,0c0.025,0.07,0.038,0.07,0.038,0.068l0,0C41.762,49.008,41.994,49.038,42.259,49.038
			L42.259,49.038z"/>
	</g>
	<path fill="#231F20" d="M68.223,56.861c0.148,0.625,0.459,2.37,0.015,2.449c-0.448,0.08-1.125-1.248-0.967-1.536
		C67.433,57.486,68.223,56.861,68.223,56.861z"/>
	<g>
		<path fill="#231F20" d="M87.836,28.061c0,0,11.164,21.096,11.164,25.351c-1.624,0.383-18.69,9.669-19.504,10.293
			c-0.202,0.152-0.399,0.215-0.587,0.215c-0.576,0-1.079-0.566-1.42-0.84c-0.609-0.478-2.709-2.924-2.975-3.814
			c-0.157-0.535,0.582-0.871,1.156-1.157c0.574-0.288,0.236-0.671-1.007-3.777c-1.244-3.109-6.598-11.86-7.314-13.008
			c-0.604-0.964-1.14-1.22-1.606-1.22c-0.088,0-0.175,0.01-0.259,0.025c-0.046-0.144,0.351-0.717,1.117-1.099
			C69.471,37.498,83.435,30.548,87.836,28.061 M87.513,29.109c-3.273,1.775-9.543,4.995-14.333,7.424
			c-2.796,1.419-5.213,2.645-6.215,3.179l-0.009,0.005l-0.007,0.003c0.376,0.264,0.729,0.659,1.06,1.19
			c0.058,0.095,6.009,9.708,7.376,13.13c0.252,0.632,0.469,1.148,0.647,1.576c0.727,1.752,1.089,2.633-0.012,3.185l-0.095,0.047
			c-0.169,0.084-0.457,0.226-0.609,0.339c0.373,0.785,2.095,2.842,2.653,3.284c0.077,0.061,0.161,0.135,0.254,0.215
			c0.18,0.159,0.519,0.456,0.686,0.456c0.035,0,0.084-0.03,0.115-0.059c0.835-0.634,16.965-9.414,19.197-10.237
			C97.643,47.977,90.374,34.021,87.513,29.109L87.513,29.109z"/>
	</g>
	<path fill="#231F20" d="M50.884,45.977c-0.138,0.043-0.391,0.09-0.691,0.133c0.238,0.103,0.481,0.215,0.727,0.34
		C50.901,46.292,50.887,46.133,50.884,45.977z M47.376,66.655c0.01,0.006,0.021,0.012,0.032,0.018
		C47.397,66.667,47.388,66.661,47.376,66.655L47.376,66.655z M65.132,59.962c-0.126-0.179-0.296-0.362-0.532-0.589
		c-0.128,0.08-0.246,0.15-0.344,0.201c-0.955-0.941-4.796-4.926-6.199-6.453c-0.192-0.024-0.38-0.063-0.568-0.101
		c0.82,0.938,1.57,1.767,2.082,2.283c1.27,1.269,3.589,3.763,4.423,4.549c0.269,0.249,0.43,0.428,0.506,0.539
		c0.078,0.122,0.077,0.145,0.08,0.204c0.002,0.061-0.022,0.179-0.072,0.37c-0.076,0.321-0.147,0.779-0.492,1.188
		c-0.343,0.399-0.97,0.798-2.337,0.848l-0.336,0.012L61.31,63.35c-0.075,0.811-0.233,1.223-0.385,1.455s-0.313,0.328-0.551,0.508
		c-0.221,0.168-0.674,0.399-1.471,0.399c-0.336,0-0.738-0.041-1.206-0.149l-0.324-0.076l-0.118,0.31
		c-0.093,0.256-0.455,0.667-1.012,0.978c-0.556,0.316-1.294,0.55-2.133,0.55c-0.313,0-0.642-0.034-0.979-0.106l-0.247-0.048
		l-0.146,0.204c-0.257,0.37-0.837,0.799-1.431,0.788c-0.118,0-0.234-0.012-0.359-0.045c-0.436-0.115-1.186-0.381-1.96-0.699
		l-0.484,0.394c-0.06,0.047-0.126,0.1-0.193,0.148c0.93,0.409,1.879,0.741,2.442,0.897c0.187,0.047,0.377,0.069,0.555,0.069
		c0.824-0.009,1.49-0.447,1.898-0.914c0.31,0.052,0.612,0.077,0.904,0.077c0.982-0.002,1.846-0.271,2.51-0.649
		c0.535-0.307,0.948-0.674,1.196-1.07c0.4,0.075,0.761,0.106,1.087,0.106c0.945,0.001,1.578-0.278,1.937-0.556
		c0.178-0.14,0.479-0.315,0.726-0.698c0.213-0.329,0.377-0.782,0.469-1.474c1.306-0.1,2.104-0.551,2.564-1.102
		c0.496-0.588,0.588-1.245,0.651-1.496c0.046-0.185,0.093-0.349,0.096-0.555C65.35,60.383,65.27,60.156,65.132,59.962z
		 M46.768,39.339c-1.64-0.088-3.395-0.152-4.513-0.184c-2.24-0.059-5.417-0.014-7.269-0.739l-0.417-0.162l-0.095,0.436
		c-1.087,4.969-3.42,10.405-5.282,14.411l-0.113,0.244l0.189,0.188c1.098,1.096,2.241,2.024,3.321,2.811
		c0.154-0.188,0.332-0.375,0.534-0.554c-1.017-0.737-2.089-1.6-3.124-2.61c1.798-3.891,4.005-9.055,5.127-13.906
		c2.091,0.65,5.026,0.581,7.107,0.646c1.111,0.032,2.862,0.096,4.492,0.184c0.165,0.009,0.326,0.018,0.487,0.027
		c0.646-0.212,1.266-0.432,1.78-0.647C48.335,39.43,47.567,39.382,46.768,39.339z"/>
	<path fill="#231F20" d="M34.444,37.139c-0.159-0.077-0.52-0.22-1.04-0.422c-1.543-0.593-4.325-1.61-5.313-1.938
		c0.123,0.255,0.175,0.544,0.173,0.868c0.74,0.258,1.917,0.684,3.026,1.094c0.677,0.25,1.329,0.494,1.84,0.692
		c0.506,0.193,0.892,0.35,0.972,0.391c0.117,0.04,0.269,0.315,0.264,0.737c0,0.19-0.027,0.396-0.081,0.593
		c-0.173,0.677-3.4,11.406-6.44,15.793c-0.19,0.239-0.408,0.377-0.652,0.375c-0.111,0-0.241-0.025-0.4-0.105
		c-0.376-0.187-1.721-0.728-3.127-1.281c-0.76-0.301-1.524-0.595-2.148-0.832c-0.108,0.233-0.216,0.464-0.326,0.692
		c0.628,0.24,1.417,0.548,2.193,0.851c1.391,0.545,2.771,1.106,3.066,1.254c0.249,0.126,0.5,0.188,0.74,0.188
		c0.001,0,0.001,0,0.002,0c0.557,0,0.986-0.32,1.261-0.677l0.006-0.009l0.006-0.01c3.174-4.606,6.351-15.287,6.558-16.042
		c0.069-0.259,0.105-0.526,0.105-0.789C35.126,38.012,34.981,37.427,34.444,37.139z"/>
	<path fill="#231F20" d="M71.154,59.367c-0.584,0-1.208-0.044-1.722-0.13c-0.511-0.08-0.92-0.24-0.996-0.328
		c-0.424-0.38-0.726-0.805-0.863-1.11c0.539-0.426,0.539-0.426,0.539-0.426l0.173-0.138l-0.03-0.218
		c-0.294-1.945-2.763-9.915-4.033-12.622c-0.505-1.166-0.995-1.808-1.438-2.214c0.099-0.057,0.206-0.117,0.321-0.18
		c0.944-0.518,2.457-1.223,3.16-1.52c0.298,0.239,0.761,0.728,1.253,1.323c0.184,0.223,0.378,0.463,0.573,0.711
		c-0.355-0.574-0.554-1.204-0.674-1.4c-0.719-1.148-1.407-1.084-1.933-0.988c-0.011-0.033,0.004-0.089,0.037-0.158
		c-0.441,0.198-0.998,0.458-1.548,0.726c-0.44,0.214-0.873,0.436-1.236,0.635c-0.367,0.201-0.655,0.371-0.845,0.527l-0.38,0.317
		l0.403,0.289c0.45,0.324,0.948,0.757,1.607,2.247c1.176,2.47,3.544,10.082,3.937,12.199c-0.107,0.088-0.283,0.227-0.569,0.45
		l-0.19,0.15l0.053,0.235c0.134,0.562,0.556,1.159,1.169,1.729c0.336,0.292,0.809,0.408,1.382,0.517
		c0.571,0.094,1.228,0.14,1.851,0.14c0.484,0,0.949-0.027,1.337-0.085c0.626-0.093,1.37-0.359,2.075-0.652
		c-0.019-0.043-0.038-0.091-0.052-0.129c-0.157-0.535,0.582-0.871,1.156-1.157c0.076-0.038,0.137-0.077,0.184-0.126
		c-0.979,0.447-2.507,1.169-3.476,1.311C72.043,59.342,71.611,59.367,71.154,59.367z M74.763,54.331
		c-0.287-0.717-0.801-1.736-1.424-2.894l2.626,6.252C75.973,57.263,75.591,56.404,74.763,54.331z"/>
</g>
</svg>
