<?xml version="1.0" encoding="utf-8"?>
<!-- Generator: Adobe Illustrator 16.0.0, SVG Export Plug-In . SVG Version: 6.00 Build 0)  -->
<!DOCTYPE svg PUBLIC "-//W3C//DTD SVG 1.1//EN" "http://www.w3.org/Graphics/SVG/1.1/DTD/svg11.dtd">
<svg version="1.1" id="Layer_1" xmlns="http://www.w3.org/2000/svg" xmlns:xlink="http://www.w3.org/1999/xlink" x="0px" y="0px"
	 width="1500px" height="500px" viewBox="0 0 1500 500" enable-background="new 0 0 1500 500" xml:space="preserve">
<g>
	<rect fill="#0AB4C5" width="1500" height="500"/>
	<path id="XMLID_38_" fill="#FFE400" d="M1432.586,263.684c0,0,45.443,15.81,67.414,10.816V392l-47.44,15
		c0,0-17.979-28.463-36.953-35.454c0,0,24.971-33.959,16.979-64.918C1432.586,306.628,1470.539,293.646,1432.586,263.684z"/>
	<g id="XMLID_29_">
		<path id="XMLID_37_" fill="#FFE400" d="M1246.102,0c0,0-23.326,47.472,61.83,96.226c1.25,0.715,2.521,1.431,3.818,2.146"/>
		<path id="XMLID_36_" fill="#FFE400" d="M1307.932,96.227l-4.186-10.836l16.012,5.991c0,0-5.338-20.973,27.753-27.964l-2.134-4.995
			c0,0-7.475-22.971,14.943-22.971s19.215-0.001,23.483,8.988c4.271,8.988,0,18.977,0,18.977s10.677-0.999,17.081,3.995
			c6.403,4.993,14.941-27.965,81.125-31.958c0,0-0.529-32.454,17.08-35.454h-250.646C1248.443,0,1264.082,67.115,1307.932,96.227z"
			/>
	</g>
	<path id="XMLID_22_" fill="#FFE400" d="M243.69,33.954c0,0,145.315,160.296,149.809,163.292
		c4.495,2.996,61.421,23.968,134.329,7.989s1.997-0.998,1.997-0.998l9.987-3.996l29.961-19.974l-64.418-1.498l51.935-28.464
		c0,0-99.873-46.441-105.366-48.438s-19.975,9.986-24.469-10.487c0,0-68.912,6.491-72.907-44.444L243.69,33.954z"/>
	<path id="XMLID_21_" fill="#FFE400" d="M464.472,53.991c0,0-3.464,15.075-10.955,18.82c-7.489,3.745,4.447,4.167,5.571,7.537
		c1.124,3.37,142.669,28.862,142.669,28.862l-53.194-48.302l58.422,5.998l-17.605-45.689l-11.986,0.75c0,0-6.74,16.923-18.353,3.814
		c0,0-55.804-0.782-80.523-19.782h-37.077l19.476,20.344c0,0,8.24-14.734,26.966-10.24c18.727,4.494,23.22,14.542,23.22,20.161
		c0,5.618-0.375,26.186-26.965,26.186C484.134,62.45,469.153,62.043,464.472,53.991z"/>
	<polygon id="XMLID_17_" fill="#FFE400" points="353.426,5.116 368.032,14.854 377.021,5.49 	"/>
	<path id="XMLID_16_" fill="#FFE400" d="M643.306,0l49.813,46.692l31.085-35.205l8.239,49.063c0,0,27.084-54.841,29.225-60.55
		C760.75,0,643.306,0,643.306,0z"/>
	<rect id="XMLID_15_" x="216.611" y="238.337" fill="#EE2E7B" width="988.436" height="261.722"/>
	<path id="XMLID_89_" fill="#EE2E7B" d="M889.534,202.391l25.313-48.145l23.848-40.384C742.288,194.832,619.368,20.053,606.171,0
		c-0.997,0.026-1.993-0.064-2.987,0L382.063,241.933l512.811,19.842l0.291-2.196l-6.137-6.249c0,0-13.422-3.574-13.678-7.299
		c-0.255-3.725,0.66-9.778,3.601-18.212C881.743,219.799,880.472,217.255,889.534,202.391z"/>
	<path id="XMLID_34_" fill="#010101" d="M1413.371,258.073c0,0,23.188-44.995,23.188-52.509c0-7.513-3.125-27.588-3.125-32.93
		c0-5.344,3.863-22.019,3.863-26.694c0-4.675-0.643-12.013-0.643-16.02s-23.19-26.708-32.854-34.724
		c-9.661-8.014-26.411-20.701-38.006-25.376c-11.595-4.675-31.563-21.369-36.717-28.048c-5.152-6.678-12.239-14.692-13.527-18.032
		c-1.288-3.34,6.229-14.473-1.288-22.721C1313.335,0,1039.21,0,1039.21,0h-7.086c0,0-21.902,19.883-32.854,48.601
		c0,0-23.672,17.79-38.164,26.806c-14.492,9.016-16.427,25.008-21.739,34.024c-5.314,9.016-27.057,51.074-29.953,54.08
		c-2.899,3.005-12.078,25.034-15.943,32.047c-3.864,7.012-9.179,19.532-10.628,20.533c-1.449,1.002-5.798,11.519-7.247,17.53
		c-1.448,6.01-0.481,13.021-0.481,13.021s7.246,4.006,9.18,6.01c1.933,2.002,6.28,7.514,8.213,7.013
		C894.439,259.164,1413.371,258.073,1413.371,258.073z"/>
	<path id="XMLID_33_" fill="#0EB3C5" d="M1399.938,250.542c0,0,2.576-10.307-1.933-16.104c-4.51-5.797-14.815-18.036-18.682-18.036
		c-3.867,0-6.44,0.644-8.373,2.576c-1.935,1.933-2.576,1.933-3.865,9.663c-1.289,7.729-5.797,9.019-4.509,12.884
		c1.287,3.865,3.22,5.475,3.863,8.373C1367.085,252.797,1399.938,250.542,1399.938,250.542z"/>
	<path id="XMLID_32_" fill="#0EB3C5" d="M1317.484,251.188l34.783-5.152c0,0,7.729-30.919,4.51-41.87
		c-3.222-10.951-10.308-12.239-16.104-12.239s-16.104,0.646-21.898,3.221c-5.799,2.576-21.901,10.307-27.699,15.46
		c-5.797,5.153-9.02,7.729-9.02,7.729s7.729,19.969,10.95,23.19c3.222,3.22,5.798,9.018,5.798,9.018L1317.484,251.188z"/>
	<path id="XMLID_31_" fill="#0EB3C5" d="M1427.635,208.028c0,0,6.442-5.153,4.51-12.883c-1.932-7.73-11.595-34.784-11.595-34.784
		s-24.478-19.325-24.478-21.902s29.63-3.865,29.63-3.865l3.864-1.933l-1.933-4.509l-4.187-8.696l-7.408-7.085
		c0,0-11.916-12.561-14.493-13.527c-2.577-0.966-9.019-7.73-15.46-11.917c-6.439-4.187-12.884-9.984-19.003-12.883
		s-23.834-9.985-32.853-12.239c-9.02-2.254-23.834-7.086-35.429-13.527s-24.155-13.527-29.631-16.748
		c-5.476-3.221-23.833-16.426-43.479-18.68c-19.646-2.255-44.125-0.645-44.125-0.645l-0.646,6.764l-2.897-1.288
		c0,0,9.342,23.189,12.238,27.054c2.898,3.865,15.781-6.12,15.781-6.12L1193.16,48.6l5.798,4.831l17.069-2.577l-12.885,8.374
		l24.801-0.645c0,0-19.646,13.205-17.393,17.714c2.254,4.51,5.153,5.798,11.272,7.73c6.118,1.933,68.28,20.291,68.28,20.291
		l-89.858-6.441l7.729,12.883c0,0-13.205-6.764-23.834-5.797c-10.63,0.967-8.375,2.898-8.375,2.898l2.898,3.866
		c0,0,32.207,24.799,35.105,24.799c2.897,0,9.661,9.662,7.729-1.288c-1.934-10.95-5.153-12.883-5.153-12.883l-1.288-3.543
		l45.092,30.598c0,0,67.636-18.038,95.334-1.934c27.699,16.104,20.612,14.815,27.699,13.527c7.084-1.288,9.661-7.085,9.661-7.085
		S1428.277,192.568,1427.635,208.028z"/>
	<path id="XMLID_30_" fill="#0EB3C5" d="M1250.493,250c0,0-20.613-39.021-36.073-48.04c0,0-7.729-8.884-13.525,3.355
		c-5.799,12.239-7.086,21.325-7.086,24.546c0,3.222,1.288-0.881,0,2.984c-1.289,3.865,8.373,17.155,8.373,17.155H1250.493
		L1250.493,250z"/>
	<path id="XMLID_28_" fill="#0EB3C5" d="M1032.124,248.932c0,0-5.797-37.683-32.853-54.109
		c-27.056-16.426-19.324-13.527-23.188-20.291c-3.865-6.764-11.595-25.123-11.595-25.123s25.122,9.663,34.783,8.696
		c9.662-0.967,20.291-22.223,21.258-34.784c0.967-12.562-5.797-37.684-7.729-40.582s-43.479,13.527-43.479,13.527l-23.189,55.075
		l18.358,41.548c0,0-26.089-19.325-36.717-8.696c-10.631,10.628-8.696,20.291-8.696,20.291l41.548,46.379L1032.124,248.932z"/>
	<path id="XMLID_27_" fill="#0EB3C5" d="M896.021,199.654c18.761-15.512,17.025-5.263,36.717-42.997
		c11.595-22.224,26.569-48.795,28.021-53.626c1.45-4.831,8.696-13.527,15.46-17.392c6.766-3.865,27.057-16.909,27.057-16.909
		l0.966-10.628l21.258,8.696c0,0,9.662-35.75,21.257-41.548s-14.011,1.933-14.011,1.933s12.562-24.156,27.055-22.707l-17.875-0.644
		c0,0-23.833,15.138-36.717,44.125c-12.884,28.987-0.646,2.577-0.646,2.577s-2.254,4.188-7.407,6.764
		c-5.153,2.576-28.665,18.358-32.207,21.579C961.402,82.096,900.852,180.33,896.021,199.654z"/>
	<path id="XMLID_26_" fill="#0EB3C5" d="M1067.392,11.722c0,0-33.815,17.394-26.088,57.008c0,0,7.247,13.527,38.166,6.764
		c0,0,29.47-41.065,37.685-42.997c8.213-1.933-5.313-7.73-5.313-7.73l-5.798,3.865l3.865-5.314l-11.596-12.561l-35.752,12.561
		L1067.392,11.722z"/>
	<path id="XMLID_25_" fill="#0EB3C5" d="M1121.018,35.878c0,0-8.694,9.179-9.179,12.561c-0.483,3.382,10.146,15.46,26.088,12.078
		l0.726-0.966C1138.65,59.55,1135.27,48.438,1121.018,35.878z"/>
	<path id="XMLID_24_" fill="#0EB3C5" d="M1079.47,104.963c0,0-33.816,25.122-64.735,65.704l-3.223,3.221
		c0,0-2.255,17.715,2.254,21.901c4.512,4.187,4.512,6.765,11.597,6.442c7.086-0.323,32.208-11.595,40.582-18.037
		s29.631-28.022,33.174-43.159c3.543-15.137,5.476-33.496,5.476-36.072c0-2.577-7.729,10.95-7.729,10.95l-5.477,15.459
		C1091.387,131.373,1084.301,107.54,1079.47,104.963z"/>
	<path id="XMLID_23_" fill="#0EB3C5" d="M1294.296,3.187c0,0-10.951,13.526-10.951,22.545s-34.139-12.883-37.358-18.68
		C1242.764,1.255,1294.296,3.187,1294.296,3.187z"/>
	<path id="XMLID_20_" fill="#0EB3C5" d="M1195.74,178.397c0,0-3.223-20.612-38.006-27.698
		C1157.734,150.699,1169.33,171.955,1195.74,178.397z"/>
	<path id="XMLID_19_" fill="#0EB3C5" d="M1195.096,146.189c0,0-27.054-21.901-36.072-21.257c-9.018,0.644-4.511,12.883-1.287,14.815
		C1160.956,141.68,1188.654,145.545,1195.096,146.189z"/>
	<path id="XMLID_18_" fill="#0EB3C5" d="M1217.641,148.122c0,0,39.293,15.458,44.447,28.342c5.153,12.884,1.449,2.416,1.449,2.416
		s2.896,3.865,1.449,6.764c-1.449,2.899-4.35,4.348-13.045,0s-27.056-17.875-33.817-30.436S1217.158,147.8,1217.641,148.122z"/>
	<path id="XMLID_14_" fill="#010101" d="M1039.21-0.001c0,0-20.614,13.18-38.005,46.72l-2.576,3.388
		c0,0-14.493,10.503-19.646,14.229c-5.375,3.886-11.596,7.455-11.596,7.455l34.783-71.824L1039.21-0.001z"/>
	<path id="XMLID_12_" fill="#EE2E7B" d="M1027.535,4.233c0,0-25.848,26.33-31.161,44.688c0,0-9.501,10.146-14.172,10.307
		c-4.67,0.162,22.546-55.075,22.546-55.075L1027.535,4.233z"/>
	<path id="XMLID_11_" fill="#FFE400" d="M1367.406,160.039c0,0,17.393-58.94,21.258-62.805
		c3.865-3.865-100.488-26.088-111.117-36.717C1266.919,49.888,1362.576,140.714,1367.406,160.039z"/>
	<path id="XMLID_10_" fill="#EE2E7B" d="M1027.226,216.672c34.347-17.21,42.194-43.533,50.046-33.409
		c7.349,9.477,71.438,63.303,79.607,70.151c0.559,0.468,0.855,0.716,0.855,0.716L1135,280l-52.667,1.333L1027.226,216.672z"/>
	<path id="XMLID_9_" fill="#EE2E7B" d="M1027.158,216.08c0,0,8.059,26.367,9.298,35.888c1.24,9.521,114.058,2.929,114.058,2.929"/>
	<polygon id="XMLID_8_" fill="#EE2E7B" points="1166.752,1.899 1177.059,33.462 1148.072,3.187 	"/>
	<path id="XMLID_7_" fill="#EE2E7B" d="M1142.919,4l46.38,47.906c0,0-27.055-16.307-31.563-20.817
		c-4.512-4.509,2.576,13.426,2.576,13.426s-34.783-29.277-38.648-39.583C1117.797-5.374,1121.34,4,1121.34,4H1142.919z"/>
	<path id="XMLID_6_" fill="#EE2E7B" d="M1122.342,3.456c0,0-0.624,10.846,30.24,46.172c0,0-5.301,1.24-17.771-15.804
		c-12.469-17.043-1.244-0.62-1.244-0.62s5.924,7.747,6.547,10.535c0.623,2.789,0.936,7.437,0.936,7.437
		s-35.542-41.521-45.206-46.479C1086.177-0.262,1122.342,3.456,1122.342,3.456z"/>
	<rect fill="#EE2E7B" width="603.5" height="500"/>
	<path id="XMLID_5_" fill="#0EB3C5" d="M1199.766,159.555c0,0,15.461,8.696,18.844,14.011c3.382,5.314-0.483,2.416-0.483,2.416
		S1205.563,170.667,1199.766,159.555z"/>
	<path id="XMLID_1_" fill="#010101" d="M611.5,0l-17,0.097c14.694,16.396,193.309,214.726,339.007,121.721l9.96-18.225
		C800.434,207.089,611.5,0,611.5,0z"/>
	<g>
		<path fill="none" stroke="#010101" stroke-miterlimit="10" d="M1366.455,95.027c0.086,0.165,4.057,3.693,11.909,10.585
			l0.155,0.508c-0.371,0.425-0.496,0.835-0.373,1.234c-2.373,4.051-4.162,7.64-5.369,10.768c-0.219,0.103-1.584,2.77-4.096,8.002
			c0.11,0.016,0.188,0.083,0.224,0.203l-0.291,0.102c-0.03-0.1-0.093-0.156-0.188-0.169c-0.128,0.458-1.368,3.039-3.72,7.74
			c-0.443,1.005-0.807,1.488-1.086,1.448c0.036,0.12-0.104,0.157-0.422,0.113c-0.355-0.05-1.545-1.131-3.57-3.244
			c-4.525-4.444-12.039-12.09-22.533-22.935c-0.211-0.105-2.479-2.367-6.8-6.783c-1.271-1.169-1.987-2.022-2.151-2.56
			c1.311-1.969,2.166-3.146,2.566-3.527c-0.029-0.157,0.465-0.85,1.483-2.08c1.196-1.871,1.981-2.781,2.355-2.729
			c0.638-0.025,1.365,0.02,2.188,0.135l2.215,0.31l0.254-0.136l0.055,0.179l0.281-0.132c5.034,0.609,7.98,0.975,8.841,1.095
			c-0.036-0.12,0.002-0.171,0.113-0.155c0.037,0.119,0.103,0.186,0.194,0.199l0.06-0.334c0.562,0.193,0.858,0.348,0.896,0.468
			l1.881,0.092l2.383,0.333c0.093,0.013,0.122-0.04,0.086-0.159c0.111,0.016,0.188,0.083,0.225,0.202
			C1359.387,94.199,1363.465,94.608,1366.455,95.027z M1363.684,95.439l-28.807-3.204l-5.846,8.243
			c5.404,5.558,9.353,9.513,11.844,11.862l8.006,8.267c7.381,7.512,12.125,12.227,14.232,14.141l7.025-13.766l5.549-11.228
			c1.229-2.172,1.908-3.258,2.033-3.26l-0.266-0.866c-3.727-3.227-7.48-6.554-11.268-9.981l-0.17-0.023l-1.522-0.07
			c-0.112-0.016-0.184-0.073-0.214-0.173L1363.684,95.439z M1338.136,94.463l1.906,0.267c2.26,1.479,3.51,2.406,3.751,2.783
			l3.375,11.021c0.543,1.771,1.008,2.971,1.396,3.597l-0.142-0.02l0.241,0.348c0.036,0.119,0.008,0.173-0.086,0.16l0.24,0.348
			l1.354,4.42c0.049,0.16-0.058,0.306-0.321,0.441l-0.308-0.043c-0.579-0.081-1.707-1.106-3.384-3.075
			c-1.537-1.396-5.852-5.725-12.939-12.988l-0.422-1.374c0.28,0.039,1.15-0.915,2.611-2.865c0.225,0.031,0.639-0.454,1.242-1.455
			L1338.136,94.463z M1333.543,101.281l15.737,15.637l0.168,0.023l-0.046-0.149c-0.621-2.03-1.355-4.077-2.202-6.139l0.169,0.023
			l-0.279-0.382l-2.434-7.944c-0.035-0.119-0.103-0.186-0.194-0.199c-0.036-0.12-0.009-0.172,0.085-0.159
			c-0.436-1.128-0.74-1.98-0.917-2.558l-0.567-1.852c-1.777-1.43-2.922-2.181-3.427-2.252l-0.953-0.133L1333.543,101.281z
			 M1351.548,96.027l0.046,0.148c0.111,0.016,0.152-0.026,0.122-0.125c1.701,0.238,2.688,0.805,2.963,1.7
			c1.052,3.14,1.896,5.744,2.528,7.814l0.512,1.673c-0.223,0.617-0.643,0.882-1.259,0.795l-1.937-0.271
			c-1.047-0.146-2.117-0.669-3.217-1.564l-1.088-3.554c-0.08-0.259-0.196-0.495-0.352-0.707c-0.035-0.119-0.01-0.173,0.086-0.16
			l-0.396-0.855l-1.398-4.569C1348.074,96.074,1349.204,95.965,1351.548,96.027z M1349.154,97.15l0.312,1.015l0.188,1.141
			c0.111,0.016,0.187,0.083,0.223,0.203c-0.111-0.016-0.148,0.036-0.111,0.155c0.11,0.016,0.184,0.074,0.213,0.173l-0.168-0.024
			l0.277,0.382l1.399,4.569c0.342,1.116,1.146,1.762,2.419,1.939c0.035,0.119,0.344,0.277,0.922,0.472
			c0.15-0.093,0.291-0.131,0.422-0.113l0.363,0.223c1.005-0.05,1.415-0.373,1.23-0.97c-0.301-0.633-0.492-1.089-0.578-1.368
			c-0.072-0.239-0.055-0.352,0.059-0.334l-0.424-0.86l-0.622-2.03c-0.037-0.12,0.001-0.171,0.112-0.155l-0.959-2.078l0.17,0.023
			c-0.445-1.453-0.986-2.225-1.621-2.314l-1.484-0.379C1349.831,96.701,1349.051,96.811,1349.154,97.15z M1355.426,110.176
			c2.225,0.313,3.458,0.865,3.702,1.661c0.15,0.784,0.241,1.225,0.271,1.324c0.896,2.641,1.558,4.296,1.977,4.965l-0.168-0.023
			l0.277,0.381l2.123,6.929c0.391,1.274,0.037,2.463-1.055,3.568c0.092,0.299-0.211,0.799-0.906,1.502l-0.168-0.023
			c-1.45-1.404-2.691-2.654-3.728-3.752l-0.169-0.023l-0.266-0.866l0.066-0.305l-0.168-0.023l0.067-0.305l-0.109-0.358
			c-0.028-0.1-0.103-0.157-0.214-0.172c-0.037-0.12,0.001-0.171,0.113-0.156c-0.582-1.549-0.982-2.682-1.203-3.398l-0.055-0.179
			l-0.197-1.171l-0.168-0.023c-0.031-0.1,0.01-0.142,0.123-0.126l-0.791-2.055l-0.055-0.179c-0.08-0.258-0.096-0.48-0.043-0.664
			c-0.172-0.215-0.297-0.441-0.369-0.681l0.168,0.023l-0.277-0.382l-1.244-4.061C1353.109,110.442,1353.93,109.966,1355.426,110.176
			z M1354.043,112.583c0.661,1.865,1.138,3.275,1.432,4.23l-0.142-0.02l0.25,0.378c0.089,0.584,0.198,1.085,0.327,1.503
			c0.093,0.013,0.154,0.069,0.186,0.169c-0.094-0.013-0.121,0.04-0.086,0.16l0.143,0.02l-0.039,0.309
			c0.5,1.633,1.22,3.839,2.16,6.62c0.896,1.288,1.883,2.351,2.963,3.188c-0.057-0.179,0.541-1.067,1.785-2.666l-0.832-2.717
			l-0.48-2.011c-0.095-0.013-0.159-0.079-0.195-0.199l0.142,0.02l-0.241-0.348l-0.723-2.359c-0.764-2.489-1.48-4.485-2.156-5.991
			c0.057-0.164,0.027-0.434-0.088-0.813c-0.965-0.458-1.728-0.784-2.285-0.977C1354.511,111.305,1353.807,111.807,1354.043,112.583z
			 M1362.314,97.362l3.336,0.467c1.099,0.611,3.764,3.033,7.994,7.265l1.148,1.304l0.102,0.329c-0.354-0.05-0.603,0.459-0.739,1.526
			c-0.457,0.432-2.021,3.453-4.685,9.063c-0.148-0.021-0.772,0.92-1.871,2.825c-0.27,0.172-0.555,0.237-0.854,0.195
			c-0.438-0.443-0.717-0.853-0.833-1.232l-2.442-7.974l-0.396-0.855l0.141,0.02l-0.239-0.348l-0.125-0.847l-0.143-0.02
			c-0.036-0.12-0.008-0.172,0.086-0.159l-2.119-5.957c-0.182-0.939-0.365-1.718-0.556-2.335l-0.168-0.023
			c-0.378-1.234-0.146-1.964,0.697-2.19C1361.292,97.648,1361.848,97.297,1362.314,97.362z M1362.4,98.175
			c-0.146,0.399-0.748,0.915-1.807,1.548l0.622,2.031c0.142,0.458,0.272,1.067,0.397,1.828c0.175,0.215,0.301,0.452,0.38,0.71
			c-0.046,0.204-0.052,0.365-0.015,0.484l0.168,0.023c0.031,0.1-0.01,0.142-0.121,0.126l0.688,1.726l1.454,4.749
			c0.445,1.453,0.859,2.483,1.242,3.089l-0.143-0.021l0.24,0.348l1.354,4.419l0.338,0.047c-0.1-0.318,0.414-1.275,1.535-2.872
			c3.33-6.469,5.014-9.912,5.047-10.326c-5.305-5.049-8.06-7.588-8.266-7.617C1364.134,98.371,1363.094,98.272,1362.4,98.175z"/>
	</g>
	<polygon id="XMLID_41_" fill="#0EB3C5" points="1500,500 1205,500 1205.125,389.75 1500,390 	"/>
	<g id="XMLID_56_">
		<path id="XMLID_132_" fill="#EF6E25" d="M173.424,93.843c10.375,0.195-29.502-1.785-34.493,13.312
			c-3.711,11.226,1.538,16.961,5.442,18.354c2.892,1.032-12.08,20.102-12.08,20.102l26.736,8.076l16.474,3.575l-26.755,1.826
			l19.516,19.904l-6.643,21.928l24.242-8.256l21.131,15.607c0,0,16.595,5.61,32.237-1.039c3.815-1.623-1.814,1.466-1.814,1.466
			s8.024-4.645,11.953-4.356c3.927,0.287,16.904,14.044,40.102,4.743l7.495-3.292l0.477,5.155c0,0,36.346-0.762,41.503-1.238
			c5.156-0.478,10.899-1.66,10.899-1.66l5.798-0.535l6.807,3.27c0,0,21.07,0.078,30.952-2.862
			c13.53-4.025,21.425-37.136,1.788-50.883c-9.863-6.904-15.357-7.005-15.357-7.005s7.96-1.997,13.134,0.609
			c2.728,1.374,5.688-19.643,5.688-19.643s-18.992-9.452-20.924-9.274c-1.936,0.181-8.727-29.886-13.359-30.757
			c-4.631-0.874,7.88-4.646,2.285-23.444c-4.538-15.244-46.71-4.17-49.814-2.582c-3.104,1.586-7.361,1.151-7.361,1.151
			l-39.117,8.694l0.596,5.282c0,0-1.322-3.78-8.473-3.77c-7.152,0.014-34.236,7.721-34.236,7.721l-23.104,4.289
			c0,0,1.28,33.859-0.471,36.373c-1.851,2.657-5.729,2.247-7.908,0.674c-2.348-1.694-1.421-35.212-1.421-35.212L173.424,93.843z"/>
		<g id="XMLID_70_">
			<g id="XMLID_4_">
				<path fill="#FEDD06" d="M144.07,133.755c3.713,1.04,9.169,2.061,14.468,1.789c5.707-0.293,8.517-2.376,8.401-5.344
					c-0.111-2.833-2.688-4.344-9.509-5.619c-9.414-1.76-16.753-5.034-16.897-10.786c-0.245-9.733,12.913-14.994,21.223-16.274
					c6.319-0.973,11.022-0.713,14.361,0.013c-0.958,3.561-1.442,5.329-2.412,8.84c-2.24-0.6-6.215-1.347-11.725-0.575
					c-5.51,0.772-8.153,3.102-8.007,5.351c0.178,2.764,3.581,3.567,10.802,4.972c9.86,1.917,14.442,5.955,14.494,12.561
					c0.084,10.787-12.014,15.173-21.028,15.125c-6.024-0.032-12.815-0.866-16.297-1.99
					C142.798,138.606,143.222,136.994,144.07,133.755z"/>
				<path fill="#FEDD06" d="M193.034,93.179c0.357,9.388,0.518,18.782,0.536,28.176c0.024,8.475,3.43,12.663,9.926,12.216
					c6.663-0.458,10.69-5.175,10.723-14.336c0.049-9.894-0.084-19.79-0.503-29.675c5.241-0.967,7.984-1.494,13.327-2.558
					c0.519,9.891,0.722,19.795,0.737,29.699c0.491,14.862-10.521,25.352-24.82,26.13c-12.824,0.698-21.984-8.319-21.675-21.268
					c-0.198-10.59-0.342-15.841-0.813-26.326C185.487,94.428,187.985,94.021,193.034,93.179z"/>
				<path fill="#FEDD06" d="M232.087,86.706c4.093-1.458,9.855-3.126,18.008-4.832c8.24-1.725,14.195-1.474,18.234,0.69
					c3.845,2.06,6.535,6.251,6.654,11.787c0.119,5.536-1.727,10.6-5.175,14.366c-4.466,4.877-11.187,7.824-19.075,9.106
					c-1.753,0.285-3.333,0.457-4.564,0.491c0.057,7.825,0.057,11.744,0.079,19.612c-5.337,0.719-8.014,1.066-13.417,1.688
					C232.872,121.96,232.796,104.348,232.087,86.706z M246.069,108.747c1.143,0.047,2.543-0.113,4.468-0.449
					c7.086-1.235,11.403-5.411,11.272-11.105c-0.118-5.117-3.98-7.415-10.626-6.107c-2.711,0.533-4.538,1.133-5.493,1.563
					C245.912,99.079,245.977,102.299,246.069,108.747z"/>
				<path fill="#FEDD06" d="M312.627,103.903c-9.029,1.201-13.321,1.89-22.039,3.312c0.096,5.482,0.141,8.224,0.237,13.722
					c9.792-1.391,14.745-1.93,24.853-3.066c0.129,4.48,0.195,6.722,0.325,11.217c-12.883,1.055-25.719,2.604-38.517,4.409
					c-0.232-18.926-0.5-37.844-1.058-56.764c12.216-2.589,24.429-5.189,36.643-7.793c0.104,4.487,0.161,6.726,0.274,11.199
					c-9.444,1.726-13.976,2.65-23.202,4.466c0.108,4.8,0.157,7.195,0.248,11.99c8.698-1.558,12.941-2.35,21.929-3.734
					C312.442,97.278,312.504,99.486,312.627,103.903z"/>
				<path fill="#FEDD06" d="M316.906,68.942c4.324-1.643,10.754-3.604,17.888-5.191c8.808-1.96,15.054-1.93,19.537,0.881
					c3.752,2.352,6.067,6.624,6.447,12.673c0.522,8.393-4.74,14.975-9.916,17.795c0.005,0.114,0.007,0.172,0.012,0.286
					c4.336,1.124,6.877,5.056,8.64,10.729c2.161,6.955,4.324,15.097,5.579,17.436c-5.691,0.667-8.541,1.008-14.232,1.683
					c-1.056-1.662-2.774-6.707-4.723-14.139c-1.963-7.496-4.61-9.363-10.253-8.632c-1.674,0.245-2.511,0.366-4.185,0.607
					c0.314,9.729,0.453,14.571,0.727,24.298c-5.511,0.614-8.267,0.914-13.776,1.463C318.077,108.867,317.477,88.905,316.906,68.942z
					 M331.355,92.959c2.174-0.349,3.261-0.524,5.434-0.878c6.881-1.12,10.798-5.39,10.515-11.003
					c-0.299-5.9-4.271-8.165-10.471-6.986c-3.282,0.624-5.166,1.298-6.142,1.675C330.979,82.675,331.111,86.109,331.355,92.959z"/>
				<path fill="#FEDD06" d="M228.233,146.189c5.485-0.532,8.199-0.841,13.6-1.498c0.059,11.652,0.208,23.288,0.484,34.937
					c1.064,13.117-7.391,22.49-20.533,21.954c-3.126-0.127-7.561-0.717-10.351-1.662c0.309-3.869,0.491-5.805,0.901-9.681
					c1.933,0.62,4.5,1.08,7.27,1.091c5.908,0.024,9.322-2.503,9.038-11.021C228.364,168.93,228.242,157.572,228.233,146.189z"/>
				<path fill="#FEDD06" d="M301.956,166.563c0.617,17.433-11.072,32.176-28.93,33.055c-15.847,0.78-28.718-11.186-29.021-27.09
					c-0.316-16.625,12.444-30.47,28.607-32.856C289.497,137.178,301.388,150.514,301.956,166.563z M258.284,170.905
					c0.236,11.114,6.089,18.714,15.064,18.039c10.343-0.778,14.301-12.147,13.951-21.084c-0.41-10.468-5.626-19.055-14.911-17.919
					C263.279,151.056,258.05,159.876,258.284,170.905z"/>
				<path fill="#FEDD06" d="M303.378,137.789c3.601-1.037,10.983-2.119,17.917-2.772c8.483-0.799,13.768-0.389,18.252,1.672
					c4.198,1.93,7.565,5.858,7.731,11.594c0.163,5.642-2.854,11.238-9.691,14.395c0.002,0.075,0.002,0.112,0.005,0.188
					c7.087,1.446,12.464,6.555,12.858,14.989c0.274,5.912-2.017,10.813-5.675,14.297c-4.241,4.036-11.701,6.559-24.103,6.733
					c-6.939,0.098-12.156-0.437-15.325-0.964C304.627,177.878,303.94,157.835,303.378,137.789z M317.855,160.128
					c1.822-0.108,2.733-0.167,4.559-0.286c7.293-0.479,11.109-3.889,10.97-8.529c-0.143-4.732-3.769-6.875-10.06-6.346
					c-3.01,0.253-4.735,0.57-5.916,0.842C317.579,151.508,317.667,154.368,317.855,160.128z M318.879,187.943
					c1.386,0.154,3.041,0.108,5.428,0.026c6.335-0.218,11.79-3.028,11.498-9.798c-0.278-6.485-5.929-8.62-12.865-8.241
					c-1.897,0.104-2.848,0.152-4.745,0.243C318.441,177.21,318.573,180.757,318.879,187.943z"/>
				<path fill="#FEDD06" d="M353.748,181.56c3.853,1.836,9.737,3.613,15.68,3.353c6.4-0.28,9.592-3.321,9.363-7.737
					c-0.217-4.215-3.26-6.543-10.735-8.859c-10.302-3.192-17.307-8.587-17.512-17.783c-0.278-12.481,11.256-20.549,22.74-21.651
					c6.871-0.66,12.085,0.315,15.778,1.76c-1.123,4.953-1.688,7.418-2.809,12.349c-2.494-1.091-6.92-2.585-12.938-2.034
					c-6.021,0.551-8.863,3.708-8.771,7.063c0.115,4.122,3.658,5.653,11.665,8.273c10.916,3.572,16.187,9.687,16.747,19.326
					c0.794,13.616-10.835,21.852-23.487,21.967c-6.941,0.063-14.222-1.537-17.849-3.469
					C352.439,189.063,352.867,186.553,353.748,181.56z"/>
			</g>
		</g>
		<g id="XMLID_61_">
			<path id="XMLID_69_" fill="#FEDD06" d="M212.484,164.685l-11.117,10.192l2.296,14.602c0.411,0.936,0.098,2.013-0.773,2.666
				c-0.436,0.326-0.96,0.509-1.5,0.543c-0.534,0.035-1.078-0.079-1.555-0.347l-12.24-7.156l-14.697,7.379
				c-0.873,0.654-2.107,0.735-3.056,0.198c-0.945-0.533-1.395-1.559-1.111-2.541l3.872-13.476l-10.744-10.299
				c-0.949-0.535-1.4-1.562-1.114-2.544c0.288-0.98,1.242-1.697,2.365-1.769l14.002-0.91l8.854-15.323
				c0.288-0.981,1.24-1.695,2.366-1.768c1.125-0.074,2.163,0.51,2.573,1.449l3.985,14.489l15.795,0.499
				c1.124-0.073,2.163,0.511,2.575,1.449C213.67,162.957,213.355,164.03,212.484,164.685z"/>
		</g>
	</g>
</g>
</svg>
